<svg width="857" height="629" viewBox="0 0 857 629" fill="none" xmlns="http://www.w3.org/2000/svg">
<g clip-path="url(#clip0_561_159)">
<path d="M700.652 613.841C720.352 611.806 740.382 609.138 758.209 600.924C793.361 584.727 814.353 549.749 828.261 515.085C858.969 438.07 865.222 354.199 846.248 273.846C839.263 244.548 828.269 214.904 806.051 193.516C793.282 181.223 777.445 172.285 761.799 163.485L663.043 107.946C596.37 70.4504 528.703 32.5458 454.023 12.9058C405.811 0.22677 354.566 -4.51863 305.579 5.11621C250.004 16.047 200.34 44.6369 151.921 72.748C110.804 96.6193 68.4647 121.568 41.0553 159.202C1.14401 214.003 -0.148331 285.295 0.00970226 351.92C0.110526 394.444 0.211377 436.968 0.312255 479.492C0.393658 513.794 0.8434 549.599 17.4588 580.059C36.2088 614.432 68.7122 625.565 106.919 623.92C153.04 621.934 199.02 617.238 245.337 616.509C342.424 614.981 439.422 620.698 536.494 620.935C591.287 621.069 646.152 619.471 700.652 613.841Z" fill="#EBEEF2"/>
<path d="M769.521 590.509H622.402V595.08H769.521V590.509Z" fill="#010A3D"/>
<path d="M774.671 595.11H617.251C613.662 595.11 610.752 597.872 610.752 601.28V614.991C610.752 618.398 613.662 621.161 617.251 621.161H774.671C778.261 621.161 781.17 618.398 781.17 614.991V601.28C781.17 597.872 778.261 595.11 774.671 595.11Z" fill="#1E5CD9"/>
<path d="M624.438 616.27V600H622.402V616.27H624.438Z" fill="#010A3D"/>
<path d="M628.666 616.271V600H626.63V616.271H628.666Z" fill="#010A3D"/>
<path d="M632.894 616.27V600H630.858V616.27H632.894Z" fill="#010A3D"/>
<path d="M637.122 616.271V600H635.086V616.271H637.122Z" fill="#010A3D"/>
<path d="M641.35 616.27V600H639.314V616.27H641.35Z" fill="#010A3D"/>
<path d="M645.578 616.271V600H643.542V616.271H645.578Z" fill="#010A3D"/>
<path d="M649.806 616.271V600H647.77V616.271H649.806Z" fill="#010A3D"/>
<path d="M654.033 616.271V600H651.998V616.271H654.033Z" fill="#010A3D"/>
<path d="M658.261 616.271V600H656.226V616.271H658.261Z" fill="#010A3D"/>
<path d="M662.489 616.271V600H660.454V616.271H662.489Z" fill="#010A3D"/>
<path d="M666.717 616.271V600H664.682V616.271H666.717Z" fill="#010A3D"/>
<path d="M670.945 616.271V600H668.909V616.271H670.945Z" fill="#010A3D"/>
<path d="M675.173 616.271V600H673.137V616.271H675.173Z" fill="#010A3D"/>
<path d="M679.401 616.271V600H677.365V616.271H679.401Z" fill="#010A3D"/>
<path d="M692.425 611.217C694.218 611.217 695.671 609.837 695.671 608.135C695.671 606.434 694.218 605.054 692.425 605.054C690.633 605.054 689.18 606.434 689.18 608.135C689.18 609.837 690.633 611.217 692.425 611.217Z" fill="#F2E416"/>
<path d="M707.842 611.217C709.634 611.217 711.087 609.837 711.087 608.135C711.087 606.434 709.634 605.054 707.842 605.054C706.049 605.054 704.596 606.434 704.596 608.135C704.596 609.837 706.049 611.217 707.842 611.217Z" fill="#ACE5F2"/>
<path d="M723.258 611.217C725.05 611.217 726.504 609.837 726.504 608.135C726.504 606.434 725.05 605.054 723.258 605.054C721.466 605.054 720.012 606.434 720.012 608.135C720.012 609.837 721.466 611.217 723.258 611.217Z" fill="#ACE5F2"/>
<path d="M738.674 611.217C740.467 611.217 741.92 609.837 741.92 608.135C741.92 606.434 740.467 605.054 738.674 605.054C736.882 605.054 735.429 606.434 735.429 608.135C735.429 609.837 736.882 611.217 738.674 611.217Z" fill="#ACE5F2"/>
<path d="M754.091 611.217C755.883 611.217 757.336 609.837 757.336 608.135C757.336 606.434 755.883 605.054 754.091 605.054C752.298 605.054 750.845 606.434 750.845 608.135C750.845 609.837 752.298 611.217 754.091 611.217Z" fill="#0597F2"/>
<path d="M754.381 611.217C756.173 611.217 757.626 609.837 757.626 608.135C757.626 606.434 756.173 605.054 754.381 605.054C752.588 605.054 751.135 606.434 751.135 608.135C751.135 609.837 752.588 611.217 754.381 611.217Z" fill="#0597F2"/>
<path d="M774.671 564.459H617.251C613.662 564.459 610.752 567.221 610.752 570.629V584.339C610.752 587.747 613.662 590.509 617.251 590.509H774.671C778.261 590.509 781.17 587.747 781.17 584.339V570.629C781.17 567.221 778.261 564.459 774.671 564.459Z" fill="#1E5CD9"/>
<path d="M624.438 585.619V569.349H622.402V585.619H624.438Z" fill="#010A3D"/>
<path d="M628.666 585.619V569.349H626.63V585.619H628.666Z" fill="#010A3D"/>
<path d="M632.894 585.619V569.349H630.858V585.619H632.894Z" fill="#010A3D"/>
<path d="M637.122 585.619V569.349H635.086V585.619H637.122Z" fill="#010A3D"/>
<path d="M641.35 585.619V569.349H639.314V585.619H641.35Z" fill="#010A3D"/>
<path d="M645.578 585.619V569.349H643.542V585.619H645.578Z" fill="#010A3D"/>
<path d="M649.806 585.619V569.349H647.77V585.619H649.806Z" fill="#010A3D"/>
<path d="M654.034 585.619V569.349H651.998V585.619H654.034Z" fill="#010A3D"/>
<path d="M658.261 585.619V569.349H656.226V585.619H658.261Z" fill="#010A3D"/>
<path d="M662.489 585.619V569.349H660.454V585.619H662.489Z" fill="#010A3D"/>
<path d="M666.717 585.619V569.349H664.682V585.619H666.717Z" fill="#010A3D"/>
<path d="M670.945 585.619V569.349H668.91V585.619H670.945Z" fill="#010A3D"/>
<path d="M675.173 585.619V569.349H673.137V585.619H675.173Z" fill="#010A3D"/>
<path d="M679.401 585.619V569.349H677.365V585.619H679.401Z" fill="#010A3D"/>
<path d="M692.425 580.565C694.218 580.565 695.671 579.186 695.671 577.484C695.671 575.782 694.218 574.403 692.425 574.403C690.633 574.403 689.18 575.782 689.18 577.484C689.18 579.186 690.633 580.565 692.425 580.565Z" fill="#F2E416"/>
<path d="M707.842 580.565C709.634 580.565 711.087 579.186 711.087 577.484C711.087 575.782 709.634 574.403 707.842 574.403C706.049 574.403 704.596 575.782 704.596 577.484C704.596 579.186 706.049 580.565 707.842 580.565Z" fill="#ACE5F2"/>
<path d="M723.258 580.565C725.05 580.565 726.504 579.186 726.504 577.484C726.504 575.782 725.05 574.403 723.258 574.403C721.466 574.403 720.012 575.782 720.012 577.484C720.012 579.186 721.466 580.565 723.258 580.565Z" fill="#ACE5F2"/>
<path d="M738.674 580.565C740.467 580.565 741.92 579.186 741.92 577.484C741.92 575.782 740.467 574.403 738.674 574.403C736.882 574.403 735.429 575.782 735.429 577.484C735.429 579.186 736.882 580.565 738.674 580.565Z" fill="#ACE5F2"/>
<path d="M754.091 580.565C755.883 580.565 757.336 579.186 757.336 577.484C757.336 575.782 755.883 574.403 754.091 574.403C752.298 574.403 750.845 575.782 750.845 577.484C750.845 579.186 752.298 580.565 754.091 580.565Z" fill="#0597F2"/>
<path d="M754.381 580.565C756.173 580.565 757.626 579.186 757.626 577.484C757.626 575.782 756.173 574.403 754.381 574.403C752.588 574.403 751.135 575.782 751.135 577.484C751.135 579.186 752.588 580.565 754.381 580.565Z" fill="#0597F2"/>
<path d="M769.521 559.888H622.402V564.459H769.521V559.888Z" fill="#010A3D"/>
<path d="M774.671 533.838H617.251C613.662 533.838 610.752 536.6 610.752 540.008V553.719C610.752 557.126 613.662 559.888 617.251 559.888H774.671C778.261 559.888 781.17 557.126 781.17 553.719V540.008C781.17 536.6 778.261 533.838 774.671 533.838Z" fill="#1E5CD9"/>
<path d="M624.438 554.998V538.728H622.402V554.998H624.438Z" fill="#010A3D"/>
<path d="M628.666 554.998V538.728H626.63V554.998H628.666Z" fill="#010A3D"/>
<path d="M632.894 554.998V538.728H630.858V554.998H632.894Z" fill="#010A3D"/>
<path d="M637.122 554.998V538.728H635.086V554.998H637.122Z" fill="#010A3D"/>
<path d="M641.35 554.998V538.728H639.314V554.998H641.35Z" fill="#010A3D"/>
<path d="M645.578 554.998V538.728H643.542V554.998H645.578Z" fill="#010A3D"/>
<path d="M649.806 554.998V538.728H647.77V554.998H649.806Z" fill="#010A3D"/>
<path d="M654.034 554.998V538.728H651.998V554.998H654.034Z" fill="#010A3D"/>
<path d="M658.261 554.998V538.728H656.226V554.998H658.261Z" fill="#010A3D"/>
<path d="M662.489 554.998V538.728H660.454V554.998H662.489Z" fill="#010A3D"/>
<path d="M666.717 554.998V538.728H664.682V554.998H666.717Z" fill="#010A3D"/>
<path d="M670.945 554.998V538.728H668.91V554.998H670.945Z" fill="#010A3D"/>
<path d="M675.173 554.998V538.728H673.137V554.998H675.173Z" fill="#010A3D"/>
<path d="M679.401 554.998V538.728H677.365V554.998H679.401Z" fill="#010A3D"/>
<path d="M692.425 549.944C694.218 549.944 695.671 548.565 695.671 546.863C695.671 545.161 694.218 543.782 692.425 543.782C690.633 543.782 689.18 545.161 689.18 546.863C689.18 548.565 690.633 549.944 692.425 549.944Z" fill="#F2E416"/>
<path d="M707.842 549.944C709.634 549.944 711.087 548.565 711.087 546.863C711.087 545.161 709.634 543.782 707.842 543.782C706.049 543.782 704.596 545.161 704.596 546.863C704.596 548.565 706.049 549.944 707.842 549.944Z" fill="#ACE5F2"/>
<path d="M723.258 549.944C725.05 549.944 726.504 548.565 726.504 546.863C726.504 545.161 725.05 543.782 723.258 543.782C721.466 543.782 720.012 545.161 720.012 546.863C720.012 548.565 721.466 549.944 723.258 549.944Z" fill="#ACE5F2"/>
<path d="M738.674 549.944C740.467 549.944 741.92 548.565 741.92 546.863C741.92 545.161 740.467 543.782 738.674 543.782C736.882 543.782 735.429 545.161 735.429 546.863C735.429 548.565 736.882 549.944 738.674 549.944Z" fill="#ACE5F2"/>
<path d="M754.091 549.944C755.883 549.944 757.336 548.565 757.336 546.863C757.336 545.161 755.883 543.782 754.091 543.782C752.298 543.782 750.845 545.161 750.845 546.863C750.845 548.565 752.298 549.944 754.091 549.944Z" fill="#0597F2"/>
<path d="M754.381 549.944C756.173 549.944 757.626 548.565 757.626 546.863C757.626 545.161 756.173 543.782 754.381 543.782C752.588 543.782 751.135 545.161 751.135 546.863C751.135 548.565 752.588 549.944 754.381 549.944Z" fill="#0597F2"/>
<path d="M769.521 529.268H622.402V533.838H769.521V529.268Z" fill="#010A3D"/>
<path d="M774.671 503.217H617.251C613.662 503.217 610.752 505.98 610.752 509.387V523.098C610.752 526.505 613.662 529.268 617.251 529.268H774.671C778.261 529.268 781.17 526.505 781.17 523.098V509.387C781.17 505.98 778.261 503.217 774.671 503.217Z" fill="#1E5CD9"/>
<path d="M624.438 524.378V508.107H622.402V524.378H624.438Z" fill="#010A3D"/>
<path d="M628.666 524.378V508.107H626.63V524.378H628.666Z" fill="#010A3D"/>
<path d="M632.894 524.378V508.107H630.858V524.378H632.894Z" fill="#010A3D"/>
<path d="M637.122 524.378V508.107H635.086V524.378H637.122Z" fill="#010A3D"/>
<path d="M641.35 524.378V508.107H639.314V524.378H641.35Z" fill="#010A3D"/>
<path d="M645.578 524.378V508.107H643.542V524.378H645.578Z" fill="#010A3D"/>
<path d="M649.806 524.378V508.107H647.77V524.378H649.806Z" fill="#010A3D"/>
<path d="M654.034 524.378V508.107H651.998V524.378H654.034Z" fill="#010A3D"/>
<path d="M658.261 524.378V508.107H656.226V524.378H658.261Z" fill="#010A3D"/>
<path d="M662.489 524.378V508.107H660.454V524.378H662.489Z" fill="#010A3D"/>
<path d="M666.717 524.378V508.107H664.682V524.378H666.717Z" fill="#010A3D"/>
<path d="M670.945 524.378V508.107H668.91V524.378H670.945Z" fill="#010A3D"/>
<path d="M675.173 524.378V508.107H673.137V524.378H675.173Z" fill="#010A3D"/>
<path d="M679.401 524.378V508.107H677.365V524.378H679.401Z" fill="#010A3D"/>
<path d="M692.425 519.323C694.218 519.323 695.671 517.944 695.671 516.242C695.671 514.541 694.218 513.161 692.425 513.161C690.633 513.161 689.18 514.541 689.18 516.242C689.18 517.944 690.633 519.323 692.425 519.323Z" fill="#F2E416"/>
<path d="M707.842 519.323C709.634 519.323 711.087 517.944 711.087 516.242C711.087 514.541 709.634 513.161 707.842 513.161C706.049 513.161 704.596 514.541 704.596 516.242C704.596 517.944 706.049 519.323 707.842 519.323Z" fill="#ACE5F2"/>
<path d="M723.258 519.323C725.05 519.323 726.504 517.944 726.504 516.242C726.504 514.541 725.05 513.161 723.258 513.161C721.466 513.161 720.012 514.541 720.012 516.242C720.012 517.944 721.466 519.323 723.258 519.323Z" fill="#ACE5F2"/>
<path d="M738.674 519.323C740.467 519.323 741.92 517.944 741.92 516.242C741.92 514.541 740.467 513.161 738.674 513.161C736.882 513.161 735.429 514.541 735.429 516.242C735.429 517.944 736.882 519.323 738.674 519.323Z" fill="#ACE5F2"/>
<path d="M754.091 519.323C755.883 519.323 757.336 517.944 757.336 516.242C757.336 514.541 755.883 513.161 754.091 513.161C752.298 513.161 750.845 514.541 750.845 516.242C750.845 517.944 752.298 519.323 754.091 519.323Z" fill="#0597F2"/>
<path d="M754.381 519.323C756.173 519.323 757.626 517.944 757.626 516.242C757.626 514.541 756.173 513.161 754.381 513.161C752.588 513.161 751.135 514.541 751.135 516.242C751.135 517.944 752.588 519.323 754.381 519.323Z" fill="#0597F2"/>
<path d="M769.521 529.268H622.402V533.838H769.521V529.268Z" fill="#010A3D"/>
<path d="M769.521 498.647H622.402V503.217H769.521V498.647Z" fill="#010A3D"/>
<path d="M774.671 472.596H617.251C613.662 472.596 610.752 475.359 610.752 478.766V492.477C610.752 495.884 613.662 498.647 617.251 498.647H774.671C778.261 498.647 781.17 495.884 781.17 492.477V478.766C781.17 475.359 778.261 472.596 774.671 472.596Z" fill="#1E5CD9"/>
<path d="M624.438 493.757V477.487H622.402V493.757H624.438Z" fill="#010A3D"/>
<path d="M628.666 493.757V477.487H626.63V493.757H628.666Z" fill="#010A3D"/>
<path d="M632.894 493.757V477.487H630.858V493.757H632.894Z" fill="#010A3D"/>
<path d="M637.122 493.757V477.487H635.086V493.757H637.122Z" fill="#010A3D"/>
<path d="M641.35 493.757V477.487H639.314V493.757H641.35Z" fill="#010A3D"/>
<path d="M645.578 493.757V477.487H643.542V493.757H645.578Z" fill="#010A3D"/>
<path d="M649.806 493.757V477.487H647.77V493.757H649.806Z" fill="#010A3D"/>
<path d="M654.034 493.757V477.487H651.998V493.757H654.034Z" fill="#010A3D"/>
<path d="M658.261 493.757V477.487H656.226V493.757H658.261Z" fill="#010A3D"/>
<path d="M662.489 493.757V477.487H660.454V493.757H662.489Z" fill="#010A3D"/>
<path d="M666.717 493.757V477.487H664.682V493.757H666.717Z" fill="#010A3D"/>
<path d="M670.945 493.757V477.487H668.91V493.757H670.945Z" fill="#010A3D"/>
<path d="M675.173 493.757V477.487H673.137V493.757H675.173Z" fill="#010A3D"/>
<path d="M679.401 493.757V477.487H677.365V493.757H679.401Z" fill="#010A3D"/>
<path d="M692.425 488.703C694.218 488.703 695.671 487.323 695.671 485.621C695.671 483.92 694.218 482.54 692.425 482.54C690.633 482.54 689.18 483.92 689.18 485.621C689.18 487.323 690.633 488.703 692.425 488.703Z" fill="#F2E416"/>
<path d="M707.842 488.703C709.634 488.703 711.087 487.323 711.087 485.621C711.087 483.92 709.634 482.54 707.842 482.54C706.049 482.54 704.596 483.92 704.596 485.621C704.596 487.323 706.049 488.703 707.842 488.703Z" fill="#ACE5F2"/>
<path d="M723.258 488.703C725.05 488.703 726.504 487.323 726.504 485.621C726.504 483.92 725.05 482.54 723.258 482.54C721.466 482.54 720.012 483.92 720.012 485.621C720.012 487.323 721.466 488.703 723.258 488.703Z" fill="#ACE5F2"/>
<path d="M738.674 488.703C740.467 488.703 741.92 487.323 741.92 485.621C741.92 483.92 740.467 482.54 738.674 482.54C736.882 482.54 735.429 483.92 735.429 485.621C735.429 487.323 736.882 488.703 738.674 488.703Z" fill="#ACE5F2"/>
<path d="M754.091 488.703C755.883 488.703 757.336 487.323 757.336 485.621C757.336 483.92 755.883 482.54 754.091 482.54C752.298 482.54 750.845 483.92 750.845 485.621C750.845 487.323 752.298 488.703 754.091 488.703Z" fill="#0597F2"/>
<path d="M754.381 488.703C756.173 488.703 757.626 487.323 757.626 485.621C757.626 483.92 756.173 482.54 754.381 482.54C752.588 482.54 751.135 483.92 751.135 485.621C751.135 487.323 752.588 488.703 754.381 488.703Z" fill="#0597F2"/>
<path d="M769.521 498.647H622.402V503.217H769.521V498.647Z" fill="#010A3D"/>
<path d="M769.521 468.026H622.402V472.596H769.521V468.026Z" fill="#010A3D"/>
<path d="M774.671 441.976H617.251C613.662 441.976 610.752 444.738 610.752 448.145V461.856C610.752 465.264 613.662 468.026 617.251 468.026H774.671C778.261 468.026 781.17 465.264 781.17 461.856V448.145C781.17 444.738 778.261 441.976 774.671 441.976Z" fill="#1E5CD9"/>
<path d="M624.438 463.136V446.866H622.402V463.136H624.438Z" fill="#010A3D"/>
<path d="M628.666 463.136V446.866H626.63V463.136H628.666Z" fill="#010A3D"/>
<path d="M632.894 463.136V446.866H630.858V463.136H632.894Z" fill="#010A3D"/>
<path d="M637.122 463.136V446.866H635.086V463.136H637.122Z" fill="#010A3D"/>
<path d="M641.35 463.136V446.866H639.314V463.136H641.35Z" fill="#010A3D"/>
<path d="M645.578 463.136V446.866H643.542V463.136H645.578Z" fill="#010A3D"/>
<path d="M649.806 463.136V446.866H647.77V463.136H649.806Z" fill="#010A3D"/>
<path d="M654.034 463.136V446.866H651.998V463.136H654.034Z" fill="#010A3D"/>
<path d="M658.261 463.136V446.866H656.226V463.136H658.261Z" fill="#010A3D"/>
<path d="M662.489 463.136V446.866H660.454V463.136H662.489Z" fill="#010A3D"/>
<path d="M666.717 463.136V446.866H664.682V463.136H666.717Z" fill="#010A3D"/>
<path d="M670.945 463.136V446.866H668.91V463.136H670.945Z" fill="#010A3D"/>
<path d="M675.173 463.136V446.866H673.137V463.136H675.173Z" fill="#010A3D"/>
<path d="M679.401 463.136V446.866H677.365V463.136H679.401Z" fill="#010A3D"/>
<path d="M692.425 458.082C694.218 458.082 695.671 456.702 695.671 455.001C695.671 453.299 694.218 451.92 692.425 451.92C690.633 451.92 689.18 453.299 689.18 455.001C689.18 456.702 690.633 458.082 692.425 458.082Z" fill="#F2E416"/>
<path d="M707.842 458.082C709.634 458.082 711.087 456.702 711.087 455.001C711.087 453.299 709.634 451.92 707.842 451.92C706.049 451.92 704.596 453.299 704.596 455.001C704.596 456.702 706.049 458.082 707.842 458.082Z" fill="#ACE5F2"/>
<path d="M723.258 458.082C725.05 458.082 726.504 456.702 726.504 455.001C726.504 453.299 725.05 451.92 723.258 451.92C721.466 451.92 720.012 453.299 720.012 455.001C720.012 456.702 721.466 458.082 723.258 458.082Z" fill="#ACE5F2"/>
<path d="M738.674 458.082C740.467 458.082 741.92 456.702 741.92 455.001C741.92 453.299 740.467 451.92 738.674 451.92C736.882 451.92 735.429 453.299 735.429 455.001C735.429 456.702 736.882 458.082 738.674 458.082Z" fill="#ACE5F2"/>
<path d="M754.091 458.082C755.883 458.082 757.336 456.702 757.336 455.001C757.336 453.299 755.883 451.92 754.091 451.92C752.298 451.92 750.845 453.299 750.845 455.001C750.845 456.702 752.298 458.082 754.091 458.082Z" fill="#0597F2"/>
<path d="M754.381 458.082C756.173 458.082 757.626 456.702 757.626 455.001C757.626 453.299 756.173 451.92 754.381 451.92C752.588 451.92 751.135 453.299 751.135 455.001C751.135 456.702 752.588 458.082 754.381 458.082Z" fill="#0597F2"/>
<path d="M769.521 437.405H622.402V441.975H769.521V437.405Z" fill="#010A3D"/>
<path d="M774.671 411.355H617.251C613.662 411.355 610.752 414.117 610.752 417.524V431.235C610.752 434.643 613.662 437.405 617.251 437.405H774.671C778.261 437.405 781.17 434.643 781.17 431.235V417.524C781.17 414.117 778.261 411.355 774.671 411.355Z" fill="#1E5CD9"/>
<path d="M624.438 432.515V416.245H622.402V432.515H624.438Z" fill="#010A3D"/>
<path d="M628.666 432.515V416.245H626.63V432.515H628.666Z" fill="#010A3D"/>
<path d="M632.894 432.515V416.245H630.858V432.515H632.894Z" fill="#010A3D"/>
<path d="M637.122 432.515V416.245H635.086V432.515H637.122Z" fill="#010A3D"/>
<path d="M641.35 432.515V416.245H639.314V432.515H641.35Z" fill="#010A3D"/>
<path d="M645.578 432.515V416.245H643.542V432.515H645.578Z" fill="#010A3D"/>
<path d="M649.806 432.515V416.245H647.77V432.515H649.806Z" fill="#010A3D"/>
<path d="M654.034 432.515V416.245H651.998V432.515H654.034Z" fill="#010A3D"/>
<path d="M658.261 432.515V416.245H656.226V432.515H658.261Z" fill="#010A3D"/>
<path d="M662.489 432.515V416.245H660.454V432.515H662.489Z" fill="#010A3D"/>
<path d="M666.717 432.515V416.245H664.682V432.515H666.717Z" fill="#010A3D"/>
<path d="M670.945 432.515V416.245H668.91V432.515H670.945Z" fill="#010A3D"/>
<path d="M675.173 432.515V416.245H673.137V432.515H675.173Z" fill="#010A3D"/>
<path d="M679.401 432.515V416.245H677.365V432.515H679.401Z" fill="#010A3D"/>
<path d="M692.425 427.461C694.218 427.461 695.671 426.082 695.671 424.38C695.671 422.678 694.218 421.299 692.425 421.299C690.633 421.299 689.18 422.678 689.18 424.38C689.18 426.082 690.633 427.461 692.425 427.461Z" fill="#F2E416"/>
<path d="M707.842 427.461C709.634 427.461 711.087 426.082 711.087 424.38C711.087 422.678 709.634 421.299 707.842 421.299C706.049 421.299 704.596 422.678 704.596 424.38C704.596 426.082 706.049 427.461 707.842 427.461Z" fill="#ACE5F2"/>
<path d="M723.258 427.461C725.05 427.461 726.504 426.082 726.504 424.38C726.504 422.678 725.05 421.299 723.258 421.299C721.466 421.299 720.012 422.678 720.012 424.38C720.012 426.082 721.466 427.461 723.258 427.461Z" fill="#ACE5F2"/>
<path d="M738.674 427.461C740.467 427.461 741.92 426.082 741.92 424.38C741.92 422.678 740.467 421.299 738.674 421.299C736.882 421.299 735.429 422.678 735.429 424.38C735.429 426.082 736.882 427.461 738.674 427.461Z" fill="#ACE5F2"/>
<path d="M754.091 427.461C755.883 427.461 757.336 426.082 757.336 424.38C757.336 422.678 755.883 421.299 754.091 421.299C752.298 421.299 750.845 422.678 750.845 424.38C750.845 426.082 752.298 427.461 754.091 427.461Z" fill="#0597F2"/>
<path d="M754.381 427.461C756.173 427.461 757.626 426.082 757.626 424.38C757.626 422.678 756.173 421.299 754.381 421.299C752.588 421.299 751.135 422.678 751.135 424.38C751.135 426.082 752.588 427.461 754.381 427.461Z" fill="#0597F2"/>
<path d="M769.521 406.784H622.402V411.355H769.521V406.784Z" fill="#010A3D"/>
<path d="M774.671 380.734H617.251C613.662 380.734 610.752 383.496 610.752 386.904V400.615C610.752 404.022 613.662 406.784 617.251 406.784H774.671C778.261 406.784 781.17 404.022 781.17 400.615V386.904C781.17 383.496 778.261 380.734 774.671 380.734Z" fill="#1E5CD9"/>
<path d="M624.438 401.894V385.624H622.402V401.894H624.438Z" fill="#010A3D"/>
<path d="M628.666 401.894V385.624H626.63V401.894H628.666Z" fill="#010A3D"/>
<path d="M632.894 401.894V385.624H630.858V401.894H632.894Z" fill="#010A3D"/>
<path d="M637.122 401.894V385.624H635.086V401.894H637.122Z" fill="#010A3D"/>
<path d="M641.35 401.894V385.624H639.314V401.894H641.35Z" fill="#010A3D"/>
<path d="M645.578 401.894V385.624H643.542V401.894H645.578Z" fill="#010A3D"/>
<path d="M649.806 401.894V385.624H647.77V401.894H649.806Z" fill="#010A3D"/>
<path d="M654.034 401.894V385.624H651.998V401.894H654.034Z" fill="#010A3D"/>
<path d="M658.261 401.894V385.624H656.226V401.894H658.261Z" fill="#010A3D"/>
<path d="M662.489 401.894V385.624H660.454V401.894H662.489Z" fill="#010A3D"/>
<path d="M666.717 401.894V385.624H664.682V401.894H666.717Z" fill="#010A3D"/>
<path d="M670.945 401.894V385.624H668.91V401.894H670.945Z" fill="#010A3D"/>
<path d="M675.173 401.894V385.624H673.137V401.894H675.173Z" fill="#010A3D"/>
<path d="M679.401 401.894V385.624H677.365V401.894H679.401Z" fill="#010A3D"/>
<path d="M692.425 396.84C694.218 396.84 695.671 395.461 695.671 393.759C695.671 392.057 694.218 390.678 692.425 390.678C690.633 390.678 689.18 392.057 689.18 393.759C689.18 395.461 690.633 396.84 692.425 396.84Z" fill="#F2E416"/>
<path d="M707.842 396.84C709.634 396.84 711.087 395.461 711.087 393.759C711.087 392.057 709.634 390.678 707.842 390.678C706.049 390.678 704.596 392.057 704.596 393.759C704.596 395.461 706.049 396.84 707.842 396.84Z" fill="#ACE5F2"/>
<path d="M723.258 396.84C725.05 396.84 726.504 395.461 726.504 393.759C726.504 392.057 725.05 390.678 723.258 390.678C721.466 390.678 720.012 392.057 720.012 393.759C720.012 395.461 721.466 396.84 723.258 396.84Z" fill="#ACE5F2"/>
<path d="M738.674 396.84C740.467 396.84 741.92 395.461 741.92 393.759C741.92 392.057 740.467 390.678 738.674 390.678C736.882 390.678 735.429 392.057 735.429 393.759C735.429 395.461 736.882 396.84 738.674 396.84Z" fill="#ACE5F2"/>
<path d="M754.091 396.84C755.883 396.84 757.336 395.461 757.336 393.759C757.336 392.057 755.883 390.678 754.091 390.678C752.298 390.678 750.845 392.057 750.845 393.759C750.845 395.461 752.298 396.84 754.091 396.84Z" fill="#0597F2"/>
<path d="M754.381 396.84C756.173 396.84 757.626 395.461 757.626 393.759C757.626 392.057 756.173 390.678 754.381 390.678C752.588 390.678 751.135 392.057 751.135 393.759C751.135 395.461 752.588 396.84 754.381 396.84Z" fill="#0597F2"/>
<path d="M769.521 376.164H622.402V380.734H769.521V376.164Z" fill="#010A3D"/>
<path d="M774.671 350.113H617.251C613.662 350.113 610.752 352.875 610.752 356.283V369.994C610.752 373.401 613.662 376.164 617.251 376.164H774.671C778.261 376.164 781.17 373.401 781.17 369.994V356.283C781.17 352.875 778.261 350.113 774.671 350.113Z" fill="#1E5CD9"/>
<path d="M624.438 371.273V355.003H622.402V371.273H624.438Z" fill="#010A3D"/>
<path d="M628.666 371.274V355.003H626.63V371.274H628.666Z" fill="#010A3D"/>
<path d="M632.894 371.273V355.003H630.858V371.273H632.894Z" fill="#010A3D"/>
<path d="M637.122 371.274V355.003H635.086V371.274H637.122Z" fill="#010A3D"/>
<path d="M641.35 371.273V355.003H639.314V371.273H641.35Z" fill="#010A3D"/>
<path d="M645.578 371.274V355.003H643.542V371.274H645.578Z" fill="#010A3D"/>
<path d="M649.806 371.274V355.003H647.77V371.274H649.806Z" fill="#010A3D"/>
<path d="M654.034 371.274V355.003H651.998V371.274H654.034Z" fill="#010A3D"/>
<path d="M658.261 371.274V355.003H656.226V371.274H658.261Z" fill="#010A3D"/>
<path d="M662.489 371.273V355.003H660.454V371.273H662.489Z" fill="#010A3D"/>
<path d="M666.717 371.274V355.003H664.682V371.274H666.717Z" fill="#010A3D"/>
<path d="M670.945 371.273V355.003H668.91V371.273H670.945Z" fill="#010A3D"/>
<path d="M675.173 371.274V355.003H673.137V371.274H675.173Z" fill="#010A3D"/>
<path d="M679.401 371.273V355.003H677.365V371.273H679.401Z" fill="#010A3D"/>
<path d="M692.425 366.219C694.218 366.219 695.671 364.84 695.671 363.138C695.671 361.437 694.218 360.057 692.425 360.057C690.633 360.057 689.18 361.437 689.18 363.138C689.18 364.84 690.633 366.219 692.425 366.219Z" fill="#F2E416"/>
<path d="M707.842 366.219C709.634 366.219 711.087 364.84 711.087 363.138C711.087 361.437 709.634 360.057 707.842 360.057C706.049 360.057 704.596 361.437 704.596 363.138C704.596 364.84 706.049 366.219 707.842 366.219Z" fill="#ACE5F2"/>
<path d="M723.258 366.219C725.05 366.219 726.504 364.84 726.504 363.138C726.504 361.437 725.05 360.057 723.258 360.057C721.466 360.057 720.012 361.437 720.012 363.138C720.012 364.84 721.466 366.219 723.258 366.219Z" fill="#ACE5F2"/>
<path d="M738.674 366.219C740.467 366.219 741.92 364.84 741.92 363.138C741.92 361.437 740.467 360.057 738.674 360.057C736.882 360.057 735.429 361.437 735.429 363.138C735.429 364.84 736.882 366.219 738.674 366.219Z" fill="#ACE5F2"/>
<path d="M754.091 366.219C755.883 366.219 757.336 364.84 757.336 363.138C757.336 361.437 755.883 360.057 754.091 360.057C752.298 360.057 750.845 361.437 750.845 363.138C750.845 364.84 752.298 366.219 754.091 366.219Z" fill="#0597F2"/>
<path d="M754.381 366.219C756.173 366.219 757.626 364.84 757.626 363.138C757.626 361.437 756.173 360.057 754.381 360.057C752.588 360.057 751.135 361.437 751.135 363.138C751.135 364.84 752.588 366.219 754.381 366.219Z" fill="#0597F2"/>
<path d="M769.521 345.543H622.402V350.113H769.521V345.543Z" fill="#010A3D"/>
<path d="M774.671 319.492H617.251C613.662 319.492 610.752 322.255 610.752 325.662V339.373C610.752 342.78 613.662 345.543 617.251 345.543H774.671C778.261 345.543 781.17 342.78 781.17 339.373V325.662C781.17 322.255 778.261 319.492 774.671 319.492Z" fill="#1E5CD9"/>
<path d="M624.438 340.653V324.382H622.402V340.653H624.438Z" fill="#010A3D"/>
<path d="M628.666 340.653V324.383H626.63V340.653H628.666Z" fill="#010A3D"/>
<path d="M632.894 340.653V324.382H630.858V340.653H632.894Z" fill="#010A3D"/>
<path d="M637.122 340.653V324.382H635.086V340.653H637.122Z" fill="#010A3D"/>
<path d="M641.35 340.653V324.382H639.314V340.653H641.35Z" fill="#010A3D"/>
<path d="M645.578 340.653V324.382H643.542V340.653H645.578Z" fill="#010A3D"/>
<path d="M649.806 340.653V324.383H647.77V340.653H649.806Z" fill="#010A3D"/>
<path d="M654.033 340.653V324.382H651.998V340.653H654.033Z" fill="#010A3D"/>
<path d="M658.261 340.653V324.382H656.226V340.653H658.261Z" fill="#010A3D"/>
<path d="M662.489 340.653V324.382H660.454V340.653H662.489Z" fill="#010A3D"/>
<path d="M666.717 340.653V324.382H664.682V340.653H666.717Z" fill="#010A3D"/>
<path d="M670.945 340.653V324.382H668.91V340.653H670.945Z" fill="#010A3D"/>
<path d="M675.173 340.653V324.382H673.137V340.653H675.173Z" fill="#010A3D"/>
<path d="M679.401 340.653V324.382H677.365V340.653H679.401Z" fill="#010A3D"/>
<path d="M692.425 335.599C694.218 335.599 695.671 334.219 695.671 332.517C695.671 330.816 694.218 329.436 692.425 329.436C690.633 329.436 689.18 330.816 689.18 332.517C689.18 334.219 690.633 335.599 692.425 335.599Z" fill="#F2E416"/>
<path d="M707.842 335.599C709.634 335.599 711.087 334.219 711.087 332.517C711.087 330.816 709.634 329.436 707.842 329.436C706.049 329.436 704.596 330.816 704.596 332.517C704.596 334.219 706.049 335.599 707.842 335.599Z" fill="#ACE5F2"/>
<path d="M723.258 335.599C725.05 335.599 726.504 334.219 726.504 332.517C726.504 330.816 725.05 329.436 723.258 329.436C721.466 329.436 720.012 330.816 720.012 332.517C720.012 334.219 721.466 335.599 723.258 335.599Z" fill="#ACE5F2"/>
<path d="M738.674 335.599C740.467 335.599 741.92 334.219 741.92 332.517C741.92 330.816 740.467 329.436 738.674 329.436C736.882 329.436 735.429 330.816 735.429 332.517C735.429 334.219 736.882 335.599 738.674 335.599Z" fill="#ACE5F2"/>
<path d="M754.091 335.599C755.883 335.599 757.336 334.219 757.336 332.517C757.336 330.816 755.883 329.436 754.091 329.436C752.298 329.436 750.845 330.816 750.845 332.517C750.845 334.219 752.298 335.599 754.091 335.599Z" fill="#0597F2"/>
<path d="M754.381 335.599C756.173 335.599 757.626 334.219 757.626 332.517C757.626 330.816 756.173 329.436 754.381 329.436C752.588 329.436 751.135 330.816 751.135 332.517C751.135 334.219 752.588 335.599 754.381 335.599Z" fill="#0597F2"/>
<path d="M769.521 314.922H622.402V319.492H769.521V314.922Z" fill="#010A3D"/>
<path d="M774.671 288.871H617.251C613.662 288.871 610.752 291.634 610.752 295.041V308.752C610.752 312.16 613.662 314.922 617.251 314.922H774.671C778.261 314.922 781.17 312.16 781.17 308.752V295.041C781.17 291.634 778.261 288.871 774.671 288.871Z" fill="#1E5CD9"/>
<path d="M624.438 310.032V293.762H622.402V310.032H624.438Z" fill="#010A3D"/>
<path d="M628.666 310.032V293.762H626.63V310.032H628.666Z" fill="#010A3D"/>
<path d="M632.894 310.032V293.762H630.858V310.032H632.894Z" fill="#010A3D"/>
<path d="M637.122 310.032V293.762H635.086V310.032H637.122Z" fill="#010A3D"/>
<path d="M641.35 310.032V293.762H639.314V310.032H641.35Z" fill="#010A3D"/>
<path d="M645.578 310.032V293.762H643.542V310.032H645.578Z" fill="#010A3D"/>
<path d="M649.806 310.032V293.762H647.77V310.032H649.806Z" fill="#010A3D"/>
<path d="M654.034 310.032V293.762H651.998V310.032H654.034Z" fill="#010A3D"/>
<path d="M658.261 310.032V293.762H656.226V310.032H658.261Z" fill="#010A3D"/>
<path d="M662.489 310.032V293.762H660.454V310.032H662.489Z" fill="#010A3D"/>
<path d="M666.717 310.032V293.762H664.682V310.032H666.717Z" fill="#010A3D"/>
<path d="M670.945 310.032V293.762H668.91V310.032H670.945Z" fill="#010A3D"/>
<path d="M675.173 310.032V293.762H673.137V310.032H675.173Z" fill="#010A3D"/>
<path d="M679.401 310.032V293.762H677.365V310.032H679.401Z" fill="#010A3D"/>
<path d="M692.425 304.978C694.218 304.978 695.671 303.598 695.671 301.897C695.671 300.195 694.218 298.815 692.425 298.815C690.633 298.815 689.18 300.195 689.18 301.897C689.18 303.598 690.633 304.978 692.425 304.978Z" fill="#F2E416"/>
<path d="M707.842 304.978C709.634 304.978 711.087 303.598 711.087 301.897C711.087 300.195 709.634 298.815 707.842 298.815C706.049 298.815 704.596 300.195 704.596 301.897C704.596 303.598 706.049 304.978 707.842 304.978Z" fill="#ACE5F2"/>
<path d="M723.258 304.978C725.05 304.978 726.504 303.598 726.504 301.897C726.504 300.195 725.05 298.815 723.258 298.815C721.466 298.815 720.012 300.195 720.012 301.897C720.012 303.598 721.466 304.978 723.258 304.978Z" fill="#ACE5F2"/>
<path d="M738.674 304.978C740.467 304.978 741.92 303.598 741.92 301.897C741.92 300.195 740.467 298.815 738.674 298.815C736.882 298.815 735.429 300.195 735.429 301.897C735.429 303.598 736.882 304.978 738.674 304.978Z" fill="#ACE5F2"/>
<path d="M754.091 304.978C755.883 304.978 757.336 303.598 757.336 301.897C757.336 300.195 755.883 298.815 754.091 298.815C752.298 298.815 750.845 300.195 750.845 301.897C750.845 303.598 752.298 304.978 754.091 304.978Z" fill="#0597F2"/>
<path d="M754.381 304.978C756.173 304.978 757.626 303.598 757.626 301.897C757.626 300.195 756.173 298.815 754.381 298.815C752.588 298.815 751.135 300.195 751.135 301.897C751.135 303.598 752.588 304.978 754.381 304.978Z" fill="#0597F2"/>
<path d="M769.521 284.301H622.402V288.871H769.521V284.301Z" fill="#010A3D"/>
<path d="M774.671 258.251H617.251C613.662 258.251 610.752 261.013 610.752 264.42V278.131C610.752 281.539 613.662 284.301 617.251 284.301H774.671C778.261 284.301 781.17 281.539 781.17 278.131V264.42C781.17 261.013 778.261 258.251 774.671 258.251Z" fill="#1E5CD9"/>
<path d="M624.438 279.411V263.141H622.402V279.411H624.438Z" fill="#010A3D"/>
<path d="M628.666 279.411V263.141H626.63V279.411H628.666Z" fill="#010A3D"/>
<path d="M632.894 279.411V263.141H630.858V279.411H632.894Z" fill="#010A3D"/>
<path d="M637.122 279.411V263.141H635.086V279.411H637.122Z" fill="#010A3D"/>
<path d="M641.35 279.411V263.141H639.314V279.411H641.35Z" fill="#010A3D"/>
<path d="M645.578 279.411V263.141H643.542V279.411H645.578Z" fill="#010A3D"/>
<path d="M649.806 279.411V263.141H647.77V279.411H649.806Z" fill="#010A3D"/>
<path d="M654.034 279.411V263.141H651.998V279.411H654.034Z" fill="#010A3D"/>
<path d="M658.261 279.411V263.141H656.226V279.411H658.261Z" fill="#010A3D"/>
<path d="M662.489 279.411V263.141H660.454V279.411H662.489Z" fill="#010A3D"/>
<path d="M666.717 279.411V263.141H664.682V279.411H666.717Z" fill="#010A3D"/>
<path d="M670.945 279.411V263.141H668.91V279.411H670.945Z" fill="#010A3D"/>
<path d="M675.173 279.411V263.141H673.137V279.411H675.173Z" fill="#010A3D"/>
<path d="M679.401 279.411V263.141H677.365V279.411H679.401Z" fill="#010A3D"/>
<path d="M692.425 274.357C694.218 274.357 695.671 272.977 695.671 271.276C695.671 269.574 694.218 268.195 692.425 268.195C690.633 268.195 689.18 269.574 689.18 271.276C689.18 272.977 690.633 274.357 692.425 274.357Z" fill="#F2E416"/>
<path d="M707.842 274.357C709.634 274.357 711.087 272.977 711.087 271.276C711.087 269.574 709.634 268.195 707.842 268.195C706.049 268.195 704.596 269.574 704.596 271.276C704.596 272.977 706.049 274.357 707.842 274.357Z" fill="#ACE5F2"/>
<path d="M723.258 274.357C725.05 274.357 726.504 272.977 726.504 271.276C726.504 269.574 725.05 268.195 723.258 268.195C721.466 268.195 720.012 269.574 720.012 271.276C720.012 272.977 721.466 274.357 723.258 274.357Z" fill="#ACE5F2"/>
<path d="M738.674 274.357C740.467 274.357 741.92 272.977 741.92 271.276C741.92 269.574 740.467 268.195 738.674 268.195C736.882 268.195 735.429 269.574 735.429 271.276C735.429 272.977 736.882 274.357 738.674 274.357Z" fill="#ACE5F2"/>
<path d="M754.091 274.357C755.883 274.357 757.336 272.977 757.336 271.276C757.336 269.574 755.883 268.195 754.091 268.195C752.298 268.195 750.845 269.574 750.845 271.276C750.845 272.977 752.298 274.357 754.091 274.357Z" fill="#0597F2"/>
<path d="M754.381 274.357C756.173 274.357 757.626 272.977 757.626 271.276C757.626 269.574 756.173 268.195 754.381 268.195C752.588 268.195 751.135 269.574 751.135 271.276C751.135 272.977 752.588 274.357 754.381 274.357Z" fill="#0597F2"/>
<path d="M769.521 253.68H622.402V258.251H769.521V253.68Z" fill="#010A3D"/>
<path d="M774.671 227.63H617.251C613.662 227.63 610.752 230.392 610.752 233.8V247.51C610.752 250.918 613.662 253.68 617.251 253.68H774.671C778.261 253.68 781.17 250.918 781.17 247.51V233.8C781.17 230.392 778.261 227.63 774.671 227.63Z" fill="#1E5CD9"/>
<path d="M624.438 248.79V232.52H622.402V248.79H624.438Z" fill="#010A3D"/>
<path d="M628.666 248.79V232.52H626.63V248.79H628.666Z" fill="#010A3D"/>
<path d="M632.894 248.79V232.52H630.858V248.79H632.894Z" fill="#010A3D"/>
<path d="M637.122 248.79V232.52H635.086V248.79H637.122Z" fill="#010A3D"/>
<path d="M641.35 248.79V232.52H639.314V248.79H641.35Z" fill="#010A3D"/>
<path d="M645.578 248.79V232.52H643.542V248.79H645.578Z" fill="#010A3D"/>
<path d="M649.806 248.79V232.52H647.77V248.79H649.806Z" fill="#010A3D"/>
<path d="M654.034 248.79V232.52H651.998V248.79H654.034Z" fill="#010A3D"/>
<path d="M658.261 248.79V232.52H656.226V248.79H658.261Z" fill="#010A3D"/>
<path d="M662.489 248.79V232.52H660.454V248.79H662.489Z" fill="#010A3D"/>
<path d="M666.717 248.79V232.52H664.682V248.79H666.717Z" fill="#010A3D"/>
<path d="M670.945 248.79V232.52H668.91V248.79H670.945Z" fill="#010A3D"/>
<path d="M675.173 248.79V232.52H673.137V248.79H675.173Z" fill="#010A3D"/>
<path d="M679.401 248.79V232.52H677.365V248.79H679.401Z" fill="#010A3D"/>
<path d="M692.425 243.736C694.218 243.736 695.671 242.357 695.671 240.655C695.671 238.953 694.218 237.574 692.425 237.574C690.633 237.574 689.18 238.953 689.18 240.655C689.18 242.357 690.633 243.736 692.425 243.736Z" fill="#F2E416"/>
<path d="M707.842 243.736C709.634 243.736 711.087 242.357 711.087 240.655C711.087 238.953 709.634 237.574 707.842 237.574C706.049 237.574 704.596 238.953 704.596 240.655C704.596 242.357 706.049 243.736 707.842 243.736Z" fill="#ACE5F2"/>
<path d="M723.258 243.736C725.05 243.736 726.504 242.357 726.504 240.655C726.504 238.953 725.05 237.574 723.258 237.574C721.466 237.574 720.012 238.953 720.012 240.655C720.012 242.357 721.466 243.736 723.258 243.736Z" fill="#ACE5F2"/>
<path d="M738.674 243.736C740.467 243.736 741.92 242.357 741.92 240.655C741.92 238.953 740.467 237.574 738.674 237.574C736.882 237.574 735.429 238.953 735.429 240.655C735.429 242.357 736.882 243.736 738.674 243.736Z" fill="#ACE5F2"/>
<path d="M754.091 243.736C755.883 243.736 757.336 242.357 757.336 240.655C757.336 238.953 755.883 237.574 754.091 237.574C752.298 237.574 750.845 238.953 750.845 240.655C750.845 242.357 752.298 243.736 754.091 243.736Z" fill="#0597F2"/>
<path d="M754.381 243.736C756.173 243.736 757.626 242.357 757.626 240.655C757.626 238.953 756.173 237.574 754.381 237.574C752.588 237.574 751.135 238.953 751.135 240.655C751.135 242.357 752.588 243.736 754.381 243.736Z" fill="#0597F2"/>
<path d="M769.521 223.059H622.402V227.63H769.521V223.059Z" fill="#010A3D"/>
<path d="M774.671 197.009H617.251C613.662 197.009 610.752 199.771 610.752 203.179V216.889C610.752 220.297 613.662 223.059 617.251 223.059H774.671C778.261 223.059 781.17 220.297 781.17 216.889V203.179C781.17 199.771 778.261 197.009 774.671 197.009Z" fill="#1E5CD9"/>
<path d="M624.438 218.169V201.899H622.402V218.169H624.438Z" fill="#010A3D"/>
<path d="M628.666 218.169V201.899H626.63V218.169H628.666Z" fill="#010A3D"/>
<path d="M632.894 218.169V201.899H630.858V218.169H632.894Z" fill="#010A3D"/>
<path d="M637.122 218.169V201.899H635.086V218.169H637.122Z" fill="#010A3D"/>
<path d="M641.35 218.169V201.899H639.314V218.169H641.35Z" fill="#010A3D"/>
<path d="M645.578 218.169V201.899H643.542V218.169H645.578Z" fill="#010A3D"/>
<path d="M649.806 218.169V201.899H647.77V218.169H649.806Z" fill="#010A3D"/>
<path d="M654.034 218.169V201.899H651.998V218.169H654.034Z" fill="#010A3D"/>
<path d="M658.261 218.169V201.899H656.226V218.169H658.261Z" fill="#010A3D"/>
<path d="M662.489 218.169V201.899H660.454V218.169H662.489Z" fill="#010A3D"/>
<path d="M666.717 218.169V201.899H664.682V218.169H666.717Z" fill="#010A3D"/>
<path d="M670.945 218.169V201.899H668.91V218.169H670.945Z" fill="#010A3D"/>
<path d="M675.173 218.169V201.899H673.137V218.169H675.173Z" fill="#010A3D"/>
<path d="M679.401 218.169V201.899H677.365V218.169H679.401Z" fill="#010A3D"/>
<path d="M692.425 213.115C694.218 213.115 695.671 211.736 695.671 210.034C695.671 208.332 694.218 206.953 692.425 206.953C690.633 206.953 689.18 208.332 689.18 210.034C689.18 211.736 690.633 213.115 692.425 213.115Z" fill="#F2E416"/>
<path d="M707.842 213.115C709.634 213.115 711.087 211.736 711.087 210.034C711.087 208.332 709.634 206.953 707.842 206.953C706.049 206.953 704.596 208.332 704.596 210.034C704.596 211.736 706.049 213.115 707.842 213.115Z" fill="#ACE5F2"/>
<path d="M723.258 213.115C725.05 213.115 726.504 211.736 726.504 210.034C726.504 208.332 725.05 206.953 723.258 206.953C721.466 206.953 720.012 208.332 720.012 210.034C720.012 211.736 721.466 213.115 723.258 213.115Z" fill="#ACE5F2"/>
<path d="M738.674 213.115C740.467 213.115 741.92 211.736 741.92 210.034C741.92 208.332 740.467 206.953 738.674 206.953C736.882 206.953 735.429 208.332 735.429 210.034C735.429 211.736 736.882 213.115 738.674 213.115Z" fill="#ACE5F2"/>
<path d="M754.091 213.115C755.883 213.115 757.336 211.736 757.336 210.034C757.336 208.332 755.883 206.953 754.091 206.953C752.298 206.953 750.845 208.332 750.845 210.034C750.845 211.736 752.298 213.115 754.091 213.115Z" fill="#0597F2"/>
<path d="M754.381 213.115C756.173 213.115 757.626 211.736 757.626 210.034C757.626 208.332 756.173 206.953 754.381 206.953C752.588 206.953 751.135 208.332 751.135 210.034C751.135 211.736 752.588 213.115 754.381 213.115Z" fill="#0597F2"/>
<path d="M275.389 157.316H58.2568V621.161H275.389V157.316Z" fill="#0597F2"/>
<path d="M263.618 167.52H70.028V610.364H263.618V167.52Z" fill="#010A3D"/>
<path d="M314.579 168.586L281.818 214.547C281.381 215.175 280.733 215.645 279.981 215.881C279.228 216.117 278.413 216.105 277.669 215.847L206 185.29C204.635 184.709 204.28 183.183 205.207 181.883L245.398 125.496C245.835 124.869 246.482 124.399 247.235 124.163C247.988 123.927 248.803 123.939 249.547 124.196L269.775 132.821C274.455 134.816 275.673 140.047 272.496 144.505C271.569 145.805 271.924 147.33 273.289 147.912L313.785 165.178C315.15 165.76 315.505 167.286 314.579 168.586Z" fill="#010A3D"/>
<path d="M303.696 168.262L281.783 214.704C281.486 215.335 280.936 215.828 280.256 216.074C279.576 216.32 278.82 216.3 278.156 216.017L205.496 185.12C204.831 184.837 204.312 184.316 204.053 183.67C203.793 183.024 203.815 182.307 204.113 181.676L230.995 124.699C231.293 124.069 231.842 123.576 232.522 123.33C233.203 123.083 233.958 123.104 234.622 123.386L255.13 132.107C257.409 133.076 259.188 134.864 260.078 137.079C260.967 139.293 260.893 141.753 259.873 143.915C259.575 144.546 259.554 145.263 259.813 145.909C260.073 146.555 260.592 147.077 261.256 147.359L302.312 164.818C302.977 165.1 303.496 165.622 303.755 166.268C304.015 166.914 303.993 167.631 303.696 168.262Z" fill="#F2E416"/>
<path d="M262.088 169.376H71.5578V312.201H262.088V169.376Z" fill="#ACE5F2"/>
<path d="M262.088 317.379H71.5578V460.204H262.088V317.379Z" fill="#ACE5F2"/>
<path d="M262.088 465.382H71.5578V608.207H262.088V465.382Z" fill="#ACE5F2"/>
<path d="M201.741 181.729H135.846V190.121H201.741V181.729Z" fill="#010A3D"/>
<path d="M201.741 329.232H135.846V337.624H201.741V329.232Z" fill="#010A3D"/>
<path d="M201.741 476.735H135.846V485.127H201.741V476.735Z" fill="#010A3D"/>
<path d="M167.487 177.724C169.152 177.724 170.501 176.443 170.501 174.863C170.501 173.283 169.152 172.002 167.487 172.002C165.823 172.002 164.474 173.283 164.474 174.863C164.474 176.443 165.823 177.724 167.487 177.724Z" fill="#ACE5F2"/>
<path d="M167.487 177.2C168.847 177.2 169.948 176.153 169.948 174.863C169.948 173.573 168.847 172.527 167.487 172.527C166.128 172.527 165.026 173.573 165.026 174.863C165.026 176.153 166.128 177.2 167.487 177.2Z" fill="#0597F2"/>
<path d="M167.806 173.774H167.194V176.119H167.806V173.774Z" fill="#010A3D"/>
<path d="M574.849 293.315H555.864C550.455 293.315 546.07 297.477 546.07 302.612V302.612C546.07 307.748 550.455 311.91 555.864 311.91H574.849C580.258 311.91 584.643 307.748 584.643 302.612V302.612C584.643 297.477 580.258 293.315 574.849 293.315Z" fill="#0597F2"/>
<path d="M606.263 309.588C604.615 312.644 601.931 315.085 598.644 316.518C595.357 317.951 591.658 318.293 588.142 317.489C584.625 316.685 581.496 314.781 579.257 312.085C577.018 309.388 575.8 306.054 575.798 302.621C575.796 299.187 577.01 295.852 579.246 293.153C581.482 290.454 584.609 288.547 588.125 287.739C591.64 286.931 595.339 287.269 598.628 288.699C601.917 290.129 604.603 292.567 606.255 295.622C603.332 293.208 599.569 291.91 595.695 291.98C587.96 291.98 584.403 296.736 584.403 302.612C584.403 308.481 587.96 313.244 595.695 313.244C599.574 313.313 603.341 312.009 606.263 309.588Z" fill="#010A3D"/>
<path d="M231.153 389.193H334.717V481.575H158.729V457.95C158.729 448.921 160.602 439.98 164.242 431.638C167.881 423.296 173.216 415.716 179.941 409.331C186.666 402.947 194.65 397.882 203.437 394.427C212.224 390.971 221.642 389.193 231.153 389.193Z" fill="#1E5CD9"/>
<path d="M564.665 554.3V550.05C564.665 512.232 532.373 481.575 492.538 481.575H130.384C90.5492 481.575 58.2567 512.232 58.2567 550.05V554.3C58.2567 592.118 90.5492 622.775 130.384 622.775H492.538C532.373 622.775 564.665 592.118 564.665 554.3Z" fill="#010A3D"/>
<path d="M492.538 491.539H130.384C96.346 491.539 68.7524 517.735 68.7524 550.05V554.301C68.7524 586.615 96.346 612.811 130.384 612.811H492.538C526.577 612.811 554.17 586.615 554.17 554.301V550.05C554.17 517.735 526.577 491.539 492.538 491.539Z" fill="#1E5CD9"/>
<path d="M136.421 607.239C168.454 607.239 194.422 582.586 194.422 552.175C194.422 521.764 168.454 497.111 136.421 497.111C104.388 497.111 78.4194 521.764 78.4194 552.175C78.4194 582.586 104.388 607.239 136.421 607.239Z" fill="#0597F2"/>
<path d="M136.421 591.111C159.072 591.111 177.434 573.679 177.434 552.175C177.434 530.671 159.072 513.239 136.421 513.239C113.77 513.239 95.4076 530.671 95.4076 552.175C95.4076 573.679 113.77 591.111 136.421 591.111Z" fill="#010A3D"/>
<path d="M136.421 579.707C152.438 579.707 165.422 567.381 165.422 552.175C165.422 536.97 152.438 524.643 136.421 524.643C120.404 524.643 107.42 536.97 107.42 552.175C107.42 567.381 120.404 579.707 136.421 579.707Z" fill="#ACE5F2"/>
<path d="M311.461 607.239C343.495 607.239 369.463 582.586 369.463 552.175C369.463 521.764 343.495 497.111 311.461 497.111C279.428 497.111 253.46 521.764 253.46 552.175C253.46 582.586 279.428 607.239 311.461 607.239Z" fill="#0597F2"/>
<path d="M311.461 591.111C334.112 591.111 352.475 573.679 352.475 552.175C352.475 530.671 334.112 513.239 311.461 513.239C288.81 513.239 270.448 530.671 270.448 552.175C270.448 573.679 288.81 591.111 311.461 591.111Z" fill="#010A3D"/>
<path d="M311.461 579.707C327.478 579.707 340.462 567.381 340.462 552.175C340.462 536.97 327.478 524.643 311.461 524.643C295.445 524.643 282.46 536.97 282.46 552.175C282.46 567.381 295.445 579.707 311.461 579.707Z" fill="#ACE5F2"/>
<path d="M486.501 607.239C518.535 607.239 544.503 582.586 544.503 552.175C544.503 521.764 518.535 497.111 486.501 497.111C454.468 497.111 428.5 521.764 428.5 552.175C428.5 582.586 454.468 607.239 486.501 607.239Z" fill="#0597F2"/>
<path d="M486.501 591.111C509.152 591.111 527.515 573.679 527.515 552.175C527.515 530.671 509.152 513.239 486.501 513.239C463.85 513.239 445.488 530.671 445.488 552.175C445.488 573.679 463.85 591.111 486.501 591.111Z" fill="#010A3D"/>
<path d="M486.502 579.707C502.518 579.707 515.502 567.381 515.502 552.175C515.502 536.97 502.518 524.643 486.502 524.643C470.485 524.643 457.501 536.97 457.501 552.175C457.501 567.381 470.485 579.707 486.502 579.707Z" fill="#ACE5F2"/>
<path d="M418.764 224.184L334.206 439.647C332.526 443.928 329.953 447.842 326.642 451.156C323.331 454.469 319.348 457.115 314.934 458.932C310.52 460.75 305.765 461.703 300.954 461.735C296.143 461.766 291.374 460.875 286.934 459.115C282.494 457.355 278.475 454.762 275.115 451.492C271.756 448.222 269.127 444.341 267.385 440.083C265.644 435.825 264.825 431.277 264.98 426.712C265.134 422.146 266.257 417.658 268.282 413.514L370.228 204.944C373.091 199.086 378.233 194.507 384.574 192.17C390.916 189.832 397.965 189.916 404.242 192.404C410.52 194.893 415.539 199.592 418.246 205.517C420.954 211.442 421.139 218.132 418.764 224.184Z" fill="#0597F2"/>
<path d="M408.562 194.76L541.933 281.966C545.269 284.148 547.585 287.472 548.394 291.241C549.203 295.009 548.442 298.929 546.271 302.176C544.169 305.32 540.9 307.6 537.111 308.566C533.323 309.532 529.291 309.113 525.812 307.391L382.21 236.322C379.067 234.766 376.298 232.608 374.079 229.983C371.861 227.359 370.24 224.325 369.321 221.075C368.402 217.825 368.203 214.429 368.739 211.103C369.274 207.776 370.532 204.591 372.431 201.75C374.276 198.991 376.688 196.614 379.523 194.76C382.358 192.906 385.558 191.615 388.931 190.962C392.304 190.309 395.781 190.309 399.154 190.962C402.527 191.615 405.727 192.906 408.562 194.76Z" fill="#1E5CD9"/>
<path d="M301.675 453.531C317.431 453.531 330.203 441.406 330.203 426.448C330.203 411.491 317.431 399.365 301.675 399.365C285.92 399.365 273.148 411.491 273.148 426.448C273.148 441.406 285.92 453.531 301.675 453.531Z" fill="#ACE5F2"/>
<path d="M301.675 444.561C312.212 444.561 320.754 436.452 320.754 426.448C320.754 416.445 312.212 408.336 301.675 408.336C291.138 408.336 282.596 416.445 282.596 426.448C282.596 436.452 291.138 444.561 301.675 444.561Z" fill="#010A3D"/>
<path d="M394.223 232.601C404.76 232.601 413.302 224.492 413.302 214.489C413.302 204.485 404.76 196.376 394.223 196.376C383.686 196.376 375.144 204.485 375.144 214.489C375.144 224.492 383.686 232.601 394.223 232.601Z" fill="#ACE5F2"/>
<path d="M394.223 225.805C400.807 225.805 406.143 220.739 406.143 214.489C406.143 208.239 400.807 203.172 394.223 203.172C387.64 203.172 382.303 208.239 382.303 214.489C382.303 220.739 387.64 225.805 394.223 225.805Z" fill="#010A3D"/>
<path d="M556.229 316.827C564.499 316.827 571.203 310.463 571.203 302.612C571.203 294.762 564.499 288.397 556.229 288.397C547.96 288.397 541.256 294.762 541.256 302.612C541.256 310.463 547.96 316.827 556.229 316.827Z" fill="#ACE5F2"/>
<path d="M556.229 311.474C561.384 311.474 565.563 307.506 565.563 302.612C565.563 297.718 561.384 293.751 556.229 293.751C551.074 293.751 546.895 297.718 546.895 302.612C546.895 307.506 551.074 311.474 556.229 311.474Z" fill="#010A3D"/>
<path d="M649.362 273.053L643.168 306.552C643.089 307.007 642.851 307.424 642.492 307.735C642.133 308.046 641.675 308.233 641.19 308.266L593.04 308.221C592.823 308.217 592.609 308.166 592.416 308.071C592.222 307.976 592.054 307.841 591.925 307.675C591.795 307.509 591.707 307.318 591.667 307.114C591.628 306.911 591.638 306.702 591.697 306.504L599.297 265.406C599.375 264.951 599.613 264.534 599.972 264.223C600.331 263.912 600.79 263.725 601.274 263.692L614.864 263.705C618.008 263.708 620.07 266.344 619.469 269.593C619.41 269.791 619.4 270 619.44 270.203C619.479 270.406 619.567 270.598 619.697 270.764C619.827 270.93 619.995 271.065 620.188 271.16C620.381 271.254 620.595 271.306 620.812 271.31L648.02 271.335C648.237 271.339 648.451 271.391 648.644 271.485C648.837 271.58 649.005 271.715 649.135 271.881C649.265 272.047 649.352 272.239 649.392 272.442C649.431 272.645 649.421 272.854 649.362 273.053Z" fill="#010A3D"/>
<path d="M643.19 275.46V306.648C643.19 306.858 643.146 307.065 643.062 307.259C642.977 307.453 642.853 307.629 642.697 307.777C642.541 307.926 642.355 308.043 642.151 308.124C641.947 308.204 641.728 308.245 641.508 308.245H592.713C592.492 308.245 592.273 308.204 592.069 308.124C591.865 308.043 591.68 307.926 591.523 307.777C591.367 307.629 591.243 307.453 591.159 307.259C591.074 307.065 591.031 306.858 591.031 306.648V268.386C591.031 267.962 591.208 267.556 591.523 267.257C591.839 266.957 592.267 266.789 592.713 266.789H606.485C608.015 266.789 609.483 267.366 610.565 268.393C611.646 269.42 612.254 270.813 612.254 272.265C612.254 272.475 612.298 272.683 612.382 272.877C612.467 273.07 612.591 273.247 612.747 273.395C612.903 273.543 613.089 273.661 613.293 273.741C613.497 273.821 613.716 273.863 613.937 273.863H641.508C641.954 273.863 642.382 274.031 642.697 274.331C643.013 274.63 643.19 275.036 643.19 275.46Z" fill="#F2E416"/>
<path d="M789.609 621.161H15.1537V629H789.609V621.161Z" fill="#010A3D"/>
<path d="M542.48 211.823L543.467 200.77C543.493 200.526 543.613 200.3 543.805 200.136C543.996 199.972 544.245 199.88 544.503 199.88C544.761 199.88 545.01 199.972 545.202 200.136C545.393 200.3 545.513 200.526 545.539 200.77L546.526 211.823C546.547 212.088 546.51 212.353 546.418 212.603C546.326 212.853 546.18 213.083 545.99 213.277C545.8 213.471 545.57 213.626 545.314 213.732C545.058 213.838 544.782 213.893 544.503 213.893C544.224 213.893 543.948 213.838 543.692 213.732C543.436 213.626 543.206 213.471 543.016 213.277C542.826 213.083 542.681 212.853 542.588 212.603C542.496 212.353 542.459 212.088 542.48 211.823Z" fill="#B0B3B5"/>
<path d="M529.4 202.437L539.976 197.722C540.212 197.621 540.478 197.607 540.724 197.682C540.97 197.757 541.178 197.916 541.307 198.128C541.436 198.341 541.478 198.591 541.423 198.831C541.369 199.071 541.222 199.282 541.012 199.425L531.423 205.763C531.192 205.913 530.931 206.015 530.657 206.065C530.383 206.114 530.101 206.109 529.828 206.05C529.556 205.991 529.3 205.88 529.075 205.722C528.85 205.565 528.662 205.365 528.523 205.135C528.383 204.906 528.295 204.651 528.264 204.388C528.232 204.125 528.259 203.858 528.341 203.605C528.423 203.351 528.56 203.117 528.742 202.916C528.924 202.715 529.148 202.552 529.4 202.437Z" fill="#B0B3B5"/>
<path d="M531.423 186.989L541.012 193.327C541.222 193.47 541.369 193.682 541.423 193.922C541.478 194.162 541.436 194.412 541.307 194.625C541.178 194.837 540.97 194.996 540.724 195.071C540.478 195.146 540.212 195.132 539.976 195.031L529.4 190.316C529.148 190.201 528.924 190.038 528.742 189.837C528.56 189.636 528.424 189.402 528.341 189.148C528.259 188.895 528.233 188.628 528.264 188.365C528.295 188.101 528.383 187.847 528.523 187.617C528.662 187.388 528.851 187.188 529.075 187.031C529.3 186.873 529.556 186.762 529.829 186.703C530.101 186.644 530.383 186.639 530.657 186.688C530.932 186.738 531.192 186.84 531.423 186.989Z" fill="#B0B3B5"/>
<path d="M546.526 180.929L545.539 191.982C545.513 192.226 545.393 192.452 545.202 192.617C545.01 192.781 544.761 192.872 544.503 192.872C544.245 192.872 543.996 192.781 543.804 192.617C543.613 192.452 543.493 192.226 543.467 191.982L542.48 180.929C542.459 180.665 542.496 180.399 542.588 180.149C542.68 179.899 542.826 179.669 543.016 179.475C543.206 179.281 543.436 179.126 543.692 179.02C543.948 178.914 544.224 178.859 544.503 178.859C544.782 178.859 545.058 178.914 545.314 179.02C545.57 179.126 545.8 179.281 545.99 179.475C546.18 179.669 546.326 179.899 546.418 180.149C546.51 180.399 546.547 180.664 546.526 180.929Z" fill="#B0B3B5"/>
<path d="M559.606 190.316L549.03 195.031C548.795 195.132 548.528 195.146 548.282 195.071C548.036 194.996 547.829 194.836 547.699 194.624C547.57 194.412 547.529 194.161 547.583 193.922C547.638 193.682 547.784 193.47 547.994 193.327L557.583 186.989C557.814 186.84 558.075 186.737 558.349 186.687C558.624 186.638 558.906 186.643 559.178 186.702C559.45 186.761 559.707 186.872 559.932 187.03C560.157 187.187 560.345 187.387 560.484 187.617C560.624 187.846 560.712 188.101 560.743 188.364C560.775 188.628 560.748 188.895 560.666 189.148C560.583 189.401 560.447 189.636 560.264 189.837C560.082 190.038 559.858 190.201 559.606 190.316Z" fill="#B0B3B5"/>
<path d="M557.584 205.763L547.994 199.425C547.785 199.282 547.638 199.07 547.584 198.831C547.53 198.591 547.571 198.341 547.7 198.128C547.829 197.916 548.037 197.757 548.283 197.682C548.528 197.607 548.795 197.621 549.03 197.722L559.606 202.437C559.858 202.552 560.082 202.715 560.264 202.916C560.446 203.117 560.583 203.351 560.665 203.604C560.747 203.858 560.774 204.124 560.743 204.388C560.711 204.651 560.623 204.906 560.483 205.135C560.344 205.365 560.156 205.564 559.931 205.722C559.706 205.879 559.45 205.991 559.178 206.05C558.906 206.109 558.623 206.114 558.349 206.064C558.075 206.015 557.814 205.913 557.584 205.763Z" fill="#B0B3B5"/>
<path d="M411.279 383.217L412.266 372.164C412.292 371.921 412.412 371.695 412.604 371.53C412.795 371.366 413.044 371.275 413.302 371.275C413.56 371.275 413.809 371.366 414.001 371.53C414.192 371.695 414.312 371.921 414.338 372.164L415.325 383.217C415.346 383.482 415.309 383.747 415.217 383.997C415.125 384.248 414.979 384.477 414.789 384.671C414.599 384.865 414.369 385.02 414.113 385.126C413.858 385.232 413.581 385.287 413.302 385.287C413.023 385.287 412.747 385.232 412.491 385.126C412.235 385.02 412.005 384.865 411.815 384.671C411.625 384.477 411.48 384.248 411.387 383.997C411.295 383.747 411.258 383.482 411.279 383.217Z" fill="#B0B3B5"/>
<path d="M398.199 373.831L408.775 369.116C409.011 369.015 409.277 369.001 409.523 369.076C409.769 369.151 409.977 369.31 410.106 369.522C410.235 369.735 410.276 369.985 410.222 370.225C410.167 370.465 410.021 370.676 409.811 370.819L400.222 377.158C399.991 377.307 399.731 377.41 399.456 377.459C399.182 377.509 398.899 377.504 398.627 377.445C398.355 377.386 398.098 377.274 397.873 377.117C397.649 376.96 397.461 376.76 397.321 376.53C397.181 376.3 397.093 376.046 397.062 375.782C397.031 375.519 397.057 375.252 397.139 374.999C397.222 374.745 397.358 374.511 397.541 374.31C397.723 374.109 397.947 373.946 398.199 373.831Z" fill="#B0B3B5"/>
<path d="M400.222 358.384L409.811 364.721C410.021 364.864 410.167 365.076 410.222 365.316C410.276 365.555 410.235 365.806 410.106 366.018C409.976 366.23 409.769 366.389 409.523 366.465C409.277 366.54 409.011 366.525 408.775 366.424L398.2 361.71C397.948 361.595 397.724 361.432 397.542 361.231C397.36 361.03 397.223 360.795 397.141 360.542C397.059 360.289 397.032 360.022 397.063 359.759C397.095 359.495 397.183 359.241 397.322 359.011C397.462 358.782 397.65 358.582 397.875 358.425C398.099 358.267 398.356 358.156 398.628 358.097C398.9 358.038 399.182 358.033 399.457 358.082C399.731 358.131 399.991 358.234 400.222 358.384Z" fill="#B0B3B5"/>
<path d="M415.325 352.323L414.338 363.376C414.312 363.62 414.192 363.846 414.001 364.011C413.809 364.175 413.56 364.266 413.302 364.266C413.044 364.266 412.795 364.175 412.603 364.011C412.412 363.846 412.292 363.62 412.266 363.376L411.279 352.323C411.258 352.059 411.295 351.793 411.387 351.543C411.48 351.293 411.625 351.063 411.815 350.869C412.005 350.675 412.235 350.52 412.491 350.414C412.747 350.308 413.023 350.253 413.302 350.253C413.581 350.253 413.857 350.308 414.113 350.414C414.369 350.52 414.599 350.675 414.789 350.869C414.979 351.063 415.125 351.293 415.217 351.543C415.309 351.793 415.346 352.059 415.325 352.323Z" fill="#B0B3B5"/>
<path d="M428.405 361.71L417.829 366.425C417.593 366.526 417.327 366.54 417.081 366.465C416.835 366.39 416.627 366.231 416.498 366.019C416.369 365.806 416.328 365.556 416.382 365.316C416.437 365.076 416.583 364.864 416.793 364.721L426.382 358.383C426.613 358.234 426.874 358.131 427.148 358.082C427.422 358.033 427.704 358.038 427.977 358.097C428.249 358.156 428.505 358.267 428.73 358.425C428.955 358.582 429.143 358.782 429.282 359.011C429.422 359.241 429.51 359.495 429.541 359.759C429.573 360.022 429.546 360.289 429.464 360.542C429.382 360.795 429.245 361.03 429.063 361.231C428.881 361.432 428.657 361.595 428.405 361.71Z" fill="#B0B3B5"/>
<path d="M426.383 377.157L416.793 370.819C416.584 370.676 416.437 370.465 416.383 370.225C416.329 369.985 416.37 369.735 416.499 369.523C416.628 369.31 416.836 369.151 417.082 369.076C417.327 369.001 417.594 369.015 417.829 369.116L428.405 373.831C428.657 373.946 428.881 374.109 429.063 374.31C429.245 374.511 429.381 374.745 429.464 374.999C429.546 375.252 429.572 375.519 429.541 375.782C429.51 376.045 429.422 376.3 429.282 376.529C429.143 376.759 428.955 376.959 428.73 377.116C428.505 377.273 428.249 377.385 427.977 377.444C427.704 377.503 427.422 377.508 427.148 377.459C426.873 377.409 426.613 377.306 426.383 377.157Z" fill="#B0B3B5"/>
<path d="M350.452 161.618L351.439 150.565C351.465 150.321 351.585 150.095 351.776 149.931C351.968 149.766 352.216 149.675 352.475 149.675C352.733 149.675 352.982 149.766 353.173 149.931C353.364 150.095 353.485 150.321 353.51 150.565L354.498 161.618C354.518 161.882 354.482 162.148 354.389 162.398C354.297 162.648 354.152 162.878 353.962 163.072C353.772 163.266 353.542 163.421 353.286 163.527C353.03 163.633 352.754 163.688 352.475 163.688C352.195 163.688 351.919 163.633 351.663 163.527C351.408 163.421 351.177 163.266 350.988 163.072C350.798 162.878 350.652 162.648 350.56 162.398C350.468 162.148 350.431 161.882 350.452 161.618Z" fill="#B0B3B5"/>
<path d="M337.371 152.232L347.948 147.517C348.183 147.416 348.45 147.401 348.695 147.476C348.941 147.551 349.149 147.711 349.278 147.923C349.407 148.135 349.449 148.386 349.394 148.625C349.34 148.865 349.193 149.077 348.983 149.22L339.394 155.558C339.164 155.707 338.903 155.81 338.629 155.859C338.354 155.909 338.072 155.904 337.8 155.845C337.528 155.786 337.271 155.674 337.047 155.517C336.822 155.359 336.634 155.16 336.494 154.93C336.355 154.7 336.266 154.446 336.235 154.183C336.204 153.919 336.23 153.653 336.313 153.399C336.395 153.146 336.531 152.912 336.714 152.711C336.896 152.51 337.12 152.347 337.371 152.232Z" fill="#B0B3B5"/>
<path d="M339.394 136.784L348.983 143.122C349.193 143.265 349.34 143.477 349.394 143.717C349.449 143.956 349.408 144.207 349.278 144.419C349.149 144.631 348.942 144.791 348.696 144.866C348.45 144.941 348.183 144.926 347.948 144.825L337.371 140.11C337.12 139.995 336.896 139.832 336.714 139.631C336.531 139.431 336.395 139.196 336.313 138.943C336.23 138.69 336.204 138.423 336.235 138.159C336.266 137.896 336.355 137.642 336.494 137.412C336.634 137.182 336.822 136.983 337.047 136.825C337.271 136.668 337.528 136.556 337.8 136.497C338.072 136.438 338.354 136.433 338.629 136.483C338.903 136.532 339.164 136.635 339.394 136.784Z" fill="#B0B3B5"/>
<path d="M354.497 130.723L353.51 141.776C353.485 142.02 353.365 142.247 353.173 142.411C352.982 142.576 352.733 142.667 352.474 142.667C352.216 142.667 351.967 142.576 351.776 142.411C351.584 142.247 351.464 142.02 351.439 141.776L350.451 130.723C350.431 130.459 350.467 130.194 350.56 129.943C350.652 129.693 350.797 129.464 350.987 129.27C351.177 129.075 351.407 128.92 351.663 128.814C351.919 128.708 352.195 128.654 352.474 128.654C352.754 128.654 353.03 128.708 353.286 128.814C353.541 128.92 353.772 129.075 353.961 129.27C354.151 129.464 354.297 129.693 354.389 129.943C354.481 130.194 354.518 130.459 354.497 130.723Z" fill="#B0B3B5"/>
<path d="M367.578 140.11L357.002 144.825C356.767 144.926 356.5 144.941 356.254 144.866C356.008 144.791 355.8 144.631 355.671 144.419C355.542 144.207 355.501 143.956 355.555 143.716C355.61 143.477 355.756 143.265 355.966 143.122L365.555 136.784C365.786 136.634 366.047 136.532 366.321 136.482C366.595 136.433 366.878 136.438 367.15 136.497C367.422 136.556 367.678 136.668 367.903 136.825C368.128 136.982 368.316 137.182 368.455 137.412C368.595 137.641 368.683 137.896 368.714 138.159C368.746 138.423 368.719 138.689 368.637 138.943C368.555 139.196 368.418 139.43 368.236 139.631C368.054 139.832 367.829 139.995 367.578 140.11Z" fill="#B0B3B5"/>
<path d="M365.555 155.558L355.966 149.22C355.756 149.077 355.61 148.865 355.556 148.625C355.501 148.385 355.543 148.135 355.672 147.923C355.801 147.711 356.009 147.551 356.254 147.476C356.5 147.401 356.767 147.415 357.002 147.516L367.578 152.231C367.83 152.346 368.054 152.509 368.236 152.71C368.418 152.911 368.555 153.145 368.637 153.399C368.72 153.652 368.746 153.919 368.715 154.182C368.684 154.446 368.596 154.7 368.456 154.93C368.316 155.16 368.128 155.36 367.903 155.517C367.679 155.674 367.422 155.786 367.15 155.845C366.877 155.904 366.595 155.909 366.321 155.859C366.046 155.81 365.786 155.707 365.555 155.558Z" fill="#B0B3B5"/>
</g>
<defs>
<clipPath id="clip0_561_159">
<rect width="857" height="629" fill="white"/>
</clipPath>
</defs>
</svg>
