<svg width="857" height="629" viewBox="0 0 857 629" fill="none" xmlns="http://www.w3.org/2000/svg">
<path d="M700.652 618.684C720.352 616.633 740.382 613.945 758.209 605.666C793.361 589.341 814.353 554.087 828.261 519.149C858.969 441.527 865.222 356.994 846.248 276.007C839.263 246.478 828.269 216.599 806.051 195.043C793.282 182.653 777.445 173.644 761.799 164.775L663.043 108.798C596.37 71.0063 528.703 32.8026 454.023 13.0076C405.811 0.228559 354.566 -4.55428 305.579 5.15658C250.004 16.1736 200.34 44.9891 151.921 73.3221C110.804 97.3817 68.4647 122.527 41.0553 160.458C1.14401 215.692 -0.148331 287.546 0.00970226 354.697C0.110526 397.557 0.211377 440.416 0.312255 483.276C0.393658 517.849 0.8434 553.936 17.4588 584.636C36.2088 619.28 68.7122 630.501 106.919 628.843C153.04 626.842 199.02 622.109 245.337 621.374C342.424 619.834 439.422 625.595 536.494 625.835C591.287 625.969 646.152 624.359 700.652 618.684Z" fill="#eefafc"/>
<path d="M687.103 553.229H344.823V563.946H687.103V553.229Z" fill="#010A3D"/>
<path d="M699.087 564.017H332.838C324.488 564.017 317.718 570.495 317.718 578.485V610.636C317.718 618.626 324.488 625.104 332.838 625.104H699.087C707.438 625.104 714.208 618.626 714.208 610.636V578.485C714.208 570.495 707.438 564.017 699.087 564.017Z" fill="#1E5CD9"/>
<path d="M349.559 613.637V575.485H344.823V613.637H349.559Z" fill="#010A3D"/>
<path d="M359.395 613.637V575.485H354.659V613.637H359.395Z" fill="#010A3D"/>
<path d="M369.232 613.637V575.485H364.496V613.637H369.232Z" fill="#010A3D"/>
<path d="M379.068 613.637V575.485H374.332V613.637H379.068Z" fill="#010A3D"/>
<path d="M388.905 613.637V575.485H384.169V613.637H388.905Z" fill="#010A3D"/>
<path d="M398.742 613.637V575.485H394.005V613.637H398.742Z" fill="#010A3D"/>
<path d="M408.578 613.637V575.485H403.842V613.637H408.578Z" fill="#010A3D"/>
<path d="M418.415 613.637V575.485H413.679V613.637H418.415Z" fill="#010A3D"/>
<path d="M428.251 613.637V575.485H423.515V613.637H428.251Z" fill="#010A3D"/>
<path d="M438.088 613.637V575.485H433.352V613.637H438.088Z" fill="#010A3D"/>
<path d="M447.924 613.637V575.485H443.188V613.637H447.924Z" fill="#010A3D"/>
<path d="M457.761 613.637V575.485H453.025V613.637H457.761Z" fill="#010A3D"/>
<path d="M467.597 613.637V575.485H462.861V613.637H467.597Z" fill="#010A3D"/>
<path d="M477.434 613.637V575.485H472.698V613.637H477.434Z" fill="#010A3D"/>
<path d="M507.736 601.786C511.906 601.786 515.287 598.551 515.287 594.561C515.287 590.57 511.906 587.335 507.736 587.335C503.566 587.335 500.185 590.57 500.185 594.561C500.185 598.551 503.566 601.786 507.736 601.786Z" fill="#F2E416"/>
<path d="M543.603 601.786C547.773 601.786 551.154 598.551 551.154 594.561C551.154 590.57 547.773 587.335 543.603 587.335C539.433 587.335 536.052 590.57 536.052 594.561C536.052 598.551 539.433 601.786 543.603 601.786Z" fill="#ACE5F2"/>
<path d="M579.47 601.786C583.64 601.786 587.021 598.551 587.021 594.561C587.021 590.57 583.64 587.335 579.47 587.335C575.3 587.335 571.919 590.57 571.919 594.561C571.919 598.551 575.3 601.786 579.47 601.786Z" fill="#ACE5F2"/>
<path d="M615.337 601.786C619.507 601.786 622.888 598.551 622.888 594.561C622.888 590.57 619.507 587.335 615.337 587.335C611.167 587.335 607.786 590.57 607.786 594.561C607.786 598.551 611.167 601.786 615.337 601.786Z" fill="#ACE5F2"/>
<path d="M651.204 601.786C655.374 601.786 658.755 598.551 658.755 594.561C658.755 590.57 655.374 587.335 651.204 587.335C647.034 587.335 643.653 590.57 643.653 594.561C643.653 598.551 647.034 601.786 651.204 601.786Z" fill="#0597F2"/>
<path d="M651.88 601.786C656.05 601.786 659.431 598.551 659.431 594.561C659.431 590.57 656.05 587.335 651.88 587.335C647.71 587.335 644.329 590.57 644.329 594.561C644.329 598.551 647.71 601.786 651.88 601.786Z" fill="#0597F2"/>
<path d="M699.087 492.142H332.838C324.488 492.142 317.718 498.62 317.718 506.61V538.761C317.718 546.752 324.488 553.229 332.838 553.229H699.087C707.438 553.229 714.208 546.752 714.208 538.761V506.61C714.208 498.62 707.438 492.142 699.087 492.142Z" fill="#1E5CD9"/>
<path d="M349.559 541.762V503.61H344.823V541.762H349.559Z" fill="#010A3D"/>
<path d="M359.395 541.762V503.61H354.659V541.762H359.395Z" fill="#010A3D"/>
<path d="M369.232 541.762V503.61H364.496V541.762H369.232Z" fill="#010A3D"/>
<path d="M379.068 541.762V503.61H374.332V541.762H379.068Z" fill="#010A3D"/>
<path d="M388.905 541.762V503.61H384.169V541.762H388.905Z" fill="#010A3D"/>
<path d="M398.742 541.762V503.61H394.005V541.762H398.742Z" fill="#010A3D"/>
<path d="M408.578 541.762V503.61H403.842V541.762H408.578Z" fill="#010A3D"/>
<path d="M418.415 541.762V503.61H413.679V541.762H418.415Z" fill="#010A3D"/>
<path d="M428.251 541.762V503.61H423.515V541.762H428.251Z" fill="#010A3D"/>
<path d="M438.088 541.762V503.61H433.352V541.762H438.088Z" fill="#010A3D"/>
<path d="M447.924 541.762V503.61H443.188V541.762H447.924Z" fill="#010A3D"/>
<path d="M457.761 541.762V503.61H453.025V541.762H457.761Z" fill="#010A3D"/>
<path d="M467.597 541.762V503.61H462.861V541.762H467.597Z" fill="#010A3D"/>
<path d="M477.434 541.762V503.61H472.698V541.762H477.434Z" fill="#010A3D"/>
<path d="M507.736 529.911C511.906 529.911 515.287 526.676 515.287 522.686C515.287 518.695 511.906 515.46 507.736 515.46C503.566 515.46 500.185 518.695 500.185 522.686C500.185 526.676 503.566 529.911 507.736 529.911Z" fill="#F2E416"/>
<path d="M543.603 529.911C547.773 529.911 551.154 526.676 551.154 522.686C551.154 518.695 547.773 515.46 543.603 515.46C539.433 515.46 536.052 518.695 536.052 522.686C536.052 526.676 539.433 529.911 543.603 529.911Z" fill="#ACE5F2"/>
<path d="M579.47 529.911C583.64 529.911 587.021 526.676 587.021 522.686C587.021 518.695 583.64 515.46 579.47 515.46C575.3 515.46 571.919 518.695 571.919 522.686C571.919 526.676 575.3 529.911 579.47 529.911Z" fill="#ACE5F2"/>
<path d="M615.337 529.911C619.507 529.911 622.888 526.676 622.888 522.686C622.888 518.695 619.507 515.46 615.337 515.46C611.167 515.46 607.786 518.695 607.786 522.686C607.786 526.676 611.167 529.911 615.337 529.911Z" fill="#ACE5F2"/>
<path d="M651.204 529.911C655.374 529.911 658.755 526.676 658.755 522.686C658.755 518.695 655.374 515.46 651.204 515.46C647.034 515.46 643.653 518.695 643.653 522.686C643.653 526.676 647.034 529.911 651.204 529.911Z" fill="#0597F2"/>
<path d="M651.88 529.911C656.05 529.911 659.431 526.676 659.431 522.686C659.431 518.695 656.05 515.46 651.88 515.46C647.71 515.46 644.329 518.695 644.329 522.686C644.329 526.676 647.71 529.911 651.88 529.911Z" fill="#0597F2"/>
<path d="M687.103 481.425H344.823V492.142H687.103V481.425Z" fill="#010A3D"/>
<path d="M699.087 420.339H332.838C324.488 420.339 317.718 426.816 317.718 434.807V466.958C317.718 474.948 324.488 481.426 332.838 481.426H699.087C707.438 481.426 714.208 474.948 714.208 466.958V434.807C714.208 426.816 707.438 420.339 699.087 420.339Z" fill="#1E5CD9"/>
<path d="M349.559 469.958V431.806H344.823V469.958H349.559Z" fill="#010A3D"/>
<path d="M359.395 469.959V431.806H354.659V469.959H359.395Z" fill="#010A3D"/>
<path d="M369.232 469.959V431.806H364.496V469.959H369.232Z" fill="#010A3D"/>
<path d="M379.068 469.958V431.806H374.332V469.958H379.068Z" fill="#010A3D"/>
<path d="M388.905 469.959V431.806H384.169V469.959H388.905Z" fill="#010A3D"/>
<path d="M398.742 469.958V431.806H394.005V469.958H398.742Z" fill="#010A3D"/>
<path d="M408.578 469.959V431.806H403.842V469.959H408.578Z" fill="#010A3D"/>
<path d="M418.415 469.959V431.806H413.679V469.959H418.415Z" fill="#010A3D"/>
<path d="M428.251 469.958V431.806H423.515V469.958H428.251Z" fill="#010A3D"/>
<path d="M438.088 469.959V431.806H433.352V469.959H438.088Z" fill="#010A3D"/>
<path d="M447.924 469.958V431.806H443.188V469.958H447.924Z" fill="#010A3D"/>
<path d="M457.761 469.959V431.806H453.025V469.959H457.761Z" fill="#010A3D"/>
<path d="M467.597 469.959V431.806H462.861V469.959H467.597Z" fill="#010A3D"/>
<path d="M477.434 469.959V431.806H472.698V469.959H477.434Z" fill="#010A3D"/>
<path d="M507.736 458.107C511.906 458.107 515.287 454.872 515.287 450.882C515.287 446.892 511.906 443.657 507.736 443.657C503.566 443.657 500.185 446.892 500.185 450.882C500.185 454.872 503.566 458.107 507.736 458.107Z" fill="#F2E416"/>
<path d="M543.603 458.107C547.773 458.107 551.154 454.872 551.154 450.882C551.154 446.892 547.773 443.657 543.603 443.657C539.433 443.657 536.052 446.892 536.052 450.882C536.052 454.872 539.433 458.107 543.603 458.107Z" fill="#ACE5F2"/>
<path d="M579.47 458.107C583.64 458.107 587.021 454.872 587.021 450.882C587.021 446.892 583.64 443.657 579.47 443.657C575.3 443.657 571.919 446.892 571.919 450.882C571.919 454.872 575.3 458.107 579.47 458.107Z" fill="#ACE5F2"/>
<path d="M615.337 458.107C619.507 458.107 622.888 454.872 622.888 450.882C622.888 446.892 619.507 443.657 615.337 443.657C611.167 443.657 607.786 446.892 607.786 450.882C607.786 454.872 611.167 458.107 615.337 458.107Z" fill="#ACE5F2"/>
<path d="M651.204 458.107C655.374 458.107 658.755 454.872 658.755 450.882C658.755 446.892 655.374 443.657 651.204 443.657C647.034 443.657 643.653 446.892 643.653 450.882C643.653 454.872 647.034 458.107 651.204 458.107Z" fill="#0597F2"/>
<path d="M651.88 458.107C656.05 458.107 659.431 454.872 659.431 450.882C659.431 446.892 656.05 443.657 651.88 443.657C647.71 443.657 644.329 446.892 644.329 450.882C644.329 454.872 647.71 458.107 651.88 458.107Z" fill="#0597F2"/>
<path d="M687.103 409.622H344.823V420.339H687.103V409.622Z" fill="#010A3D"/>
<path d="M699.087 348.535H332.838C324.488 348.535 317.718 355.013 317.718 363.003V395.154C317.718 403.144 324.488 409.622 332.838 409.622H699.087C707.438 409.622 714.208 403.144 714.208 395.154V363.003C714.208 355.013 707.438 348.535 699.087 348.535Z" fill="#1E5CD9"/>
<path d="M349.559 398.155V360.003H344.823V398.155H349.559Z" fill="#010A3D"/>
<path d="M359.395 398.155V360.003H354.659V398.155H359.395Z" fill="#010A3D"/>
<path d="M369.232 398.155V360.003H364.496V398.155H369.232Z" fill="#010A3D"/>
<path d="M379.068 398.155V360.003H374.332V398.155H379.068Z" fill="#010A3D"/>
<path d="M388.905 398.155V360.003H384.169V398.155H388.905Z" fill="#010A3D"/>
<path d="M398.742 398.155V360.003H394.005V398.155H398.742Z" fill="#010A3D"/>
<path d="M408.578 398.155V360.003H403.842V398.155H408.578Z" fill="#010A3D"/>
<path d="M418.415 398.155V360.003H413.679V398.155H418.415Z" fill="#010A3D"/>
<path d="M428.251 398.155V360.003H423.515V398.155H428.251Z" fill="#010A3D"/>
<path d="M438.088 398.155V360.003H433.352V398.155H438.088Z" fill="#010A3D"/>
<path d="M447.924 398.155V360.003H443.188V398.155H447.924Z" fill="#010A3D"/>
<path d="M457.761 398.155V360.003H453.025V398.155H457.761Z" fill="#010A3D"/>
<path d="M467.597 398.155V360.003H462.861V398.155H467.597Z" fill="#010A3D"/>
<path d="M477.434 398.155V360.003H472.698V398.155H477.434Z" fill="#010A3D"/>
<path d="M507.736 386.304C511.906 386.304 515.287 383.069 515.287 379.078C515.287 375.088 511.906 371.853 507.736 371.853C503.566 371.853 500.185 375.088 500.185 379.078C500.185 383.069 503.566 386.304 507.736 386.304Z" fill="#F2E416"/>
<path d="M543.603 386.304C547.773 386.304 551.154 383.069 551.154 379.078C551.154 375.088 547.773 371.853 543.603 371.853C539.433 371.853 536.052 375.088 536.052 379.078C536.052 383.069 539.433 386.304 543.603 386.304Z" fill="#ACE5F2"/>
<path d="M579.47 386.304C583.64 386.304 587.021 383.069 587.021 379.078C587.021 375.088 583.64 371.853 579.47 371.853C575.3 371.853 571.919 375.088 571.919 379.078C571.919 383.069 575.3 386.304 579.47 386.304Z" fill="#ACE5F2"/>
<path d="M615.337 386.304C619.507 386.304 622.888 383.069 622.888 379.078C622.888 375.088 619.507 371.853 615.337 371.853C611.167 371.853 607.786 375.088 607.786 379.078C607.786 383.069 611.167 386.304 615.337 386.304Z" fill="#ACE5F2"/>
<path d="M651.204 386.304C655.374 386.304 658.755 383.069 658.755 379.078C658.755 375.088 655.374 371.853 651.204 371.853C647.034 371.853 643.653 375.088 643.653 379.078C643.653 383.069 647.034 386.304 651.204 386.304Z" fill="#0597F2"/>
<path d="M651.88 386.304C656.05 386.304 659.431 383.069 659.431 379.078C659.431 375.088 656.05 371.853 651.88 371.853C647.71 371.853 644.329 375.088 644.329 379.078C644.329 383.069 647.71 386.304 651.88 386.304Z" fill="#0597F2"/>
<path d="M687.103 409.622H344.823V420.339H687.103V409.622Z" fill="#010A3D"/>
<path d="M687.103 337.818H344.823V348.535H687.103V337.818Z" fill="#010A3D"/>
<path d="M699.087 276.732H332.838C324.488 276.732 317.718 283.209 317.718 291.2V323.35C317.718 331.341 324.488 337.818 332.838 337.818H699.087C707.438 337.818 714.208 331.341 714.208 323.35V291.2C714.208 283.209 707.438 276.732 699.087 276.732Z" fill="#1E5CD9"/>
<path d="M349.559 326.351V288.199H344.823V326.351H349.559Z" fill="#010A3D"/>
<path d="M359.395 326.351V288.199H354.659V326.351H359.395Z" fill="#010A3D"/>
<path d="M369.232 326.351V288.199H364.496V326.351H369.232Z" fill="#010A3D"/>
<path d="M379.068 326.351V288.199H374.332V326.351H379.068Z" fill="#010A3D"/>
<path d="M388.905 326.351V288.199H384.169V326.351H388.905Z" fill="#010A3D"/>
<path d="M398.742 326.351V288.199H394.005V326.351H398.742Z" fill="#010A3D"/>
<path d="M408.578 326.351V288.199H403.842V326.351H408.578Z" fill="#010A3D"/>
<path d="M418.415 326.351V288.199H413.679V326.351H418.415Z" fill="#010A3D"/>
<path d="M428.251 326.351V288.199H423.515V326.351H428.251Z" fill="#010A3D"/>
<path d="M438.088 326.351V288.199H433.352V326.351H438.088Z" fill="#010A3D"/>
<path d="M447.924 326.351V288.199H443.188V326.351H447.924Z" fill="#010A3D"/>
<path d="M457.761 326.351V288.199H453.025V326.351H457.761Z" fill="#010A3D"/>
<path d="M467.597 326.351V288.199H462.861V326.351H467.597Z" fill="#010A3D"/>
<path d="M477.434 326.351V288.199H472.698V326.351H477.434Z" fill="#010A3D"/>
<path d="M507.736 314.5C511.906 314.5 515.287 311.265 515.287 307.275C515.287 303.285 511.906 300.05 507.736 300.05C503.566 300.05 500.185 303.285 500.185 307.275C500.185 311.265 503.566 314.5 507.736 314.5Z" fill="#F2E416"/>
<path d="M543.603 314.5C547.773 314.5 551.154 311.265 551.154 307.275C551.154 303.285 547.773 300.05 543.603 300.05C539.433 300.05 536.052 303.285 536.052 307.275C536.052 311.265 539.433 314.5 543.603 314.5Z" fill="#ACE5F2"/>
<path d="M579.47 314.5C583.64 314.5 587.021 311.265 587.021 307.275C587.021 303.285 583.64 300.05 579.47 300.05C575.3 300.05 571.919 303.285 571.919 307.275C571.919 311.265 575.3 314.5 579.47 314.5Z" fill="#ACE5F2"/>
<path d="M615.337 314.5C619.507 314.5 622.888 311.265 622.888 307.275C622.888 303.285 619.507 300.05 615.337 300.05C611.167 300.05 607.786 303.285 607.786 307.275C607.786 311.265 611.167 314.5 615.337 314.5Z" fill="#ACE5F2"/>
<path d="M651.204 314.5C655.374 314.5 658.755 311.265 658.755 307.275C658.755 303.285 655.374 300.05 651.204 300.05C647.034 300.05 643.653 303.285 643.653 307.275C643.653 311.265 647.034 314.5 651.204 314.5Z" fill="#0597F2"/>
<path d="M651.88 314.5C656.05 314.5 659.431 311.265 659.431 307.275C659.431 303.285 656.05 300.05 651.88 300.05C647.71 300.05 644.329 303.285 644.329 307.275C644.329 311.265 647.71 314.5 651.88 314.5Z" fill="#0597F2"/>
<path d="M687.103 337.818H344.823V348.535H687.103V337.818Z" fill="#010A3D"/>
<path d="M687.103 266.015H344.823V276.732H687.103V266.015Z" fill="#010A3D"/>
<path d="M699.087 204.928H332.838C324.488 204.928 317.718 211.405 317.718 219.396V251.547C317.718 259.537 324.488 266.015 332.838 266.015H699.087C707.438 266.015 714.208 259.537 714.208 251.547V219.396C714.208 211.405 707.438 204.928 699.087 204.928Z" fill="#1E5CD9"/>
<path d="M349.559 254.548V216.396H344.823V254.548H349.559Z" fill="#010A3D"/>
<path d="M359.395 254.548V216.396H354.659V254.548H359.395Z" fill="#010A3D"/>
<path d="M369.232 254.548V216.396H364.496V254.548H369.232Z" fill="#010A3D"/>
<path d="M379.068 254.548V216.396H374.332V254.548H379.068Z" fill="#010A3D"/>
<path d="M388.905 254.548V216.396H384.169V254.548H388.905Z" fill="#010A3D"/>
<path d="M398.742 254.548V216.396H394.005V254.548H398.742Z" fill="#010A3D"/>
<path d="M408.578 254.548V216.396H403.842V254.548H408.578Z" fill="#010A3D"/>
<path d="M418.415 254.548V216.396H413.678V254.548H418.415Z" fill="#010A3D"/>
<path d="M428.251 254.548V216.396H423.515V254.548H428.251Z" fill="#010A3D"/>
<path d="M438.088 254.548V216.396H433.352V254.548H438.088Z" fill="#010A3D"/>
<path d="M447.924 254.548V216.396H443.188V254.548H447.924Z" fill="#010A3D"/>
<path d="M457.761 254.548V216.396H453.025V254.548H457.761Z" fill="#010A3D"/>
<path d="M467.597 254.548V216.396H462.861V254.548H467.597Z" fill="#010A3D"/>
<path d="M477.434 254.548V216.396H472.698V254.548H477.434Z" fill="#010A3D"/>
<path d="M507.736 242.696C511.906 242.696 515.287 239.462 515.287 235.471C515.287 231.481 511.906 228.246 507.736 228.246C503.566 228.246 500.185 231.481 500.185 235.471C500.185 239.462 503.566 242.696 507.736 242.696Z" fill="#F2E416"/>
<path d="M543.603 242.696C547.773 242.696 551.154 239.462 551.154 235.471C551.154 231.481 547.773 228.246 543.603 228.246C539.433 228.246 536.052 231.481 536.052 235.471C536.052 239.462 539.433 242.696 543.603 242.696Z" fill="#ACE5F2"/>
<path d="M579.47 242.696C583.64 242.696 587.021 239.462 587.021 235.471C587.021 231.481 583.64 228.246 579.47 228.246C575.3 228.246 571.919 231.481 571.919 235.471C571.919 239.462 575.3 242.696 579.47 242.696Z" fill="#ACE5F2"/>
<path d="M615.337 242.696C619.507 242.696 622.888 239.462 622.888 235.471C622.888 231.481 619.507 228.246 615.337 228.246C611.167 228.246 607.786 231.481 607.786 235.471C607.786 239.462 611.167 242.696 615.337 242.696Z" fill="#ACE5F2"/>
<path d="M651.204 242.696C655.374 242.696 658.755 239.462 658.755 235.471C658.755 231.481 655.374 228.246 651.204 228.246C647.034 228.246 643.653 231.481 643.653 235.471C643.653 239.462 647.034 242.696 651.204 242.696Z" fill="#0597F2"/>
<path d="M651.88 242.696C656.05 242.696 659.431 239.462 659.431 235.471C659.431 231.481 656.05 228.246 651.88 228.246C647.71 228.246 644.329 231.481 644.329 235.471C644.329 239.462 647.71 242.696 651.88 242.696Z" fill="#0597F2"/>
<path d="M687.103 194.211H344.823V204.928H687.103V194.211Z" fill="#010A3D"/>
<path d="M699.087 133.125H332.838C324.488 133.125 317.718 139.602 317.718 147.592V179.743C317.718 187.734 324.488 194.211 332.838 194.211H699.087C707.438 194.211 714.208 187.734 714.208 179.743V147.592C714.208 139.602 707.438 133.125 699.087 133.125Z" fill="#1E5CD9"/>
<path d="M349.559 182.744V144.592H344.823V182.744H349.559Z" fill="#010A3D"/>
<path d="M359.395 182.744V144.592H354.659V182.744H359.395Z" fill="#010A3D"/>
<path d="M369.232 182.744V144.592H364.496V182.744H369.232Z" fill="#010A3D"/>
<path d="M379.068 182.744V144.592H374.332V182.744H379.068Z" fill="#010A3D"/>
<path d="M388.905 182.744V144.592H384.169V182.744H388.905Z" fill="#010A3D"/>
<path d="M398.742 182.744V144.592H394.005V182.744H398.742Z" fill="#010A3D"/>
<path d="M408.578 182.744V144.592H403.842V182.744H408.578Z" fill="#010A3D"/>
<path d="M418.415 182.744V144.592H413.679V182.744H418.415Z" fill="#010A3D"/>
<path d="M428.251 182.744V144.592H423.515V182.744H428.251Z" fill="#010A3D"/>
<path d="M438.088 182.744V144.592H433.352V182.744H438.088Z" fill="#010A3D"/>
<path d="M447.924 182.744V144.592H443.188V182.744H447.924Z" fill="#010A3D"/>
<path d="M457.761 182.744V144.592H453.025V182.744H457.761Z" fill="#010A3D"/>
<path d="M467.597 182.744V144.592H462.861V182.744H467.597Z" fill="#010A3D"/>
<path d="M477.434 182.744V144.592H472.698V182.744H477.434Z" fill="#010A3D"/>
<path d="M507.736 170.893C511.906 170.893 515.287 167.658 515.287 163.668C515.287 159.677 511.906 156.443 507.736 156.443C503.566 156.443 500.185 159.677 500.185 163.668C500.185 167.658 503.566 170.893 507.736 170.893Z" fill="#F2E416"/>
<path d="M543.603 170.893C547.773 170.893 551.154 167.658 551.154 163.668C551.154 159.677 547.773 156.443 543.603 156.443C539.433 156.443 536.052 159.677 536.052 163.668C536.052 167.658 539.433 170.893 543.603 170.893Z" fill="#ACE5F2"/>
<path d="M579.47 170.893C583.64 170.893 587.021 167.658 587.021 163.668C587.021 159.677 583.64 156.443 579.47 156.443C575.3 156.443 571.919 159.677 571.919 163.668C571.919 167.658 575.3 170.893 579.47 170.893Z" fill="#ACE5F2"/>
<path d="M615.337 170.893C619.507 170.893 622.888 167.658 622.888 163.668C622.888 159.677 619.507 156.443 615.337 156.443C611.167 156.443 607.786 159.677 607.786 163.668C607.786 167.658 611.167 170.893 615.337 170.893Z" fill="#ACE5F2"/>
<path d="M651.204 170.893C655.374 170.893 658.755 167.658 658.755 163.668C658.755 159.677 655.374 156.443 651.204 156.443C647.034 156.443 643.653 159.677 643.653 163.668C643.653 167.658 647.034 170.893 651.204 170.893Z" fill="#0597F2"/>
<path d="M651.88 170.893C656.05 170.893 659.431 167.658 659.431 163.668C659.431 159.677 656.05 156.443 651.88 156.443C647.71 156.443 644.329 159.677 644.329 163.668C644.329 167.658 647.71 170.893 651.88 170.893Z" fill="#0597F2"/>
<path d="M560.116 416.533L523.69 615.071C522.659 620.686 517.453 625.234 512.062 625.229L228.93 624.96C223.539 624.955 220.003 620.398 221.034 614.783L265.723 371.213C266.753 365.598 271.959 361.05 277.351 361.055L357.263 361.131C375.75 361.149 387.873 376.772 384.34 396.026C383.31 401.642 386.845 406.198 392.237 406.204L552.22 406.356C557.611 406.361 561.147 410.917 560.116 416.533Z" fill="#010A3D"/>
<path d="M523.821 430.798V615.638C523.821 618.148 522.779 620.556 520.924 622.331C519.069 624.107 516.552 625.104 513.928 625.104H227.008C224.384 625.104 221.868 624.107 220.013 622.331C218.157 620.556 217.115 618.148 217.115 615.638V388.874C217.115 386.363 218.157 383.956 220.013 382.18C221.868 380.405 224.384 379.408 227.008 379.408H307.99C316.987 379.408 325.615 382.827 331.976 388.914C338.338 395.002 341.912 403.257 341.912 411.866C341.912 413.109 342.168 414.34 342.665 415.488C343.162 416.637 343.891 417.681 344.81 418.56C345.728 419.439 346.819 420.136 348.019 420.612C349.219 421.087 350.506 421.332 351.805 421.332H513.928C515.228 421.332 516.514 421.577 517.714 422.053C518.915 422.528 520.005 423.226 520.924 424.105C521.842 424.984 522.571 426.027 523.068 427.176C523.566 428.324 523.821 429.555 523.821 430.798Z" fill="#F2E416"/>
<path d="M278.698 206.507H125.924C154.982 133.549 202.311 83.8722 202.311 83.8722C202.311 83.8722 249.64 133.549 278.698 206.507Z" fill="#010A3D"/>
<path d="M300.861 314.896C300.861 327.401 300.44 339.673 299.615 351.643C299.348 355.653 299.032 359.625 298.668 363.559C297.956 371.324 297.082 378.941 296.046 386.407C290.471 426.607 280.324 461.967 267.029 489.113C264.432 494.432 261.716 499.423 258.881 504.087H145.741C139.317 493.313 133.857 482.038 129.42 470.383C117.922 440.776 109.66 404.145 105.954 363.559C105.59 359.625 105.274 355.653 105.007 351.643C104.182 339.68 103.761 327.401 103.761 314.896C103.761 275.726 113.05 238.833 125.925 206.507H278.698C291.572 238.833 300.861 275.726 300.861 314.896Z" fill="#0597F2"/>
<path d="M162.885 579.544C162.832 573.252 164.32 567.035 167.229 561.391C170.138 555.748 174.388 550.835 179.638 547.045H224.787C230.037 550.835 234.287 555.748 237.196 561.391C240.105 567.035 241.593 573.251 241.54 579.544C241.54 601.461 202.213 619.229 202.213 619.229C202.213 619.229 162.885 601.462 162.885 579.544Z" fill="#0DD9D9"/>
<path d="M152.706 504.087H251.719V507.569C251.719 509.448 250.938 511.25 249.55 512.579C248.161 513.908 246.277 514.655 244.313 514.655H160.112C158.148 514.655 156.264 513.908 154.875 512.579C153.487 511.25 152.706 509.448 152.706 507.569V504.087Z" fill="#010A3D"/>
<path d="M238.325 550.505H166.099L176.845 519.939H227.579L238.325 550.505Z" fill="#010A3D"/>
<path d="M329.32 478.761C329.333 489.364 328.238 499.941 326.051 510.335C309.298 497.333 288.586 489.885 267.029 489.113C280.324 461.967 290.471 426.607 296.046 386.407C316.47 409.116 329.32 442.076 329.32 478.761Z" fill="#010A3D"/>
<path d="M75.1704 478.761C75.1568 489.364 76.252 499.941 78.4394 510.335C95.1926 497.333 115.905 489.885 137.461 489.113C124.166 461.967 114.019 426.607 108.444 386.407C88.02 409.116 75.1704 442.076 75.1704 478.761Z" fill="#010A3D"/>
<path d="M164.225 514.655H240.2V519.016C240.2 520.662 239.517 522.241 238.3 523.405C237.084 524.569 235.433 525.223 233.713 525.223H170.712C168.992 525.223 167.341 524.569 166.125 523.405C164.908 522.241 164.225 520.662 164.225 519.016V514.655Z" fill="#0597F2"/>
<path d="M202.311 344.032C239.415 344.032 269.493 315.252 269.493 279.75C269.493 244.247 239.415 215.467 202.311 215.467C165.208 215.467 135.129 244.247 135.129 279.75C135.129 315.252 165.208 344.032 202.311 344.032Z" fill="#010A3D"/>
<path d="M202.311 329.537C231.048 329.537 254.344 307.246 254.344 279.75C254.344 252.253 231.048 229.962 202.311 229.962C173.574 229.962 150.278 252.253 150.278 279.75C150.278 307.246 173.574 329.537 202.311 329.537Z" fill="#ACE5F2"/>
<path d="M299.615 351.643C299.348 355.653 299.032 359.625 298.668 363.558H105.954C105.59 359.625 105.274 355.653 105.007 351.643H299.615Z" fill="#010A3D"/>
<path d="M728.457 260.568L729.444 249.427C729.47 249.182 729.59 248.954 729.782 248.788C729.973 248.622 730.222 248.531 730.48 248.531C730.738 248.531 730.987 248.622 731.179 248.788C731.37 248.954 731.49 249.182 731.516 249.427L732.503 260.568C732.524 260.834 732.487 261.102 732.395 261.354C732.303 261.606 732.157 261.837 731.967 262.033C731.777 262.229 731.547 262.385 731.291 262.492C731.035 262.599 730.759 262.654 730.48 262.654C730.201 262.654 729.925 262.599 729.669 262.492C729.413 262.385 729.183 262.229 728.993 262.033C728.803 261.837 728.658 261.606 728.565 261.354C728.473 261.102 728.436 260.834 728.457 260.568Z" fill="#B0B3B5"/>
<path d="M715.377 251.107L725.953 246.355C726.188 246.253 726.455 246.239 726.701 246.314C726.947 246.39 727.154 246.551 727.283 246.765C727.413 246.979 727.454 247.231 727.399 247.473C727.345 247.714 727.199 247.928 726.989 248.072L717.399 254.46C717.169 254.611 716.908 254.714 716.634 254.764C716.359 254.814 716.077 254.809 715.805 254.75C715.532 254.69 715.276 254.578 715.051 254.419C714.826 254.26 714.638 254.059 714.498 253.828C714.359 253.596 714.271 253.34 714.239 253.074C714.208 252.808 714.235 252.539 714.317 252.284C714.399 252.029 714.536 251.792 714.718 251.59C714.901 251.387 715.125 251.223 715.377 251.107Z" fill="#B0B3B5"/>
<path d="M717.4 235.538L726.989 241.926C727.199 242.07 727.346 242.283 727.4 242.525C727.455 242.766 727.413 243.019 727.284 243.233C727.155 243.447 726.947 243.608 726.701 243.683C726.455 243.759 726.189 243.744 725.953 243.642L715.377 238.89C715.126 238.774 714.902 238.61 714.72 238.408C714.538 238.205 714.401 237.969 714.319 237.713C714.236 237.458 714.21 237.189 714.241 236.924C714.273 236.658 714.361 236.402 714.5 236.171C714.64 235.939 714.828 235.738 715.053 235.579C715.277 235.421 715.534 235.308 715.806 235.249C716.078 235.189 716.36 235.184 716.635 235.234C716.909 235.284 717.169 235.387 717.4 235.538Z" fill="#B0B3B5"/>
<path d="M732.503 229.429L731.516 240.569C731.49 240.815 731.37 241.043 731.179 241.209C730.987 241.375 730.738 241.467 730.48 241.467C730.222 241.467 729.973 241.375 729.781 241.209C729.59 241.043 729.47 240.815 729.444 240.569L728.457 229.429C728.436 229.163 728.473 228.895 728.565 228.643C728.658 228.391 728.803 228.16 728.993 227.964C729.183 227.768 729.413 227.612 729.669 227.505C729.925 227.398 730.201 227.343 730.48 227.343C730.759 227.343 731.035 227.398 731.291 227.505C731.547 227.612 731.777 227.768 731.967 227.964C732.157 228.16 732.303 228.391 732.395 228.643C732.487 228.895 732.524 229.163 732.503 229.429Z" fill="#B0B3B5"/>
<path d="M745.583 238.891L735.007 243.643C734.771 243.745 734.505 243.759 734.259 243.684C734.013 243.608 733.805 243.447 733.676 243.233C733.547 243.019 733.506 242.767 733.56 242.525C733.615 242.284 733.761 242.07 733.971 241.926L743.56 235.538C743.791 235.387 744.052 235.284 744.326 235.234C744.6 235.185 744.882 235.19 745.155 235.249C745.427 235.308 745.683 235.421 745.908 235.58C746.133 235.738 746.321 235.939 746.46 236.171C746.6 236.402 746.688 236.659 746.719 236.924C746.751 237.19 746.724 237.458 746.642 237.714C746.56 237.969 746.423 238.205 746.241 238.408C746.059 238.61 745.835 238.775 745.583 238.891Z" fill="#B0B3B5"/>
<path d="M743.561 254.46L733.971 248.072C733.762 247.928 733.615 247.714 733.561 247.473C733.507 247.231 733.548 246.979 733.677 246.765C733.806 246.551 734.014 246.39 734.26 246.315C734.505 246.239 734.772 246.253 735.007 246.355L745.583 251.107C745.835 251.223 746.059 251.387 746.241 251.59C746.423 251.792 746.559 252.029 746.642 252.284C746.724 252.539 746.75 252.808 746.719 253.074C746.688 253.339 746.6 253.596 746.46 253.827C746.321 254.058 746.133 254.26 745.908 254.418C745.683 254.577 745.427 254.689 745.154 254.749C744.882 254.808 744.6 254.813 744.326 254.763C744.051 254.714 743.791 254.61 743.561 254.46Z" fill="#B0B3B5"/>
<path d="M718.798 514.65L719.785 503.51C719.811 503.264 719.931 503.036 720.122 502.87C720.314 502.704 720.563 502.612 720.821 502.612C721.079 502.612 721.328 502.704 721.52 502.87C721.711 503.036 721.831 503.264 721.857 503.51L722.844 514.65C722.865 514.916 722.828 515.184 722.736 515.436C722.643 515.688 722.498 515.92 722.308 516.115C722.118 516.311 721.888 516.467 721.632 516.574C721.376 516.681 721.1 516.736 720.821 516.736C720.542 516.736 720.266 516.681 720.01 516.574C719.754 516.467 719.524 516.311 719.334 516.115C719.144 515.92 718.998 515.688 718.906 515.436C718.814 515.184 718.777 514.916 718.798 514.65Z" fill="#B0B3B5"/>
<path d="M705.718 505.19L716.294 500.438C716.529 500.336 716.796 500.321 717.042 500.397C717.288 500.473 717.495 500.633 717.624 500.847C717.753 501.061 717.795 501.314 717.74 501.555C717.686 501.797 717.54 502.01 717.33 502.154L707.741 508.543C707.51 508.693 707.25 508.797 706.975 508.846C706.701 508.896 706.419 508.891 706.147 508.831C705.874 508.772 705.618 508.66 705.393 508.501C705.169 508.342 704.981 508.141 704.841 507.91C704.701 507.678 704.613 507.422 704.582 507.156C704.551 506.891 704.577 506.622 704.659 506.367C704.742 506.111 704.878 505.875 705.06 505.673C705.242 505.47 705.466 505.306 705.718 505.19Z" fill="#B0B3B5"/>
<path d="M707.741 489.62L717.33 496.008C717.54 496.152 717.686 496.366 717.741 496.608C717.795 496.849 717.754 497.101 717.625 497.315C717.495 497.529 717.288 497.69 717.042 497.765C716.796 497.841 716.53 497.827 716.294 497.725L705.718 492.973C705.466 492.857 705.242 492.693 705.06 492.49C704.878 492.288 704.742 492.051 704.659 491.796C704.577 491.541 704.551 491.272 704.582 491.007C704.613 490.741 704.701 490.485 704.841 490.253C704.981 490.022 705.169 489.821 705.393 489.662C705.618 489.503 705.874 489.391 706.147 489.331C706.419 489.272 706.701 489.267 706.975 489.317C707.25 489.366 707.51 489.47 707.741 489.62Z" fill="#B0B3B5"/>
<path d="M722.844 483.512L721.857 494.652C721.831 494.898 721.711 495.126 721.519 495.292C721.328 495.458 721.079 495.55 720.821 495.55C720.563 495.55 720.314 495.458 720.122 495.292C719.931 495.126 719.811 494.898 719.785 494.652L718.798 483.512C718.777 483.245 718.814 482.978 718.906 482.726C718.998 482.474 719.144 482.242 719.334 482.047C719.524 481.851 719.754 481.695 720.01 481.588C720.266 481.481 720.542 481.426 720.821 481.426C721.1 481.426 721.376 481.481 721.632 481.588C721.888 481.695 722.118 481.851 722.308 482.047C722.498 482.242 722.643 482.474 722.736 482.726C722.828 482.978 722.865 483.245 722.844 483.512Z" fill="#B0B3B5"/>
<path d="M735.924 492.973L725.348 497.725C725.112 497.827 724.846 497.841 724.6 497.766C724.354 497.69 724.146 497.529 724.017 497.315C723.888 497.101 723.847 496.849 723.901 496.607C723.956 496.366 724.102 496.152 724.312 496.008L733.901 489.62C734.132 489.469 734.392 489.366 734.667 489.316C734.941 489.267 735.223 489.272 735.495 489.331C735.768 489.391 736.024 489.503 736.249 489.662C736.473 489.82 736.661 490.022 736.801 490.253C736.941 490.484 737.029 490.741 737.06 491.006C737.091 491.272 737.065 491.541 736.983 491.796C736.9 492.051 736.764 492.287 736.582 492.49C736.399 492.692 736.176 492.857 735.924 492.973Z" fill="#B0B3B5"/>
<path d="M733.902 508.543L724.312 502.154C724.102 502.01 723.956 501.797 723.901 501.555C723.847 501.314 723.888 501.061 724.017 500.847C724.147 500.633 724.354 500.473 724.6 500.397C724.846 500.321 725.113 500.336 725.348 500.438L735.925 505.19C736.176 505.306 736.4 505.47 736.583 505.672C736.765 505.875 736.902 506.111 736.984 506.367C737.066 506.622 737.093 506.891 737.062 507.156C737.03 507.422 736.942 507.679 736.803 507.91C736.663 508.141 736.475 508.343 736.25 508.502C736.025 508.66 735.769 508.773 735.496 508.832C735.224 508.891 734.942 508.896 734.667 508.847C734.393 508.797 734.132 508.693 733.902 508.543Z" fill="#B0B3B5"/>
<path d="M311.025 141.707L312.012 130.566C312.038 130.321 312.158 130.093 312.349 129.927C312.541 129.761 312.79 129.67 313.048 129.67C313.306 129.67 313.555 129.761 313.746 129.927C313.938 130.093 314.058 130.321 314.083 130.566L315.071 141.707C315.092 141.973 315.055 142.241 314.962 142.493C314.87 142.745 314.725 142.976 314.535 143.172C314.345 143.368 314.115 143.524 313.859 143.631C313.603 143.738 313.327 143.793 313.048 143.793C312.769 143.793 312.492 143.738 312.237 143.631C311.981 143.524 311.751 143.368 311.561 143.172C311.371 142.976 311.225 142.745 311.133 142.493C311.041 142.241 311.004 141.973 311.025 141.707Z" fill="#B0B3B5"/>
<path d="M297.945 132.246L308.521 127.494C308.756 127.392 309.023 127.378 309.269 127.454C309.514 127.529 309.722 127.69 309.851 127.904C309.98 128.118 310.022 128.37 309.967 128.612C309.913 128.853 309.767 129.067 309.557 129.211L299.967 135.599C299.737 135.75 299.476 135.853 299.202 135.903C298.927 135.952 298.645 135.947 298.373 135.888C298.101 135.829 297.844 135.716 297.62 135.557C297.395 135.399 297.207 135.197 297.067 134.966C296.928 134.735 296.84 134.478 296.808 134.213C296.777 133.947 296.803 133.678 296.886 133.423C296.968 133.168 297.105 132.932 297.287 132.729C297.469 132.527 297.693 132.362 297.945 132.246Z" fill="#B0B3B5"/>
<path d="M299.967 116.677L309.557 123.064C309.766 123.209 309.913 123.422 309.967 123.664C310.022 123.905 309.98 124.157 309.851 124.371C309.722 124.585 309.514 124.746 309.269 124.822C309.023 124.897 308.756 124.883 308.521 124.781L297.945 120.029C297.693 119.913 297.47 119.749 297.287 119.546C297.105 119.344 296.969 119.108 296.886 118.852C296.804 118.597 296.778 118.328 296.809 118.063C296.84 117.797 296.928 117.541 297.068 117.309C297.208 117.078 297.396 116.877 297.62 116.718C297.845 116.559 298.101 116.447 298.374 116.387C298.646 116.328 298.928 116.323 299.202 116.373C299.477 116.422 299.737 116.526 299.967 116.677Z" fill="#B0B3B5"/>
<path d="M315.07 110.568L314.083 121.709C314.058 121.954 313.937 122.182 313.746 122.348C313.555 122.514 313.306 122.606 313.047 122.606C312.789 122.606 312.54 122.514 312.349 122.348C312.157 122.182 312.037 121.954 312.012 121.709L311.024 110.568C311.003 110.302 311.04 110.034 311.133 109.782C311.225 109.53 311.37 109.299 311.56 109.103C311.75 108.907 311.98 108.751 312.236 108.644C312.492 108.537 312.768 108.482 313.047 108.482C313.326 108.482 313.603 108.537 313.858 108.644C314.114 108.751 314.344 108.907 314.534 109.103C314.724 109.299 314.87 109.53 314.962 109.782C315.054 110.034 315.091 110.302 315.07 110.568Z" fill="#B0B3B5"/>
<path d="M328.151 120.029L317.575 124.781C317.339 124.883 317.073 124.898 316.827 124.822C316.581 124.747 316.373 124.586 316.244 124.372C316.115 124.158 316.074 123.906 316.128 123.664C316.183 123.422 316.329 123.209 316.539 123.065L326.128 116.677C326.359 116.526 326.62 116.423 326.894 116.373C327.168 116.323 327.45 116.328 327.723 116.388C327.995 116.447 328.251 116.56 328.476 116.718C328.701 116.877 328.889 117.078 329.028 117.31C329.168 117.541 329.256 117.797 329.287 118.063C329.319 118.328 329.292 118.597 329.21 118.852C329.128 119.108 328.991 119.344 328.809 119.546C328.627 119.749 328.402 119.913 328.151 120.029Z" fill="#B0B3B5"/>
<path d="M326.128 135.599L316.539 129.211C316.329 129.066 316.183 128.853 316.128 128.611C316.074 128.37 316.115 128.118 316.245 127.904C316.374 127.69 316.581 127.529 316.827 127.453C317.073 127.378 317.339 127.392 317.575 127.494L328.151 132.246C328.403 132.362 328.627 132.526 328.809 132.729C328.991 132.931 329.128 133.167 329.211 133.423C329.293 133.678 329.319 133.947 329.288 134.213C329.257 134.478 329.169 134.735 329.029 134.966C328.889 135.198 328.701 135.399 328.477 135.558C328.252 135.716 327.995 135.829 327.723 135.888C327.45 135.948 327.168 135.952 326.894 135.903C326.619 135.853 326.359 135.749 326.128 135.599Z" fill="#B0B3B5"/>
<path d="M789.609 616.252H15.1537V624.154H789.609V616.252Z" fill="#010A3D"/>
</svg>
