<svg width="857" height="629" viewBox="0 0 857 629" fill="none" xmlns="http://www.w3.org/2000/svg">
<path d="M46.2652 479.377C26.2045 483.081 2.51849 489.288 0.167949 501.958C-2.02805 513.797 17.6747 523.488 37.0789 525.114C56.4831 526.741 75.8418 522.925 95.2021 521.115C133.957 517.494 174.673 522.173 208.581 534.148C228.395 541.144 247.16 550.801 269.99 551.97C290.628 553.026 310.265 546.855 330.719 544.877C351.174 542.899 377.3 547.975 380.148 560.452C383.246 574.021 357.014 583.601 352.451 597.015C348.205 609.497 364.86 621.773 384.548 626.142C404.235 630.51 425.964 628.977 446.757 627.386L545.225 619.852C611.439 614.785 679.104 609.459 738.836 591.358C798.568 573.257 849.917 539.641 856.399 499.244C858.913 483.576 853.802 466.6 836.006 455.169C820.975 445.513 799.23 441.096 778.417 437.025C748.772 431.228 719.016 425.414 688.354 422.108C661.104 419.171 633.372 418.242 605.702 417.897C530.306 416.955 454.771 420.332 380.399 427.921C342.373 431.801 304.819 436.919 267.518 442.833C236.375 447.771 205.584 449.962 174.191 455.758L46.2652 479.377Z" fill="#F2E416"/>
<path d="M570.12 463.143C552.291 460.603 517.767 455.81 499.399 453.247L571.17 355.276C584.077 388.198 594.631 422.5 602.708 457.775L596.899 471.82L605.969 487.796L603.859 505.347L613.074 510.611C614.49 519.392 615.605 527.208 616.463 533.839C602.416 534.667 588.384 535.785 574.367 537.195L570.193 464.361L570.12 463.143Z" fill="#010A3D"/>
<path d="M617.075 538.704C602.324 540.105 587.559 541.188 572.779 541.952L570.914 542.068L570.822 539.792L567.907 465.729C550.269 462.704 516.413 456.778 499.045 453.726L454.288 514.831C539.809 557.882 619.103 558.435 619.103 558.435C619.103 558.435 618.6 551.242 617.075 538.704ZM517.682 525.745L513.158 508.923L502.945 498.356L521.994 484.943L520.866 498.356L528.114 506.638L517.682 525.745Z" fill="#010A3D"/>
<path d="M296.805 131.921C296.954 132.216 297.11 132.501 297.259 132.796C297.252 133.188 297.252 133.581 297.245 133.974L296.805 131.921Z" fill="#0597F2"/>
<path d="M329.62 290.623L329.811 290.971C329.804 291.087 329.797 291.212 329.79 291.328L329.62 290.623Z" fill="#0597F2"/>
<path d="M330.371 210.09L330.038 209.447C330.045 209.162 330.052 208.885 330.059 208.608L330.371 210.09Z" fill="#0597F2"/>
<path d="M571.169 355.281L499.399 453.244L499.045 453.726L454.288 514.831C426.786 500.98 398.645 482.739 372.291 458.697L392.51 460.785L363.483 438.715L373.369 428.648L355.93 410.558L350.186 400.679L324.116 405.748C320.131 400.741 316.228 395.711 312.408 390.657C309.131 386.338 305.926 382.012 302.791 377.681C296.6 369.113 290.664 360.537 284.983 351.952C281.161 346.169 277.456 340.389 273.87 334.612C270.289 328.847 266.833 323.09 263.502 317.343C261.835 314.478 260.202 311.614 258.601 308.749C256.197 304.465 253.869 300.196 251.616 295.942C250.112 293.104 248.642 290.275 247.205 287.455C242.9 278.995 238.895 270.633 235.191 262.369C233.957 259.611 232.761 256.871 231.603 254.149C226.609 242.509 222.102 230.549 218.1 218.318V218.309C215.468 210.25 213.216 202.391 211.341 194.731L216.816 187.252L274.147 108.994L292.564 83.8542L294.649 81.0162C294.43 83.881 294.224 86.7189 294.018 89.4409C293.025 103.095 292.189 119.944 291.543 133.706L291.494 134.75L291.983 135.758C300.777 154.036 311.358 173.58 320.719 191.545L330.038 209.447C329.471 230.509 328.456 271.079 328.01 291.632C332.3 298.816 340.683 312.64 345.087 319.94L345.484 319.396L337.669 305.17L329.811 290.971C330.946 270.329 333.073 229.268 334.087 208.849L334.123 208.091L333.775 207.377C325.194 189.858 314.812 168.02 306.287 150.591C303.344 144.603 300.316 138.695 297.259 132.796C297.5 114.697 297.628 95.8486 297.231 77.4911L297.898 76.5808C312.159 80.7039 326.116 86.3435 339.619 93.439C374.086 111.225 412.183 139.435 450.224 176.4C450.611 176.776 450.998 177.164 451.384 177.542C452.841 178.963 454.299 180.397 455.756 181.844C457.6 183.674 459.441 185.527 461.281 187.404H461.288C472.294 198.586 483.235 210.476 494.109 223.075C528.079 262.485 552.978 309.302 571.169 355.281Z" fill="#0597F2"/>
<path d="M292.567 83.8501L216.821 187.258L213.801 183.755C212.171 181.864 211.205 179.236 211.114 176.448C211.024 173.66 211.818 170.942 213.32 168.89L277.734 80.9524C279.237 78.901 281.326 77.6847 283.541 77.5712C285.756 77.4578 287.916 78.4563 289.547 80.3472L292.567 83.8501Z" fill="#010A3D"/>
<path d="M186.805 126.569L242.058 51.136L260.35 93.1119L221.538 146.098L186.805 126.569Z" fill="#010A3D"/>
<path d="M179.423 293.784C170.216 283.131 161.879 271.345 154.537 258.603C178.631 254.188 200.936 240.05 218.097 218.313C231.471 259.51 254.379 305.683 284.982 351.951C249.66 350.434 211.242 330.693 179.423 293.784Z" fill="#010A3D"/>
<path d="M373.849 28.3528C364.663 17.6712 354.651 8.17297 343.962 0C342.424 30.5789 333.038 59.703 317.218 82.9935C350.934 96.4195 389.367 121.398 428.5 156.02C424.427 111.842 405.668 65.2609 373.849 28.3528Z" fill="#010A3D"/>
<path d="M274.589 85.2471L216.466 164.596L212.684 160.209C211.977 159.388 211.405 158.401 211.001 157.303C210.597 156.205 210.369 155.017 210.33 153.808C210.291 152.599 210.442 151.392 210.773 150.256C211.105 149.12 211.611 148.077 212.263 147.187L260.459 81.3899C261.775 79.5929 263.605 78.5275 265.545 78.4281C267.486 78.3287 269.378 79.2034 270.806 80.8598L274.589 85.2471Z" fill="#0597F2"/>
<path d="M449.202 456.787C491.082 456.787 525.032 414.064 525.032 361.363C525.032 308.661 491.082 265.938 449.202 265.938C407.322 265.938 373.371 308.661 373.371 361.363C373.371 414.064 407.322 456.787 449.202 456.787Z" fill="#010A3D"/>
<path d="M449.202 435.269C481.638 435.269 507.933 402.18 507.933 361.362C507.933 320.545 481.638 287.455 449.202 287.455C416.765 287.455 390.47 320.545 390.47 361.362C390.47 402.18 416.765 435.269 449.202 435.269Z" fill="#ACE5F2"/>
<path d="M461.28 187.404L312.407 390.657C309.131 386.337 305.926 382.012 302.791 377.681L345.087 319.94L345.484 319.396L450.224 176.409C452.068 178.194 453.912 180.014 455.756 181.844C457.6 183.673 459.437 185.53 461.28 187.404Z" fill="#010A3D"/>
<path d="M498.541 453.132C498.824 453.167 499.116 453.212 499.399 453.247L499.043 453.73C498.86 453.707 498.677 453.672 498.495 453.638L498.541 453.132Z" fill="#0DD9D9"/>
<path d="M495.053 541.447L472.37 558.936L492.632 558.214L507.189 563.809L514.228 548.495L499.468 548.635L495.053 541.447Z" fill="#010A3D"/>
<path d="M625.992 510.743L639.946 508.153L649.437 492.569L661.808 495.455C648.102 506.735 635.44 516.027 624.684 523.372L625.992 510.743Z" fill="#010A3D"/>
<path d="M365.903 497.74L345.682 495.648C335.57 486.452 325.899 476.512 316.72 465.88C310.116 458.225 303.714 450.498 297.512 442.697L323.579 437.628L329.324 447.513L346.76 465.604L336.877 475.672L365.903 497.74Z" fill="#0597F2"/>
<path d="M296.805 131.921C296.954 132.216 297.11 132.501 297.259 132.796C297.252 133.188 297.252 133.581 297.245 133.974L296.805 131.921Z" fill="#F2E416"/>
<path d="M329.62 290.623L329.811 290.971C329.804 291.087 329.797 291.212 329.79 291.328L329.62 290.623Z" fill="#F2E416"/>
<path d="M330.059 208.608L330.371 210.09L330.038 209.447C330.045 209.162 330.052 208.885 330.059 208.608Z" fill="#F2E416"/>
<path d="M345.683 319.753L345.229 320.172C345.186 320.101 345.137 320.02 345.087 319.94L345.484 319.396L345.683 319.753Z" fill="#F2E416"/>
</svg>
