<svg width="116" height="99" viewBox="0 0 116 99" fill="none" xmlns="http://www.w3.org/2000/svg">
<path d="M101.045 20.396H81.2455V26.1349H84.225C84.7991 26.1349 85.3498 26.3386 85.7557 26.7013C86.1617 27.0641 86.3898 27.556 86.3898 28.069C86.3898 28.5819 86.1617 29.0739 85.7557 29.4366C85.3498 29.7993 84.7991 30.0031 84.225 30.0031H61.2781C60.704 30.0031 60.1533 29.7993 59.7474 29.4366C59.3414 29.0739 59.1133 28.5819 59.1133 28.069C59.1133 27.556 59.3414 27.0641 59.7474 26.7013C60.1533 26.3386 60.704 26.1349 61.2781 26.1349H64.8839V20.396H44.4576C43.1846 20.3954 41.9238 20.619 40.7476 21.0541C39.5713 21.4891 38.5025 22.1269 37.6023 22.9312C36.7021 23.7355 35.9881 24.6904 35.5012 25.7414C35.0143 26.7923 34.764 27.9187 34.7646 29.0561V113.401C34.764 114.539 35.0143 115.665 35.5012 116.716C35.9881 117.767 36.702 118.722 37.6022 119.526C38.5024 120.33 39.5712 120.968 40.7475 121.403C41.9238 121.838 43.1845 122.062 44.4576 122.061H101.045C102.318 122.062 103.579 121.838 104.755 121.402C105.931 120.967 106.999 120.329 107.9 119.525C108.8 118.721 109.514 117.766 110.001 116.716C110.488 115.665 110.739 114.539 110.739 113.401V29.0561C110.739 27.9188 110.488 26.7926 110.001 25.7418C109.514 24.6911 108.8 23.7363 107.9 22.9321C106.999 22.1279 105.931 21.4901 104.755 21.0549C103.579 20.6197 102.318 20.3959 101.045 20.396ZM72.7481 33.2997C73.928 33.2985 75.0818 33.6101 76.0636 34.1949C77.0453 34.7798 77.8108 35.6117 78.2632 36.5853C78.7157 37.559 78.8347 38.6306 78.6053 39.6647C78.3759 40.6989 77.8084 41.6489 76.9745 42.3948C76.1406 43.1407 75.0779 43.6488 73.9207 43.8549C72.7635 44.061 71.5639 43.9558 70.4737 43.5526C69.3834 43.1495 68.4515 42.4664 67.7958 41.59C67.1401 40.7135 66.7902 39.6829 66.7902 38.6287C66.7896 37.2162 67.4169 35.8614 68.5341 34.862C69.6514 33.8627 71.1672 33.3007 72.7481 33.2997ZM84.4378 112.934H61.0648V110.884H84.4378V112.934ZM90.8804 108.124H54.6222V101.081H90.8804V108.124ZM96.9222 94.0428C96.9231 89.9102 95.5969 85.864 93.1011 82.3846C90.6054 78.9051 87.0447 76.1384 82.8418 74.4128H82.8351L72.7481 83.4252L62.6611 74.4128C58.4576 76.1377 54.8964 78.9042 52.4005 82.3838C49.9046 85.8633 48.5787 89.9098 48.5804 94.0426V45.5453H96.9222V94.0428Z" fill="#0DD9D9"/>
<path d="M72.7479 69.6263C78.2858 69.6263 82.7769 64.996 82.7769 59.2861C82.7769 53.5703 78.2858 48.9399 72.7479 48.9399C67.21 48.9399 62.7188 53.5703 62.7188 59.2864C62.7188 64.996 67.21 69.6263 72.7479 69.6263Z" fill="#0DD9D9"/>
<path d="M73.8397 72.467L73.2647 72.4497C73.0966 72.4438 72.9222 72.4438 72.7541 72.4438H72.6894C72.5214 72.4438 72.3542 72.4438 72.1854 72.4497C71.8107 72.4555 71.4359 72.4728 71.0612 72.4959C70.9253 72.507 70.7831 72.5132 70.6476 72.5247C70.5377 72.5358 70.4341 72.5479 70.3248 72.5535C70.202 72.5646 70.0855 72.5825 69.9629 72.594L72.1727 74.5684L70.5508 80.7864L72.7543 82.062L74.9578 80.7864L73.4075 74.5046L75.5464 72.5994C74.9841 72.5362 74.4149 72.4901 73.8397 72.467Z" fill="#0DD9D9"/>
<path d="M80.2049 26.1349V8.12598H65.9243V26.1349V28.0693H80.2049V26.1349Z" fill="#0DD9D9"/>
</svg>
