<svg width="104" height="99" viewBox="0 0 104 99" fill="none" xmlns="http://www.w3.org/2000/svg">
<path d="M76.8444 33.6472C76.1968 61.4206 41.0217 61.4158 40.3772 33.6466C41.0248 5.87377 76.1999 5.87857 76.8444 33.6472Z" fill="#FFD648"/>
<path d="M53.541 60.7423L53.531 60.7323C56.9093 60.3241 60.3248 60.3289 63.7019 60.7465L59.8051 64.6344L62.632 77.4102L58.6216 80.0069L54.6111 77.4102L57.5656 64.7629L53.541 60.7423Z" fill="#FFD648"/>
<path d="M102.56 104.383H14.658C14.6564 95.9712 17.0687 87.7354 21.6085 80.6536C26.1483 73.5719 32.6249 67.9415 40.2694 64.4312L58.6113 82.773L76.9531 64.4312C84.5956 67.9436 91.0703 73.5746 95.609 80.656C100.148 87.7374 102.56 95.9721 102.56 104.383Z" fill="#FFD648"/>
<path d="M59.8052 64.6348L62.632 77.4101L58.6216 80.0068L54.6111 77.4101L57.5657 64.7628L53.5314 60.7328C56.9096 60.3246 60.3251 60.3294 63.7023 60.747L59.8052 64.6348Z" fill="#FFD648"/>
<path d="M63.7019 60.747C62.8303 61.617 59.4234 65.0151 58.6214 65.817C57.9296 65.1259 54.3008 61.5009 53.5315 60.7325C56.9096 60.3246 60.3249 60.3295 63.7019 60.747Z" fill="#FFD648"/>
<path d="M62.6344 77.4099L58.6223 80.0059L54.6102 77.4099L57.5657 64.7619L57.774 63.8779H59.6409L59.8061 64.6349L62.6344 77.4099Z" fill="#FFD648"/>
</svg>
