<svg width="90" height="90" viewBox="0 0 90 90" fill="none" xmlns="http://www.w3.org/2000/svg">
<g clip-path="url(#clip0_1238_25394)">
<path d="M89.9999 19.7262L55.0316 0L14.1457 66.5266L49.1141 86.2528L89.9999 19.7262Z" fill="#1E5CD9"/>
<path d="M83.2439 25.6814L51.2721 77.7038C50.5799 77.3133 49.8143 77.0573 49.0189 76.9504C48.2235 76.8434 47.4139 76.8876 46.6363 77.0804C45.8588 77.2732 45.1284 77.6108 44.4871 78.0741C43.8457 78.5373 43.3058 79.117 42.8983 79.7801L23.0689 68.5939C23.8919 67.2547 24.126 65.6571 23.7196 64.1526C23.3131 62.648 22.2995 61.3598 20.9017 60.5712L52.8736 8.54899C54.2714 9.33751 55.9389 9.56174 57.5093 9.17235C59.0797 8.78297 60.4243 7.81186 61.2474 6.47266L81.0768 17.6587C80.2537 18.9979 80.0196 20.5955 80.4261 22.1C80.8325 23.6046 81.8461 24.8928 83.2439 25.6814Z" fill="#ACE5F2"/>
<path d="M52.0729 55.5401C59.2288 55.5401 65.0298 49.9823 65.0298 43.1265C65.0298 36.2706 59.2288 30.7129 52.0729 30.7129C44.917 30.7129 39.116 36.2706 39.116 43.1265C39.116 49.9823 44.917 55.5401 52.0729 55.5401Z" fill="#1E5CD9"/>
<path d="M43.1127 56.2205L35.0132 69.3994L36.3689 70.1642L44.4683 56.9853L43.1127 56.2205Z" fill="#1E5CD9"/>
<path d="M67.7776 16.0899L59.6779 29.2686L61.0335 30.0333L69.1332 16.8547L67.7776 16.0899Z" fill="#1E5CD9"/>
<path d="M27.7035 59.0706C27.9608 59.2126 28.1996 59.3833 28.4148 59.5793C28.597 59.7435 28.7462 59.9383 28.855 60.1541C28.9508 60.3468 28.9964 60.5589 28.988 60.7722C28.9738 60.9998 28.9006 61.2204 28.775 61.4141C28.6698 61.5907 28.5256 61.7432 28.3526 61.8609C28.1808 61.9739 27.9818 62.043 27.7743 62.0616C27.5265 62.0815 27.2771 62.0553 27.0397 61.9845C26.7271 61.8928 26.4279 61.7638 26.1489 61.6005C25.8912 61.4582 25.6524 61.2867 25.4376 61.0896C25.2555 60.9247 25.1059 60.7298 24.996 60.5141C24.8996 60.3215 24.8539 60.1093 24.8631 59.8959C24.8773 59.6689 24.9502 59.4488 25.0752 59.2555C25.1804 59.0789 25.3245 58.9264 25.4975 58.8087C25.6697 58.6955 25.8693 58.6266 26.0773 58.6085C26.3256 58.5894 26.5754 58.616 26.8133 58.6868C27.1257 58.7784 27.4247 58.9074 27.7035 59.0706ZM26.4202 61.1223C26.4777 61.1547 26.5354 61.1867 26.5933 61.2182C26.6512 61.2497 26.7087 61.2779 26.7658 61.3028L26.5341 59.189C26.4291 59.1632 26.3216 59.1483 26.2133 59.1445C26.115 59.141 26.0166 59.1521 25.9218 59.1773C25.7608 59.2244 25.6196 59.3195 25.519 59.4488C25.4183 59.578 25.3634 59.7347 25.3622 59.896C25.3656 60.0388 25.4066 60.1785 25.4813 60.3021C25.5747 60.4573 25.6935 60.597 25.8333 60.7159C26.0134 60.8709 26.2101 61.0071 26.4202 61.1223ZM27.4322 59.5488C27.3692 59.5133 27.3053 59.4802 27.2404 59.4496C27.1756 59.4191 27.112 59.3897 27.0494 59.3616L27.2865 61.4785C27.3942 61.5054 27.5045 61.5219 27.6156 61.5277C27.7168 61.5335 27.8184 61.5236 27.9162 61.4983C28.0091 61.4741 28.0964 61.4333 28.1735 61.378C28.2563 61.3172 28.3255 61.2409 28.3769 61.1539C28.4493 61.0391 28.4875 60.9074 28.4872 60.7732C28.484 60.6308 28.4435 60.4915 28.3694 60.3681C28.2767 60.2131 28.1583 60.0737 28.0188 59.9551C27.8389 59.8001 27.6422 59.6639 27.4322 59.5488Z" fill="#1E5CD9"/>
<path d="M29.5461 56.0721C29.8034 56.2141 30.0422 56.3848 30.2575 56.5808C30.4396 56.745 30.5889 56.9398 30.6977 57.1556C30.7934 57.3483 30.839 57.5604 30.8306 57.7737C30.8164 58.0013 30.7432 58.2219 30.6177 58.4156C30.5124 58.5922 30.3683 58.7447 30.1952 58.8624C30.0235 58.9754 29.8244 59.0445 29.617 59.0631C29.3692 59.083 29.1197 59.0568 28.8823 58.986C28.5698 58.8942 28.2705 58.7652 27.9916 58.602C27.7339 58.4597 27.495 58.2882 27.2802 58.091C27.0981 57.9262 26.9486 57.7312 26.8386 57.5155C26.7422 57.323 26.6966 57.1108 26.7057 56.8974C26.72 56.6704 26.7928 56.4503 26.9178 56.2569C27.023 56.0804 27.1672 55.9279 27.3402 55.8102C27.5124 55.697 27.712 55.6281 27.9199 55.61C28.1682 55.5909 28.418 55.6175 28.6559 55.6883C28.9683 55.7799 29.2674 55.9088 29.5461 56.0721ZM28.2628 58.1238C28.3203 58.1562 28.378 58.1882 28.4359 58.2197C28.4939 58.2512 28.5514 58.2794 28.6085 58.3043L28.3768 56.1905C28.2718 56.1647 28.1643 56.1498 28.056 56.146C27.9576 56.1425 27.8593 56.1535 27.7644 56.1788C27.6034 56.2259 27.4623 56.3209 27.3616 56.4502C27.261 56.5795 27.206 56.7362 27.2048 56.8975C27.2082 57.0403 27.2492 57.18 27.3239 57.3036C27.4173 57.4587 27.5362 57.5985 27.676 57.7174C27.856 57.8724 28.0527 58.0086 28.2628 58.1238ZM29.2748 56.5502C29.2118 56.5147 29.1479 56.4817 29.0831 56.4511C29.0183 56.4205 28.9546 56.3912 28.8921 56.363L29.1292 58.4799C29.2369 58.5069 29.3471 58.5234 29.4583 58.5292C29.5595 58.535 29.661 58.525 29.7589 58.4997C29.8517 58.4756 29.939 58.4348 30.0161 58.3797C30.099 58.3188 30.1681 58.2426 30.2195 58.1555C30.292 58.0407 30.3301 57.909 30.3298 57.7749C30.3266 57.6325 30.2861 57.4932 30.212 57.3697C30.1193 57.2148 30.0009 57.0753 29.8614 56.9568C29.6815 56.8017 29.4848 56.6654 29.2748 56.5502Z" fill="#1E5CD9"/>
<path d="M76.2526 27.1015C76.5099 27.2434 76.7486 27.4141 76.9638 27.6101C77.1459 27.7743 77.2951 27.9691 77.404 28.1849C77.4998 28.3776 77.5454 28.5897 77.5369 28.803C77.5228 29.0306 77.4496 29.2513 77.324 29.445C77.2188 29.6216 77.0747 29.7741 76.9016 29.8918C76.7298 30.0048 76.5307 30.0738 76.3233 30.0924C76.0755 30.1123 75.826 30.0861 75.5886 30.0153C75.2761 29.9235 74.9768 29.7945 74.6979 29.6312C74.4402 29.489 74.2013 29.3175 73.9865 29.1204C73.8044 28.9555 73.6548 28.7605 73.5449 28.5448C73.4485 28.3523 73.4029 28.14 73.412 27.9267C73.4263 27.6997 73.4992 27.4796 73.6241 27.2862C73.7293 27.1097 73.8735 26.9572 74.0465 26.8395C74.2187 26.7263 74.4183 26.6574 74.6262 26.6393C74.8745 26.6202 75.1244 26.6468 75.3622 26.7176C75.6747 26.8092 75.9739 26.9382 76.2526 27.1015ZM74.9693 29.1531C75.0268 29.1856 75.0845 29.2175 75.1425 29.249C75.2004 29.2805 75.2579 29.3087 75.315 29.3336L75.0833 27.2198C74.9783 27.194 74.8708 27.1791 74.7625 27.1753C74.6641 27.1718 74.5658 27.1829 74.471 27.2081C74.3099 27.2552 74.1688 27.3503 74.0681 27.4795C73.9675 27.6088 73.9125 27.7655 73.9113 27.9268C73.9148 28.0697 73.9557 28.2093 74.0305 28.333C74.1239 28.4881 74.2427 28.6278 74.3825 28.7468C74.5626 28.9017 74.7593 29.0379 74.9693 29.1531ZM75.9813 27.5796C75.9183 27.544 75.8544 27.511 75.7896 27.4804C75.7248 27.4498 75.6611 27.4205 75.5986 27.3923L75.8357 29.5093C75.9434 29.5362 76.0537 29.5527 76.1648 29.5585C76.266 29.5643 76.3675 29.5544 76.4654 29.5291C76.5583 29.5049 76.6455 29.4642 76.7227 29.409C76.8055 29.3482 76.8747 29.2719 76.926 29.1848C76.9987 29.07 77.0369 28.9383 77.0366 28.804C77.0334 28.6617 76.9929 28.5224 76.9188 28.399C76.8261 28.244 76.7077 28.1045 76.5682 27.986C76.3882 27.8309 76.1915 27.6947 75.9813 27.5796Z" fill="#1E5CD9"/>
<path d="M78.0952 24.1034C78.3525 24.2454 78.5913 24.4161 78.8065 24.612C78.9887 24.7763 79.1379 24.9711 79.2468 25.1868C79.3426 25.3796 79.3882 25.5917 79.3797 25.805C79.3655 26.0326 79.2924 26.2532 79.1668 26.447C79.0616 26.6236 78.9175 26.776 78.7444 26.8937C78.5726 27.0067 78.3735 27.0758 78.166 27.0944C77.9183 27.1142 77.6688 27.088 77.4314 27.0172C77.1188 26.9255 76.8196 26.7965 76.5407 26.6332C76.283 26.491 76.0441 26.3194 75.8293 26.1223C75.6472 25.9574 75.4976 25.7625 75.3877 25.5468C75.2913 25.3543 75.2456 25.142 75.2548 24.9287C75.269 24.7017 75.3419 24.4816 75.4668 24.2882C75.5721 24.1116 75.7162 23.9592 75.8893 23.8414C76.0614 23.7283 76.2611 23.6593 76.469 23.6413C76.7173 23.6221 76.9671 23.6487 77.205 23.7196C77.5174 23.8112 77.8165 23.9401 78.0952 24.1034ZM76.8119 26.1552C76.8694 26.1876 76.9271 26.2196 76.985 26.2512C77.043 26.2827 77.1005 26.3109 77.1575 26.3357L76.9258 24.222C76.8209 24.1962 76.7133 24.1812 76.605 24.1774C76.5067 24.1739 76.4084 24.185 76.3135 24.2102C76.2227 24.2349 76.1375 24.2755 76.0621 24.33C75.9676 24.4016 75.8908 24.4926 75.8375 24.5962C75.7842 24.6998 75.7556 24.8135 75.7539 24.929C75.7573 25.0718 75.7983 25.2114 75.873 25.3351C75.9664 25.4902 76.0853 25.6299 76.225 25.7489C76.4051 25.9038 76.6018 26.0401 76.8119 26.1552ZM77.8238 24.5817C77.7609 24.5462 77.697 24.5132 77.6322 24.4825C77.5674 24.4519 77.5037 24.4226 77.4411 24.3945L77.6782 26.5114C77.7859 26.5383 77.8962 26.5548 78.0073 26.5606C78.1085 26.5664 78.21 26.5565 78.3079 26.5312C78.4008 26.507 78.4881 26.4662 78.5652 26.411C78.648 26.3501 78.7172 26.2739 78.7685 26.1868C78.8411 26.072 78.8792 25.9403 78.8788 25.8061C78.8757 25.6638 78.8352 25.5245 78.761 25.4011C78.6683 25.2461 78.5499 25.1066 78.4105 24.9881C78.2306 24.833 78.0339 24.6968 77.8238 24.5817Z" fill="#1E5CD9"/>
<path d="M67.5607 10.2981L28.0913 1.26562L9.36996 76.3554L48.8394 85.3879L67.5607 10.2981Z" fill="#1E5CD9"/>
<path d="M62.9249 17.8899L48.2853 76.6085C47.5041 76.4297 46.6938 76.4001 45.9006 76.5213C45.1074 76.6426 44.347 76.9123 43.6626 77.3152C42.9782 77.718 42.3834 78.246 41.912 78.8691C41.4407 79.4922 41.102 80.1981 40.9154 80.9465L18.5337 75.8244C18.7203 75.0759 18.7512 74.2996 18.6246 73.5397C18.4981 72.7798 18.2165 72.0512 17.7961 71.3955C17.3756 70.7399 16.8245 70.17 16.1741 69.7184C15.5238 69.2668 14.787 68.9423 14.0057 68.7635L28.6454 10.0451C30.2231 10.4061 31.8859 10.1519 33.268 9.33832C34.6501 8.52479 35.6382 7.21858 36.0151 5.70703L58.3968 10.8292C58.02 12.3408 58.2854 13.9339 59.1346 15.258C59.9838 16.5821 61.3472 17.5288 62.9249 17.8899Z" fill="#ACE5F2"/>
<path d="M38.4654 55.7403C45.6213 55.7403 51.4223 50.1825 51.4223 43.3267C51.4223 36.4708 45.6213 30.9131 38.4654 30.9131C31.3094 30.9131 25.5084 36.4708 25.5084 43.3267C25.5084 50.1825 31.3094 55.7403 38.4654 55.7403Z" fill="#1E5CD9"/>
<path d="M33.9078 58.363L30.1991 73.2383L31.7293 73.5885L35.4379 58.7132L33.9078 58.363Z" fill="#1E5CD9"/>
<path d="M45.2015 13.0652L41.4928 27.9404L43.023 28.2906L46.7317 13.4153L45.2015 13.0652Z" fill="#1E5CD9"/>
<path d="M20.0487 65.4176C20.3381 65.481 20.6186 65.5771 20.8843 65.704C21.1088 65.8098 21.311 65.9541 21.4812 66.1298C21.6317 66.2872 21.7402 66.4771 21.7974 66.6834C21.8536 66.905 21.8511 67.1365 21.7904 67.3569C21.7438 67.5553 21.6527 67.7416 21.5233 67.9028C21.3937 68.0591 21.2246 68.181 21.032 68.2572C20.8011 68.3457 20.5546 68.3907 20.3059 68.3897C19.9791 68.3898 19.6535 68.3506 19.3368 68.2729C19.0469 68.2093 18.766 68.1125 18.5002 67.9844C18.2757 67.878 18.073 67.7336 17.9019 67.5583C17.7507 67.4013 17.6421 67.2112 17.5856 67.0047C17.5297 66.7837 17.532 66.5528 17.5922 66.3328C17.6388 66.1344 17.7299 65.9482 17.8593 65.787C17.9892 65.6304 18.159 65.5085 18.3522 65.4327C18.5838 65.3447 18.8307 65.2999 19.0799 65.3008C19.4067 65.3005 19.7322 65.3397 20.0487 65.4176ZM19.45 67.7396C19.5149 67.7545 19.5798 67.7688 19.6449 67.7827C19.7099 67.7965 19.7735 67.8073 19.8357 67.815L18.9671 65.8594C18.8588 65.8642 18.7514 65.8802 18.6467 65.907C18.5516 65.9312 18.461 65.9694 18.3781 66.0203C18.2988 66.0693 18.2298 66.1321 18.1744 66.2054C18.1059 66.3004 18.0604 66.4089 18.0411 66.523C18.0219 66.637 18.0294 66.7537 18.0631 66.8646C18.1101 67.0002 18.1921 67.1222 18.3013 67.2193C18.4381 67.3415 18.5945 67.4417 18.7646 67.516C18.9841 67.6136 19.2139 67.6885 19.45 67.7396ZM19.9357 65.9509C19.8647 65.9347 19.7935 65.921 19.7221 65.91C19.6508 65.8989 19.5809 65.8887 19.5125 65.8794L20.3874 67.8366C20.4986 67.8321 20.6091 67.8169 20.7171 67.7912C20.8157 67.7683 20.9097 67.7303 20.9955 67.6786C21.0769 67.6293 21.1478 67.5658 21.2047 67.4914C21.2652 67.4099 21.308 67.3175 21.3305 67.2199C21.3646 67.0897 21.3607 66.9531 21.3194 66.825C21.2728 66.6897 21.1914 66.568 21.0827 66.4708C20.9467 66.3487 20.7908 66.2486 20.6212 66.1745C20.4016 66.0768 20.1718 66.0019 19.9357 65.9509Z" fill="#1E5CD9"/>
<path d="M20.8925 62.0333C21.1819 62.0967 21.4624 62.1929 21.7281 62.3197C21.9525 62.4255 22.1548 62.5699 22.3249 62.7455C22.4754 62.9029 22.5839 63.0928 22.6412 63.2991C22.6974 63.5207 22.6949 63.7522 22.6342 63.9727C22.5876 64.1711 22.4965 64.3574 22.3671 64.5185C22.2374 64.6748 22.0683 64.7968 21.8757 64.8729C21.6449 64.9615 21.3984 65.0065 21.1497 65.0054C20.8228 65.0056 20.4973 64.9664 20.1806 64.8887C19.8906 64.8251 19.6097 64.7282 19.344 64.6002C19.1194 64.4937 18.9167 64.3493 18.7456 64.174C18.5945 64.0171 18.4859 63.827 18.4293 63.6205C18.3734 63.3994 18.3757 63.1686 18.436 62.9486C18.4825 62.7502 18.5737 62.5639 18.7031 62.4028C18.833 62.2462 19.0027 62.1242 19.196 62.0485C19.4275 61.9604 19.6745 61.9156 19.9236 61.9165C20.2504 61.9163 20.5759 61.9555 20.8925 62.0333ZM20.2937 64.3553C20.3586 64.3702 20.4235 64.3845 20.4886 64.3982C20.5536 64.412 20.6172 64.4228 20.6794 64.4306L19.8108 62.4749C19.7025 62.4797 19.5951 62.4957 19.4905 62.5225C19.3954 62.5467 19.3047 62.585 19.2218 62.6358C19.0823 62.726 18.9765 62.8566 18.9198 63.0085C18.8632 63.1604 18.8586 63.3256 18.9068 63.4802C18.9538 63.6157 19.0358 63.7378 19.145 63.8349C19.2818 63.957 19.4382 64.0572 19.6083 64.1316C19.8279 64.2292 20.0576 64.3042 20.2937 64.3553ZM20.7795 62.5666C20.7084 62.5504 20.6372 62.5368 20.5659 62.5257C20.4946 62.5147 20.4247 62.5045 20.3562 62.4952L21.2312 64.4523C21.3424 64.4478 21.4528 64.4326 21.5609 64.4069C21.6594 64.3841 21.7534 64.346 21.8392 64.2943C21.9206 64.2451 21.9916 64.1815 22.0484 64.1071C22.1089 64.0256 22.1517 63.9333 22.1742 63.8356C22.2083 63.7055 22.2045 63.5689 22.1631 63.4407C22.1165 63.3055 22.0351 63.1837 21.9265 63.0866C21.7904 62.9644 21.6345 62.8644 21.4649 62.7902C21.2454 62.6926 21.0156 62.6176 20.7795 62.5666Z" fill="#1E5CD9"/>
<path d="M56.6757 21.212C56.9651 21.2755 57.2456 21.3716 57.5113 21.4984C57.7357 21.6043 57.938 21.7486 58.1081 21.9243C58.2587 22.0816 58.3672 22.2715 58.4244 22.4778C58.4806 22.6994 58.4782 22.931 58.4174 23.1515C58.3709 23.3498 58.2798 23.5361 58.1504 23.6973C58.0207 23.8535 57.8516 23.9755 57.6589 24.0516C57.4281 24.1402 57.1816 24.1852 56.9329 24.1842C56.606 24.1843 56.2804 24.1451 55.9638 24.0674C55.6738 24.0038 55.3929 23.9069 55.1272 23.7789C54.9026 23.6724 54.6999 23.5281 54.5288 23.3527C54.3777 23.1958 54.2691 23.0057 54.2125 22.7992C54.1566 22.5781 54.1589 22.3473 54.2192 22.1273C54.2657 21.9289 54.3568 21.7426 54.4862 21.5815C54.6162 21.4249 54.7859 21.3029 54.9792 21.2272C55.2107 21.1392 55.4577 21.0944 55.7068 21.0952C56.0336 21.095 56.3591 21.1342 56.6757 21.212ZM56.0769 23.5341C56.1418 23.5489 56.2068 23.5632 56.2718 23.5769C56.3368 23.5907 56.4004 23.6015 56.4626 23.6093L55.594 21.6536C55.4858 21.6584 55.3784 21.6744 55.2737 21.7012C55.1787 21.7255 55.0881 21.7637 55.0053 21.8145C54.8657 21.9047 54.7599 22.0353 54.7033 22.1872C54.6466 22.3391 54.6421 22.5043 54.6903 22.6589C54.7373 22.7944 54.8192 22.9165 54.9285 23.0137C55.0653 23.1357 55.2217 23.2359 55.3917 23.3104C55.6113 23.4079 55.8409 23.4829 56.0769 23.5341ZM56.5627 21.7454C56.4916 21.7291 56.4204 21.7154 56.3491 21.7044C56.2778 21.6934 56.2079 21.6833 56.1394 21.6739L57.0144 23.6311C57.1256 23.6265 57.2361 23.6113 57.3441 23.5856C57.4426 23.5628 57.5367 23.5248 57.6225 23.473C57.7039 23.4238 57.7748 23.3603 57.8316 23.2858C57.8922 23.2044 57.935 23.112 57.9574 23.0143C57.9916 22.8842 57.9878 22.7476 57.9463 22.6194C57.8997 22.4842 57.8184 22.3624 57.7097 22.2653C57.5736 22.1432 57.4178 22.0431 57.2481 21.9689C57.0286 21.8713 56.7988 21.7964 56.5627 21.7454Z" fill="#1E5CD9"/>
<path d="M57.5195 17.8278C57.8089 17.8913 58.0894 17.9874 58.3551 18.1143C58.5795 18.2201 58.7818 18.3644 58.9519 18.5401C59.1025 18.6974 59.211 18.8874 59.2682 19.0937C59.3244 19.3153 59.322 19.5468 59.2612 19.7673C59.2147 19.9656 59.1236 20.1519 58.9942 20.3131C58.8645 20.4694 58.6953 20.5913 58.5027 20.6674C58.2718 20.756 58.0253 20.801 57.7766 20.8C57.4498 20.8001 57.1242 20.7609 56.8076 20.6832C56.5176 20.6196 56.2367 20.5228 55.9709 20.3947C55.7464 20.2883 55.5437 20.1439 55.3726 19.9686C55.2214 19.8116 55.1128 19.6215 55.0563 19.415C55.0004 19.1939 55.0027 18.9631 55.0629 18.7431C55.1095 18.5447 55.2006 18.3584 55.33 18.1973C55.46 18.0407 55.6297 17.9187 55.823 17.843C56.0544 17.7549 56.3013 17.7101 56.5504 17.7109C56.8772 17.7107 57.2029 17.75 57.5195 17.8278ZM56.9207 20.1499C56.9856 20.1648 57.0505 20.1791 57.1156 20.1929C57.1806 20.2068 57.2442 20.2176 57.3064 20.2253L56.4378 18.2696C56.3295 18.2744 56.2221 18.2904 56.1175 18.3172C56.0224 18.3415 55.9319 18.3797 55.849 18.4305C55.7698 18.4796 55.7007 18.5424 55.6454 18.6156C55.5769 18.7107 55.5313 18.8191 55.5121 18.9332C55.4928 19.0472 55.5003 19.1639 55.5341 19.2748C55.581 19.4104 55.663 19.5324 55.7723 19.6296C55.909 19.7517 56.0655 19.8519 56.2355 19.9263C56.455 20.0238 56.6847 20.0988 56.9207 20.1499ZM57.4065 18.3612C57.3354 18.345 57.2641 18.3313 57.1928 18.3202C57.1215 18.3092 57.0516 18.299 56.9832 18.2897L57.8582 20.2469C57.9694 20.2423 58.0798 20.2271 58.1879 20.2014C58.2864 20.1786 58.3804 20.1406 58.4662 20.0889C58.5476 20.0396 58.6186 19.9761 58.6754 19.9016C58.736 19.8202 58.7788 19.7278 58.8012 19.6301C58.8354 19.5 58.8315 19.3634 58.7901 19.2352C58.7435 19.1 58.6621 18.9782 58.5535 18.8811C58.4174 18.759 58.2615 18.6589 58.0919 18.5848C57.8724 18.4871 57.6426 18.4122 57.4065 18.3612Z" fill="#1E5CD9"/>
<path d="M40.3454 9.07149L0 13.2437L8.6475 90.0001L48.9929 85.8279L40.3454 9.07149Z" fill="#1E5CD9"/>
<path d="M38.6355 17.7131L45.3976 77.735C43.7849 77.9018 42.3073 78.6755 41.29 79.886C40.2727 81.0965 39.799 82.6446 39.973 84.1897L17.0945 86.5558C17.0084 85.7907 16.7657 85.0494 16.3805 84.3741C15.9952 83.6989 15.475 83.1029 14.8493 82.6203C14.2237 82.1377 13.505 81.7779 12.7342 81.5614C11.9634 81.3449 11.1557 81.276 10.3571 81.3586L3.59509 21.3366C4.39366 21.2541 5.16742 21.0216 5.87221 20.6525C6.577 20.2834 7.19902 19.785 7.70274 19.1856C8.20646 18.5862 8.58202 17.8977 8.80798 17.1592C9.03395 16.4208 9.10588 15.6469 9.01968 14.8819L31.8982 12.5161C32.0723 14.0612 32.88 15.4768 34.1434 16.4514C35.4069 17.426 37.0228 17.8799 38.6355 17.7131Z" fill="#ACE5F2"/>
<path d="M24.4964 61.9493C31.6523 61.9493 37.4533 56.3915 37.4533 49.5357C37.4533 42.6798 31.6523 37.1221 24.4964 37.1221C17.3404 37.1221 11.5394 42.6798 11.5394 49.5357C11.5394 56.3915 17.3404 61.9493 24.4964 61.9493Z" fill="#1E5CD9"/>
<path d="M25.4661 65.1657L27.1792 80.3711L28.7433 80.2093L27.0303 65.0039L25.4661 65.1657Z" fill="#1E5CD9"/>
<path d="M20.2496 18.862L21.9626 34.0674L23.5268 33.9056L21.8137 18.7002L20.2496 18.862Z" fill="#1E5CD9"/>
<path d="M14.8791 76.2643C15.1739 76.2311 15.4718 76.2316 15.7665 76.2657C16.015 76.2933 16.2561 76.3642 16.4779 76.4751C16.6748 76.575 16.8435 76.7192 16.9696 76.8951C17.1001 77.0859 17.1788 77.3048 17.1987 77.532C17.2244 77.7339 17.2037 77.9387 17.1382 78.1321C17.0708 78.321 16.9541 78.4902 16.7993 78.6238C16.6129 78.7814 16.3964 78.9031 16.1618 78.982C15.8539 79.0872 15.5334 79.1548 15.2079 79.1834C14.9125 79.2167 14.6139 79.2157 14.3187 79.1805C14.0699 79.1523 13.8284 79.0815 13.6058 78.9713C13.4085 78.8719 13.2396 78.7277 13.1141 78.5512C12.9841 78.3609 12.9054 78.1427 12.8852 77.9161C12.8596 77.7142 12.8802 77.5094 12.9457 77.316C13.0133 77.1268 13.1305 76.9573 13.2861 76.8239C13.4734 76.6666 13.6904 76.545 13.9254 76.4658C14.2332 76.3605 14.5536 76.2928 14.8791 76.2643ZM15.1278 78.6443C15.1941 78.6374 15.2603 78.6301 15.3265 78.6222C15.3926 78.6144 15.4563 78.6041 15.5176 78.5914L14.0147 77.0281C13.9144 77.0674 13.8188 77.1169 13.7296 77.1758C13.6485 77.2292 13.5765 77.2942 13.5161 77.3687C13.4163 77.4985 13.3623 77.6555 13.3621 77.8168C13.3619 77.9781 13.4154 78.1353 13.5149 78.2654C13.6067 78.378 13.7266 78.4666 13.8635 78.523C14.0351 78.5941 14.2176 78.6383 14.4038 78.6537C14.6448 78.6751 14.8875 78.6719 15.1278 78.6443ZM14.9593 76.8031C14.8866 76.8106 14.8148 76.8206 14.7437 76.8331C14.6727 76.8455 14.6033 76.8584 14.5356 76.8717L16.0449 78.4344C16.1481 78.3944 16.2469 78.3445 16.3396 78.2856C16.4245 78.2324 16.4997 78.1664 16.5625 78.0901C16.6219 78.0175 16.6665 77.9349 16.694 77.8465C16.7225 77.7503 16.7305 77.6496 16.7175 77.5504C16.7041 77.4167 16.6527 77.2892 16.5688 77.1817C16.4775 77.0693 16.3582 76.9807 16.2219 76.9241C16.051 76.8528 15.8691 76.8086 15.6833 76.7933C15.4423 76.7719 15.1996 76.7752 14.9593 76.8031Z" fill="#1E5CD9"/>
<path d="M14.4893 72.8049C14.7841 72.7716 15.082 72.7721 15.3768 72.8062C15.6252 72.8338 15.8663 72.9048 16.0881 73.0156C16.285 73.1156 16.4537 73.2597 16.5798 73.4357C16.7103 73.6264 16.7891 73.8453 16.809 74.0725C16.8346 74.2744 16.8139 74.4792 16.7484 74.6726C16.681 74.8615 16.5644 75.0308 16.4096 75.1643C16.2231 75.322 16.0066 75.4436 15.772 75.5225C15.4641 75.6277 15.1436 75.6954 14.8181 75.724C14.5227 75.7572 14.2241 75.7562 13.9289 75.721C13.6801 75.6928 13.4387 75.622 13.2161 75.5118C13.0187 75.4124 12.8499 75.2682 12.7243 75.0917C12.5943 74.9015 12.5156 74.6832 12.4954 74.4566C12.4698 74.2548 12.4904 74.05 12.5559 73.8565C12.6236 73.6673 12.7408 73.4978 12.8963 73.3644C13.0836 73.2071 13.3006 73.0855 13.5356 73.0063C13.8434 72.901 14.1638 72.8333 14.4893 72.8049ZM14.7381 75.1848C14.8044 75.1779 14.8706 75.1706 14.9367 75.1628C15.0028 75.1549 15.0665 75.1447 15.1278 75.1319L13.6249 73.5686C13.5246 73.6079 13.429 73.6574 13.3398 73.7163C13.2587 73.7697 13.1867 73.8348 13.1264 73.9092C13.0265 74.0391 12.9725 74.1961 12.9723 74.3574C12.9721 74.5187 13.0257 74.6758 13.1252 74.8059C13.2169 74.9185 13.3368 75.0071 13.4738 75.0636C13.6454 75.1346 13.8278 75.1788 14.014 75.1943C14.2551 75.2156 14.4978 75.2125 14.7381 75.1848ZM14.5695 73.3436C14.4969 73.3511 14.425 73.3611 14.354 73.3736C14.2829 73.3861 14.2135 73.3989 14.1458 73.4122L15.6552 74.9749C15.7584 74.9349 15.8571 74.8851 15.9499 74.8262C16.0347 74.773 16.11 74.7069 16.1727 74.6306C16.2321 74.5581 16.2768 74.4754 16.3042 74.3871C16.3327 74.2908 16.3407 74.1901 16.3277 74.0909C16.3143 73.9573 16.2629 73.8298 16.179 73.7223C16.0878 73.6099 15.9685 73.5213 15.8321 73.4646C15.6612 73.3933 15.4793 73.3491 15.2935 73.3338C15.0525 73.3124 14.8098 73.3157 14.5695 73.3436Z" fill="#1E5CD9"/>
<path d="M33.9112 22.8508C34.206 22.8175 34.5039 22.818 34.7987 22.8521C35.0471 22.8797 35.2882 22.9507 35.51 23.0615C35.7069 23.1614 35.8757 23.3055 36.0017 23.4816C36.1322 23.6723 36.211 23.8912 36.231 24.1184C36.2566 24.3203 36.2359 24.525 36.1704 24.7185C36.103 24.9073 35.9863 25.0766 35.8315 25.2102C35.645 25.3678 35.4285 25.4894 35.1939 25.5684C34.886 25.6735 34.5655 25.7412 34.24 25.7698C33.9446 25.8031 33.646 25.8021 33.3508 25.7669C33.102 25.7387 32.8605 25.6678 32.6379 25.5576C32.4406 25.4583 32.2718 25.314 32.1462 25.1376C32.0162 24.9473 31.9375 24.729 31.9173 24.5024C31.8917 24.3006 31.9123 24.0958 31.9778 23.9024C32.0454 23.7131 32.1626 23.5436 32.3182 23.4102C32.5055 23.2529 32.7225 23.1313 32.9575 23.0521C33.2653 22.9468 33.5857 22.8792 33.9112 22.8508ZM34.16 25.2307C34.2263 25.2238 34.2925 25.2165 34.3586 25.2087C34.4246 25.2008 34.4884 25.1906 34.5497 25.1778L33.0468 23.6145C32.9465 23.6538 32.8509 23.7033 32.7617 23.7622C32.6806 23.8156 32.6086 23.8806 32.5483 23.9551C32.4908 24.0269 32.4477 24.1083 32.4212 24.1951C32.3899 24.3067 32.385 24.4235 32.4068 24.5371C32.4285 24.6507 32.4765 24.7583 32.5471 24.8519C32.6388 24.9645 32.7587 25.0532 32.8957 25.1096C33.0673 25.1807 33.2497 25.2248 33.4359 25.2403C33.677 25.2616 33.9197 25.2584 34.16 25.2307ZM33.9914 23.3895C33.9188 23.397 33.8469 23.407 33.7759 23.4195C33.7048 23.432 33.6354 23.4448 33.5677 23.4581L35.0771 25.0208C35.1803 24.9808 35.279 24.931 35.3718 24.8721C35.4566 24.8189 35.5319 24.7528 35.5946 24.6765C35.654 24.604 35.6986 24.5213 35.7261 24.433C35.7547 24.3368 35.7627 24.236 35.7496 24.1368C35.7363 24.0032 35.6848 23.8756 35.6009 23.7682C35.5097 23.6558 35.3904 23.5672 35.254 23.5105C35.0831 23.4392 34.9012 23.395 34.7154 23.3797C34.4744 23.3583 34.2317 23.3616 33.9914 23.3895Z" fill="#1E5CD9"/>
<path d="M33.5214 19.3913C33.8163 19.3581 34.1142 19.3585 34.4089 19.3926C34.6574 19.4202 34.8985 19.4912 35.1202 19.602C35.3172 19.7019 35.4859 19.8461 35.612 20.0221C35.7425 20.2128 35.8213 20.4317 35.8412 20.6589C35.8668 20.8608 35.8462 21.0656 35.7807 21.259C35.7132 21.4479 35.5965 21.6171 35.4417 21.7507C35.2552 21.9083 35.0387 22.03 34.8041 22.1089C34.4962 22.2141 34.1758 22.2818 33.8503 22.3103C33.5548 22.3436 33.2563 22.3426 32.9611 22.3074C32.7122 22.2792 32.4708 22.2084 32.2482 22.0982C32.0508 21.9988 31.882 21.8546 31.7564 21.6781C31.6264 21.4878 31.5478 21.2696 31.5275 21.043C31.5019 20.8411 31.5226 20.6364 31.5881 20.4429C31.6557 20.2537 31.7729 20.0842 31.9284 19.9508C32.1157 19.7935 32.3327 19.6719 32.5677 19.5927C32.8755 19.4874 33.196 19.4197 33.5214 19.3913ZM33.7702 21.7712C33.8365 21.7644 33.9027 21.757 33.9688 21.7492C34.035 21.7414 34.0986 21.7311 34.1599 21.7184L32.657 20.155C32.5567 20.1943 32.4612 20.2439 32.3719 20.3027C32.2908 20.3561 32.2188 20.4212 32.1585 20.4956C32.0586 20.6254 32.0047 20.7825 32.0044 20.9437C32.0042 21.105 32.0578 21.2622 32.1573 21.3923C32.249 21.5049 32.3689 21.5935 32.5059 21.65C32.6775 21.721 32.8599 21.7652 33.0462 21.7806C33.2872 21.8021 33.5299 21.7988 33.7702 21.7712ZM33.6017 19.93C33.529 19.9376 33.4571 19.9476 33.3861 19.96C33.3151 19.9725 33.2457 19.9853 33.1779 19.9986L34.6873 21.5613C34.7905 21.5213 34.8892 21.4715 34.982 21.4126C35.0668 21.3594 35.1421 21.2935 35.2048 21.2172C35.2643 21.1447 35.3089 21.0621 35.3363 20.9737C35.3649 20.8775 35.3729 20.7768 35.3598 20.6775C35.3465 20.5439 35.2951 20.4164 35.2111 20.3089C35.1199 20.1965 35.0006 20.1079 34.8642 20.0513C34.6933 19.98 34.5114 19.9358 34.3257 19.9204C34.0847 19.899 33.8419 19.9021 33.6017 19.93Z" fill="#1E5CD9"/>
</g>
<defs>
<clipPath id="clip0_1238_25394">
<rect width="90" height="90" fill="white"/>
</clipPath>
</defs>
</svg>
