<svg width="90" height="90" viewBox="0 0 90 90" fill="none" xmlns="http://www.w3.org/2000/svg">
<g clip-path="url(#clip0_1238_25837)">
<path d="M81.8069 0H26.3534C22.0207 0 18.5083 3.31693 18.5083 7.40856V82.5914C18.5083 86.6831 22.0207 90 26.3534 90H81.8069C86.1396 90 89.652 86.6831 89.652 82.5914V7.40856C89.652 3.31693 86.1396 0 81.8069 0Z" fill="#36C76C"/>
<path d="M79.6034 13.2383H28.5919V21.948H79.6034V13.2383Z" fill="#010A3D"/>
<path d="M37.5366 25.9756H29.5825C29.0354 25.9756 28.5919 26.3944 28.5919 26.9111V28.831C28.5919 29.3476 29.0354 29.7664 29.5825 29.7664H37.5366C38.0837 29.7664 38.5272 29.3476 38.5272 28.831V26.9111C38.5272 26.3944 38.0837 25.9756 37.5366 25.9756Z" fill="white"/>
<path d="M36.4745 34.2197H31.5915C30.2238 34.2197 29.115 35.2668 29.115 36.5584V40.7006C29.115 41.9923 30.2238 43.0393 31.5915 43.0393H36.4745C37.8423 43.0393 38.951 41.9923 38.951 40.7006V36.5584C38.951 35.2668 37.8423 34.2197 36.4745 34.2197Z" fill="white"/>
<path d="M50.4834 34.2197H45.6004C44.2327 34.2197 43.1239 35.2668 43.1239 36.5584V40.7006C43.1239 41.9923 44.2327 43.0393 45.6004 43.0393H50.4834C51.8512 43.0393 52.9599 41.9923 52.9599 40.7006V36.5584C52.9599 35.2668 51.8512 34.2197 50.4834 34.2197Z" fill="white"/>
<path d="M64.4923 34.2197H59.6093C58.2416 34.2197 57.1328 35.2668 57.1328 36.5584V40.7006C57.1328 41.9923 58.2416 43.0393 59.6093 43.0393H64.4923C65.8601 43.0393 66.9689 41.9923 66.9689 40.7006V36.5584C66.9689 35.2668 65.8601 34.2197 64.4923 34.2197Z" fill="white"/>
<path d="M78.5013 34.2197H73.6182C72.2505 34.2197 71.1417 35.2668 71.1417 36.5584V40.7006C71.1417 41.9923 72.2505 43.0393 73.6182 43.0393H78.5013C79.869 43.0393 80.9778 41.9923 80.9778 40.7006V36.5584C80.9778 35.2668 79.869 34.2197 78.5013 34.2197Z" fill="#ACE5F2"/>
<path d="M36.4745 47.8389H31.5915C30.2238 47.8389 29.115 48.8859 29.115 50.1776V54.3198C29.115 55.6114 30.2238 56.6585 31.5915 56.6585H36.4745C37.8423 56.6585 38.951 55.6114 38.951 54.3198V50.1776C38.951 48.8859 37.8423 47.8389 36.4745 47.8389Z" fill="white"/>
<path d="M50.4834 47.8389H45.6004C44.2327 47.8389 43.1239 48.8859 43.1239 50.1776V54.3198C43.1239 55.6114 44.2327 56.6585 45.6004 56.6585H50.4834C51.8512 56.6585 52.9599 55.6114 52.9599 54.3198V50.1776C52.9599 48.8859 51.8512 47.8389 50.4834 47.8389Z" fill="white"/>
<path d="M64.4923 47.8389H59.6093C58.2416 47.8389 57.1328 48.8859 57.1328 50.1776V54.3198C57.1328 55.6114 58.2416 56.6585 59.6093 56.6585H64.4923C65.8601 56.6585 66.9689 55.6114 66.9689 54.3198V50.1776C66.9689 48.8859 65.8601 47.8389 64.4923 47.8389Z" fill="white"/>
<path d="M78.5013 47.8389H73.6182C72.2505 47.8389 71.1417 48.8859 71.1417 50.1776V54.3198C71.1417 55.6114 72.2505 56.6585 73.6182 56.6585H78.5013C79.869 56.6585 80.9778 55.6114 80.9778 54.3198V50.1776C80.9778 48.8859 79.869 47.8389 78.5013 47.8389Z" fill="#ACE5F2"/>
<path d="M36.4745 61.459H31.5915C30.2238 61.459 29.115 62.5061 29.115 63.7977V67.9399C29.115 69.2315 30.2238 70.2786 31.5915 70.2786H36.4745C37.8423 70.2786 38.951 69.2315 38.951 67.9399V63.7977C38.951 62.5061 37.8423 61.459 36.4745 61.459Z" fill="white"/>
<path d="M50.4834 61.459H45.6004C44.2327 61.459 43.1239 62.5061 43.1239 63.7977V67.9399C43.1239 69.2315 44.2327 70.2786 45.6004 70.2786H50.4834C51.8512 70.2786 52.9599 69.2315 52.9599 67.9399V63.7977C52.9599 62.5061 51.8512 61.459 50.4834 61.459Z" fill="white"/>
<path d="M64.4923 61.459H59.6093C58.2416 61.459 57.1328 62.5061 57.1328 63.7977V67.9399C57.1328 69.2315 58.2416 70.2786 59.6093 70.2786H64.4923C65.8601 70.2786 66.9689 69.2315 66.9689 67.9399V63.7977C66.9689 62.5061 65.8601 61.459 64.4923 61.459Z" fill="white"/>
<path d="M36.4745 75.0781H31.5915C30.2238 75.0781 29.115 76.1252 29.115 77.4168V81.559C29.115 82.8507 30.2238 83.8977 31.5915 83.8977H36.4745C37.8423 83.8977 38.951 82.8507 38.951 81.559V77.4168C38.951 76.1252 37.8423 75.0781 36.4745 75.0781Z" fill="white"/>
<path d="M50.4834 75.0781H45.6004C44.2327 75.0781 43.1239 76.1252 43.1239 77.4168V81.559C43.1239 82.8507 44.2327 83.8977 45.6004 83.8977H50.4834C51.8512 83.8977 52.9599 82.8507 52.9599 81.559V77.4168C52.9599 76.1252 51.8512 75.0781 50.4834 75.0781Z" fill="white"/>
<path d="M64.4923 75.0781H59.6093C58.2416 75.0781 57.1328 76.1252 57.1328 77.4168V81.559C57.1328 82.8507 58.2416 83.8977 59.6093 83.8977H64.4923C65.8601 83.8977 66.9689 82.8507 66.9689 81.559V77.4168C66.9689 76.1252 65.8601 75.0781 64.4923 75.0781Z" fill="#010A3D"/>
<path d="M78.5013 61.459H73.6182C72.2505 61.459 71.1417 62.5061 71.1417 63.7977V81.5595C71.1417 82.8511 72.2505 83.8982 73.6182 83.8982H78.5013C79.869 83.8982 80.9778 82.8511 80.9778 81.5595V63.7977C80.9778 62.5061 79.869 61.459 78.5013 61.459Z" fill="#F2E416"/>
<path d="M51.6868 25.9756H43.7328C43.1857 25.9756 42.7422 26.3944 42.7422 26.9111V28.831C42.7422 29.3476 43.1857 29.7664 43.7328 29.7664H51.6868C52.2339 29.7664 52.6774 29.3476 52.6774 28.831V26.9111C52.6774 26.3944 52.2339 25.9756 51.6868 25.9756Z" fill="white"/>
<path d="M65.837 25.9756H57.8829C57.3358 25.9756 56.8923 26.3944 56.8923 26.9111V28.831C56.8923 29.3476 57.3358 29.7664 57.8829 29.7664H65.837C66.3841 29.7664 66.8276 29.3476 66.8276 28.831V26.9111C66.8276 26.3944 66.3841 25.9756 65.837 25.9756Z" fill="white"/>
<path d="M79.9871 25.9756H72.0331C71.486 25.9756 71.0425 26.3944 71.0425 26.9111V28.831C71.0425 29.3476 71.486 29.7664 72.0331 29.7664H79.9871C80.5342 29.7664 80.9777 29.3476 80.9777 28.831V26.9111C80.9777 26.3944 80.5342 25.9756 79.9871 25.9756Z" fill="#ACE5F2"/>
<path d="M38.7152 8.43848H66.4557C69.4915 8.43848 72.4029 9.57733 74.5496 11.6045C76.6962 13.6317 77.9021 16.3811 77.9021 19.248H38.7152V8.43848Z" fill="#D1D3D4"/>
<path d="M67.2736 8.43848H19.6982C16.8403 8.43851 14.0995 9.51065 12.0786 11.419C10.0578 13.3274 8.92243 15.9157 8.92236 18.6146V87.2405H46.6925C49.7733 87.2405 52.7279 86.0848 54.9064 84.0275C57.0848 81.9703 58.3086 79.1801 58.3086 76.2707V17.954C58.3031 15.6443 59.1834 13.4107 60.7868 11.6665C62.3902 9.92224 64.6082 8.78532 67.0306 8.46598C67.1877 8.44582 67.2736 8.43848 67.2736 8.43848Z" fill="#E8EAED"/>
<path d="M42.2951 78.1715V76.3965H0V81.8002C5.25437e-05 83.2339 0.603191 84.6089 1.67674 85.6227C2.75028 86.6365 4.2063 87.206 5.7245 87.206H40.3685C40.3685 87.206 42.4692 87.2456 45.6049 87.2398C43.1074 85.3686 42.3885 80.6436 42.2951 78.1715Z" fill="#D1D3D4"/>
<path d="M51.9698 36.8213H14.8324V37.2858H51.9698V36.8213Z" fill="#010A3D"/>
<path d="M51.9698 41.4082H14.8324V41.8727H51.9698V41.4082Z" fill="#010A3D"/>
<path d="M51.9698 45.9961H14.8324V46.4606H51.9698V45.9961Z" fill="#010A3D"/>
<path d="M51.9698 50.583H14.8324V51.0475H51.9698V50.583Z" fill="#010A3D"/>
<path d="M51.9698 55.1699H14.8324V55.6344H51.9698V55.1699Z" fill="#010A3D"/>
<path d="M51.9698 59.7568H14.8324V60.2213H51.9698V59.7568Z" fill="#010A3D"/>
<path d="M51.9698 64.3438H14.8324V64.8083H51.9698V64.3438Z" fill="#010A3D"/>
</g>
<defs>
<clipPath id="clip0_1238_25837">
<rect width="89.652" height="90" fill="white"/>
</clipPath>
</defs>
</svg>
