<svg width="80" height="80" viewBox="0 0 80 80" fill="none" xmlns="http://www.w3.org/2000/svg">
<g clip-path="url(#clip0_1238_33705)">
<path d="M67.7348 79.9999H0.0424805L12.3077 6.47009H80.0001L67.7348 79.9999Z" fill="#1E5CD9"/>
<path d="M67.6923 0H0V80H67.6923V0Z" fill="#D1D3D4"/>
<path d="M8.5 14C10.9853 14 13 11.9853 13 9.5C13 7.01472 10.9853 5 8.5 5C6.01472 5 4 7.01472 4 9.5C4 11.9853 6.01472 14 8.5 14Z" fill="#1E5CD9"/>
<path d="M28.641 8.21436H15V9.00002H28.641V8.21436Z" fill="#1E5CD9"/>
<path d="M22.7692 10H15V10.7857H22.7692V10Z" fill="#010A3D"/>
<path d="M25.4872 70.199H4.97437V71.1111H25.4872V70.199Z" fill="#010A3D"/>
<path d="M29.2992 71.832H4.97437V72.7441H29.2992V71.832Z" fill="#010A3D"/>
<path d="M62.2564 8.40967H50.7531V9.32179H62.2564V8.40967Z" fill="#010A3D"/>
<path d="M62.2564 10.3218H48.6154V11.2339H62.2564V10.3218Z" fill="#010A3D"/>
<path d="M12.5106 21.7581H5.43591V25.6865H12.5106V21.7581Z" fill="#F2E416" stroke="#010A3D" stroke-width="0.5535" stroke-miterlimit="10"/>
<path d="M47.7728 21.7581H12.5106V25.6865H47.7728V21.7581Z" fill="#F2E416" stroke="#010A3D" stroke-width="0.5535" stroke-miterlimit="10"/>
<path d="M62.2564 21.7581H47.7727V25.6865H62.2564V21.7581Z" fill="#F2E416" stroke="#010A3D" stroke-width="0.5535" stroke-miterlimit="10"/>
<path d="M12.5106 25.6865H5.43591V29.6149H12.5106V25.6865Z" fill="white" stroke="#010A3D" stroke-width="0.5535" stroke-miterlimit="10"/>
<path d="M47.7728 25.6865H12.5106V29.6149H47.7728V25.6865Z" fill="white" stroke="#010A3D" stroke-width="0.5535" stroke-miterlimit="10"/>
<path d="M62.2564 25.6865H47.7727V29.6149H62.2564V25.6865Z" fill="white" stroke="#010A3D" stroke-width="0.5535" stroke-miterlimit="10"/>
<path d="M12.5106 29.6149H5.43591V33.5432H12.5106V29.6149Z" fill="white" stroke="#010A3D" stroke-width="0.5535" stroke-miterlimit="10"/>
<path d="M47.7728 29.6149H12.5106V33.5432H47.7728V29.6149Z" fill="white" stroke="#010A3D" stroke-width="0.5535" stroke-miterlimit="10"/>
<path d="M62.2564 29.6149H47.7727V33.5432H62.2564V29.6149Z" fill="white" stroke="#010A3D" stroke-width="0.5535" stroke-miterlimit="10"/>
<path d="M12.5106 33.5432H5.43591V37.4716H12.5106V33.5432Z" fill="white" stroke="#010A3D" stroke-width="0.5535" stroke-miterlimit="10"/>
<path d="M47.7728 33.5432H12.5106V37.4716H47.7728V33.5432Z" fill="white" stroke="#010A3D" stroke-width="0.5535" stroke-miterlimit="10"/>
<path d="M62.2564 33.5432H47.7727V37.4716H62.2564V33.5432Z" fill="white" stroke="#010A3D" stroke-width="0.5535" stroke-miterlimit="10"/>
<path d="M12.5106 37.4716H5.43591V41.3999H12.5106V37.4716Z" fill="white" stroke="#010A3D" stroke-width="0.5535" stroke-miterlimit="10"/>
<path d="M47.7728 37.4716H12.5106V41.3999H47.7728V37.4716Z" fill="white" stroke="#010A3D" stroke-width="0.5535" stroke-miterlimit="10"/>
<path d="M62.2564 37.4716H47.7727V41.3999H62.2564V37.4716Z" fill="white" stroke="#010A3D" stroke-width="0.5535" stroke-miterlimit="10"/>
<path d="M12.5106 41.4H5.43591V45.3283H12.5106V41.4Z" fill="white" stroke="#010A3D" stroke-width="0.5535" stroke-miterlimit="10"/>
<path d="M47.7728 41.4H12.5106V45.3283H47.7728V41.4Z" fill="white" stroke="#010A3D" stroke-width="0.5535" stroke-miterlimit="10"/>
<path d="M62.2564 41.4H47.7727V45.3283H62.2564V41.4Z" fill="white" stroke="#010A3D" stroke-width="0.5535" stroke-miterlimit="10"/>
<path d="M12.5106 45.3284H5.43591V49.2568H12.5106V45.3284Z" fill="white" stroke="#010A3D" stroke-width="0.5535" stroke-miterlimit="10"/>
<path d="M47.7728 45.3284H12.5106V49.2568H47.7728V45.3284Z" fill="white" stroke="#010A3D" stroke-width="0.5535" stroke-miterlimit="10"/>
<path d="M62.2564 45.3284H47.7727V49.2568H62.2564V45.3284Z" fill="white" stroke="#010A3D" stroke-width="0.5535" stroke-miterlimit="10"/>
<path d="M12.5106 49.2567H5.43591V53.1851H12.5106V49.2567Z" fill="white" stroke="#010A3D" stroke-width="0.5535" stroke-miterlimit="10"/>
<path d="M47.7728 49.2567H12.5106V53.1851H47.7728V49.2567Z" fill="white" stroke="#010A3D" stroke-width="0.5535" stroke-miterlimit="10"/>
<path d="M62.2564 49.2567H47.7727V53.1851H62.2564V49.2567Z" fill="white" stroke="#010A3D" stroke-width="0.5535" stroke-miterlimit="10"/>
<path d="M12.5106 53.1851H5.43591V57.1134H12.5106V53.1851Z" fill="white" stroke="#010A3D" stroke-width="0.5535" stroke-miterlimit="10"/>
<path d="M47.7728 53.1851H12.5106V57.1134H47.7728V53.1851Z" fill="white" stroke="#010A3D" stroke-width="0.5535" stroke-miterlimit="10"/>
<path d="M62.2564 53.1851H47.7727V57.1134H62.2564V53.1851Z" fill="white" stroke="#010A3D" stroke-width="0.5535" stroke-miterlimit="10"/>
<path d="M12.5106 57.1134H5.43591V61.0418H12.5106V57.1134Z" fill="white" stroke="#010A3D" stroke-width="0.5535" stroke-miterlimit="10"/>
<path d="M47.7728 57.1134H12.5106V61.0418H47.7728V57.1134Z" fill="white" stroke="#010A3D" stroke-width="0.5535" stroke-miterlimit="10"/>
<path d="M62.2564 57.1134H47.7727V61.0418H62.2564V57.1134Z" fill="white" stroke="#010A3D" stroke-width="0.5535" stroke-miterlimit="10"/>
<path d="M12.5106 61.0418H5.43591V64.9702H12.5106V61.0418Z" fill="white" stroke="#010A3D" stroke-width="0.5535" stroke-miterlimit="10"/>
<path d="M47.7728 61.0418H12.5106V64.9702H47.7728V61.0418Z" fill="white" stroke="#010A3D" stroke-width="0.5535" stroke-miterlimit="10"/>
<path d="M62.2564 61.0418H47.7727V64.9702H62.2564V61.0418Z" fill="white" stroke="#010A3D" stroke-width="0.5535" stroke-miterlimit="10"/>
<path d="M12.5106 64.9702H5.43591V68.8985H12.5106V64.9702Z" fill="white" stroke="#010A3D" stroke-width="0.5535" stroke-miterlimit="10"/>
<path d="M47.7728 64.9702H12.5106V68.8985H47.7728V64.9702Z" fill="white" stroke="#010A3D" stroke-width="0.5535" stroke-miterlimit="10"/>
<path d="M62.2564 64.9702H47.7727V68.8985H62.2564V64.9702Z" fill="white" stroke="#010A3D" stroke-width="0.5535" stroke-miterlimit="10"/>
<path d="M27.3712 14.4242V17.3333H27.0189V14.4242H27.3712ZM30.3843 14.4242V17.3333H30.0434L28.4582 15.0492H28.4298V17.3333H28.0775V14.4242H28.4184L30.0093 16.714H30.0377V14.4242H30.3843ZM31.2085 14.4242L32.0722 16.8731H32.1063L32.9699 14.4242H33.3392L32.271 17.3333H31.9074L30.8392 14.4242H31.2085ZM36.1102 15.8788C36.1102 16.1856 36.0548 16.4507 35.944 16.6742C35.8332 16.8977 35.6812 17.0701 35.488 17.1913C35.2948 17.3125 35.0742 17.3731 34.8261 17.3731C34.578 17.3731 34.3573 17.3125 34.1641 17.1913C33.971 17.0701 33.819 16.8977 33.7082 16.6742C33.5974 16.4507 33.542 16.1856 33.542 15.8788C33.542 15.5719 33.5974 15.3068 33.7082 15.0833C33.819 14.8598 33.971 14.6875 34.1641 14.5663C34.3573 14.4451 34.578 14.3844 34.8261 14.3844C35.0742 14.3844 35.2948 14.4451 35.488 14.5663C35.6812 14.6875 35.8332 14.8598 35.944 15.0833C36.0548 15.3068 36.1102 15.5719 36.1102 15.8788ZM35.7693 15.8788C35.7693 15.6269 35.7271 15.4143 35.6428 15.241C35.5595 15.0677 35.4463 14.9365 35.3033 14.8475C35.1613 14.7585 35.0022 14.714 34.8261 14.714C34.6499 14.714 34.4904 14.7585 34.3474 14.8475C34.2053 14.9365 34.0922 15.0677 34.0079 15.241C33.9246 15.4143 33.8829 15.6269 33.8829 15.8788C33.8829 16.1307 33.9246 16.3433 34.0079 16.5166C34.0922 16.6898 34.2053 16.821 34.3474 16.91C34.4904 16.999 34.6499 17.0435 34.8261 17.0435C35.0022 17.0435 35.1613 16.999 35.3033 16.91C35.4463 16.821 35.5595 16.6898 35.6428 16.5166C35.7271 16.3433 35.7693 16.1307 35.7693 15.8788ZM37.0548 14.4242V17.3333H36.7025V14.4242H37.0548ZM40.102 15.3333H39.7497C39.7289 15.232 39.6924 15.143 39.6403 15.0663C39.5892 14.9896 39.5267 14.9252 39.4528 14.8731C39.3799 14.8201 39.299 14.7803 39.2099 14.7538C39.1209 14.7273 39.0281 14.714 38.9315 14.714C38.7554 14.714 38.5958 14.7585 38.4528 14.8475C38.3108 14.9365 38.1976 15.0677 38.1134 15.241C38.03 15.4143 37.9884 15.6269 37.9884 15.8788C37.9884 16.1307 38.03 16.3433 38.1134 16.5166C38.1976 16.6898 38.3108 16.821 38.4528 16.91C38.5958 16.999 38.7554 17.0435 38.9315 17.0435C39.0281 17.0435 39.1209 17.0303 39.2099 17.0038C39.299 16.9773 39.3799 16.938 39.4528 16.8859C39.5267 16.8328 39.5892 16.768 39.6403 16.6913C39.6924 16.6136 39.7289 16.5246 39.7497 16.4242H40.102C40.0755 16.5729 40.0272 16.7059 39.9571 16.8234C39.887 16.9408 39.7999 17.0407 39.6957 17.1231C39.5916 17.2045 39.4746 17.2666 39.3449 17.3092C39.2161 17.3518 39.0783 17.3731 38.9315 17.3731C38.6834 17.3731 38.4628 17.3125 38.2696 17.1913C38.0764 17.0701 37.9244 16.8977 37.8136 16.6742C37.7028 16.4507 37.6474 16.1856 37.6474 15.8788C37.6474 15.5719 37.7028 15.3068 37.8136 15.0833C37.9244 14.8598 38.0764 14.6875 38.2696 14.5663C38.4628 14.4451 38.6834 14.3844 38.9315 14.3844C39.0783 14.3844 39.2161 14.4058 39.3449 14.4484C39.4746 14.491 39.5916 14.5535 39.6957 14.6359C39.7999 14.7173 39.887 14.8167 39.9571 14.9342C40.0272 15.0506 40.0755 15.1837 40.102 15.3333ZM40.6712 17.3333V14.4242H42.4269V14.7367H41.0235V15.7197H42.336V16.0322H41.0235V17.0208H42.4497V17.3333H40.6712Z" fill="black"/>
</g>
<defs>
<clipPath id="clip0_1238_33705">
<rect width="80" height="80" fill="white"/>
</clipPath>
</defs>
</svg>
