<svg width="90" height="95" viewBox="0 0 90 95" fill="none" xmlns="http://www.w3.org/2000/svg">
<g clip-path="url(#clip0_1238_25340)">
<path d="M79.3492 103L77.8707 102.999L76.5597 101.667L74.9132 102.998L73.6022 101.666L71.9563 102.997L70.6448 101.665L68.9982 102.996L67.6867 101.663L66.0408 102.994L64.7298 101.662L63.0827 102.993L61.7718 101.661L60.1252 102.991L58.8137 101.659L57.1678 102.99L55.8573 101.658L54.2125 102.989L52.9026 101.657L51.2572 102.987L49.9457 101.655L48.2997 102.986L46.9893 101.654L45.3439 102.985L44.0329 101.653L42.3853 102.983L41.0743 101.652L39.4289 102.982L38.1174 101.65L36.4703 102.981L35.1594 101.649L33.5128 102.98L32.2013 101.648L30.5548 102.978L29.2427 101.646L27.5962 102.977L26.2842 101.645L24.6371 102.976L23.325 101.644L21.678 102.974L20.3659 101.642L18.7183 102.973L17.4057 101.641L15.7597 102.972L14.4476 101.639L12.8011 102.97L11.4891 101.638L9.84143 102.969L8.52883 101.637L6.88065 102.968L5.5686 101.636L3.92097 102.966L2.60727 101.635L0.957449 102.965L0.294556 102.965L10.9453 18.3296L13.0823 18.3305L14.3938 19.6627L16.0403 18.3318L17.3513 19.664L18.9973 18.3332L20.3088 19.6654L21.9553 18.3345L23.2663 19.6667L24.9128 18.3359L26.2237 19.6676L27.8703 18.3372L29.1818 19.669L30.8278 18.3381L32.1393 19.6703L33.7858 18.3395L35.0962 19.6717L36.7411 18.3408L38.0509 19.673L39.6964 18.3422L41.0079 19.6744L42.6538 18.3435L43.9643 19.6757L45.6097 18.3449L46.9206 19.6771L48.5677 18.3462L49.8787 19.6784L51.5246 18.3476L52.8362 19.6798L54.4827 18.3489L55.7942 19.6811L57.4402 18.3503L58.7522 19.6825L60.3987 18.3516L61.7108 19.6834L63.3573 18.353L64.6694 19.6847L66.3165 18.3539L67.6285 19.6861L69.2756 18.3552L70.5876 19.6874L72.2353 18.3566L73.5473 19.6888L75.1933 18.3579L76.5059 19.6901L78.1524 18.3593L79.4645 19.6915L81.1121 18.3606L82.4247 19.6928L84.0723 18.362L85.3849 19.6942L87.0326 18.3633L89.9999 18.3647L79.3492 103Z" fill="#1E5CD9"/>
<path d="M79.6499 102.98H78.1599L76.6699 101.486L75.1799 102.98L73.6905 101.486L72.2005 102.98L70.711 101.486L69.2205 102.98L67.7305 101.486L66.241 102.98L64.751 101.486L63.261 102.98L61.771 101.486L60.281 102.98L58.791 101.486L57.301 102.98L55.8121 101.486L54.3238 102.98L52.8349 101.486L51.346 102.98L49.856 101.486L48.366 102.98L46.8771 101.486L45.3882 102.98L43.8982 101.486L42.4076 102.98L40.9182 101.486L39.4287 102.98L37.9387 101.486L36.4482 102.98L34.9582 101.486L33.4682 102.98L31.9776 101.486L30.4876 102.98L28.9971 101.486L27.5065 102.98L26.016 101.486L24.5254 102.98L23.0349 101.486L21.5443 102.98L20.0532 101.486L18.5621 102.98L17.071 101.486L15.5816 102.98L14.0905 101.486L12.6005 102.98L11.1099 101.486L9.61827 102.98L8.12718 101.486L6.63553 102.98L5.14498 101.486L3.65333 102.98L2.16113 101.486L0.667287 102.98H0V8H2.15289L3.64289 9.49418L5.13289 8L6.6229 9.49418L8.11235 8L9.60235 9.49418L11.0923 8L12.5823 9.49418L14.0723 8L15.5618 9.49418L17.0523 8L18.5424 9.49418L20.0323 8L21.5224 9.49418L23.0124 8L24.5013 9.49418L25.9896 8L27.478 9.49418L28.9674 8L30.4574 9.49418L31.9474 8L33.4363 9.49418L34.9252 8L36.4147 9.49418L37.9058 8L39.3952 9.49418L40.8847 8L42.3747 9.49418L43.8652 8L45.3547 9.49418L46.8447 8L48.3352 9.49418L49.8252 8L51.3163 9.49418L52.8063 8L54.2969 9.49418L55.7874 8L57.2785 9.49418L58.7691 8L60.2602 9.49418L61.7513 8L63.2418 9.49418L64.7318 8L66.2224 9.49418L67.7124 8L69.2035 9.49418L70.6946 8L72.1862 9.49418L73.6773 8L75.1684 9.49418L76.6595 8H79.6499V102.98Z" fill="#D1D3D4"/>
<path d="M11.5 24C13.9853 24 16 21.9853 16 19.5C16 17.0147 13.9853 15 11.5 15C9.01472 15 7 17.0147 7 19.5C7 21.9853 9.01472 24 11.5 24Z" fill="#1E5CD9"/>
<path d="M39.6229 18.0764H21V19.0001H39.6229V18.0764Z" fill="#1E5CD9"/>
<path d="M31.6066 20H21V20.9237H31.6066V20Z" fill="#010A3D"/>
<path d="M24.2045 31V25.1818H26.1705C26.625 25.1818 26.9981 25.2595 27.2898 25.4148C27.5814 25.5682 27.7973 25.7794 27.9375 26.0483C28.0777 26.3172 28.1477 26.6231 28.1477 26.9659C28.1477 27.3087 28.0777 27.6127 27.9375 27.8778C27.7973 28.143 27.5824 28.3513 27.2926 28.5028C27.0028 28.6525 26.6326 28.7273 26.1818 28.7273H24.5909V28.0909H26.1591C26.4697 28.0909 26.7197 28.0455 26.9091 27.9545C27.1004 27.8636 27.2386 27.7348 27.3239 27.5682C27.411 27.3996 27.4545 27.1989 27.4545 26.9659C27.4545 26.733 27.411 26.5294 27.3239 26.3551C27.2367 26.1809 27.0975 26.0464 26.9062 25.9517C26.715 25.8551 26.4621 25.8068 26.1477 25.8068H24.9091V31H24.2045ZM26.9432 28.3864L28.375 31H27.5568L26.1477 28.3864H26.9432ZM29.3217 31V25.1818H32.8331V25.8068H30.0263V27.7727H32.6513V28.3977H30.0263V30.375H32.8786V31H29.3217ZM38.7848 27H38.0803C38.0386 26.7973 37.9657 26.6193 37.8615 26.4659C37.7592 26.3125 37.6342 26.1837 37.4865 26.0795C37.3407 25.9735 37.1787 25.8939 37.0007 25.8409C36.8227 25.7879 36.6371 25.7614 36.4439 25.7614C36.0916 25.7614 35.7725 25.8504 35.4865 26.0284C35.2024 26.2064 34.9761 26.4688 34.8075 26.8153C34.6409 27.1619 34.5575 27.5871 34.5575 28.0909C34.5575 28.5947 34.6409 29.0199 34.8075 29.3665C34.9761 29.7131 35.2024 29.9754 35.4865 30.1534C35.7725 30.3314 36.0916 30.4205 36.4439 30.4205C36.6371 30.4205 36.8227 30.3939 37.0007 30.3409C37.1787 30.2879 37.3407 30.2093 37.4865 30.1051C37.6342 29.9991 37.7592 29.8693 37.8615 29.7159C37.9657 29.5606 38.0386 29.3826 38.0803 29.1818H38.7848C38.7318 29.4792 38.6352 29.7453 38.495 29.9801C38.3549 30.215 38.1806 30.4148 37.9723 30.5795C37.764 30.7424 37.5301 30.8665 37.2706 30.9517C37.013 31.0369 36.7375 31.0795 36.4439 31.0795C35.9477 31.0795 35.5064 30.9583 35.12 30.7159C34.7337 30.4735 34.4297 30.1288 34.2081 29.6818C33.9865 29.2348 33.8757 28.7045 33.8757 28.0909C33.8757 27.4773 33.9865 26.947 34.2081 26.5C34.4297 26.053 34.7337 25.7083 35.12 25.4659C35.5064 25.2235 35.9477 25.1023 36.4439 25.1023C36.7375 25.1023 37.013 25.1449 37.2706 25.2301C37.5301 25.3153 37.764 25.4403 37.9723 25.6051C38.1806 25.768 38.3549 25.9669 38.495 26.2017C38.6352 26.4347 38.7318 26.7008 38.7848 27ZM39.9233 31V25.1818H43.4347V25.8068H40.6278V27.7727H43.2528V28.3977H40.6278V30.375H43.4801V31H39.9233ZM45.4091 25.1818V31H44.7045V25.1818H45.4091ZM46.8217 31V25.1818H48.7876C49.2441 25.1818 49.6172 25.2642 49.907 25.429C50.1986 25.5919 50.4145 25.8125 50.5547 26.0909C50.6948 26.3693 50.7649 26.6799 50.7649 27.0227C50.7649 27.3655 50.6948 27.6771 50.5547 27.9574C50.4164 28.2377 50.2024 28.4612 49.9126 28.6278C49.6229 28.7926 49.2517 28.875 48.799 28.875H47.3899V28.25H48.7763C49.0888 28.25 49.3397 28.196 49.5291 28.0881C49.7185 27.9801 49.8558 27.8343 49.9411 27.6506C50.0282 27.465 50.0717 27.2557 50.0717 27.0227C50.0717 26.7898 50.0282 26.5814 49.9411 26.3977C49.8558 26.214 49.7176 26.0701 49.5263 25.9659C49.335 25.8598 49.0812 25.8068 48.7649 25.8068H47.5263V31H46.8217ZM51.5817 25.8068V25.1818H55.9453V25.8068H54.1158V31H53.4112V25.8068H51.5817Z" fill="#1E5CD9"/>
<path d="M17.2045 39.0909V42H16.8523V39.0909H17.2045ZM17.7518 39.4034V39.0909H19.9336V39.4034H19.0188V42H18.6665V39.4034H17.7518ZM20.4773 42V39.0909H22.233V39.4034H20.8295V40.3864H22.142V40.6989H20.8295V41.6875H22.2557V42H20.4773ZM22.8679 39.0909H23.2884L24.277 41.5057H24.3111L25.2997 39.0909H25.7202V42H25.3906V39.7898H25.3622L24.4531 42H24.1349L23.2259 39.7898H23.1974V42H22.8679V39.0909Z" fill="#29343D"/>
<path d="M49.8523 42V39.0909H50.8352C51.0634 39.0909 51.25 39.1321 51.3949 39.2145C51.5407 39.2959 51.6487 39.4062 51.7188 39.5455C51.7888 39.6847 51.8239 39.84 51.8239 40.0114C51.8239 40.1828 51.7888 40.3385 51.7188 40.4787C51.6496 40.6188 51.5426 40.7306 51.3977 40.8139C51.2528 40.8963 51.0672 40.9375 50.8409 40.9375H50.1364V40.625H50.8295C50.9858 40.625 51.1113 40.598 51.206 40.544C51.3007 40.4901 51.3693 40.4171 51.4119 40.3253C51.4555 40.2325 51.4773 40.1278 51.4773 40.0114C51.4773 39.8949 51.4555 39.7907 51.4119 39.6989C51.3693 39.607 51.3002 39.535 51.2045 39.483C51.1089 39.4299 50.982 39.4034 50.8239 39.4034H50.2045V42H49.8523ZM52.3913 42V39.0909H53.3743C53.6016 39.0909 53.7881 39.1297 53.9339 39.2074C54.0798 39.2841 54.1877 39.3897 54.2578 39.5241C54.3279 39.6586 54.3629 39.8116 54.3629 39.983C54.3629 40.1544 54.3279 40.3063 54.2578 40.4389C54.1877 40.5715 54.0803 40.6757 53.9354 40.7514C53.7905 40.8262 53.6054 40.8636 53.38 40.8636H52.5845V40.5455H53.3686C53.5239 40.5455 53.6489 40.5227 53.7436 40.4773C53.8393 40.4318 53.9084 40.3674 53.951 40.2841C53.9946 40.1998 54.0163 40.0994 54.0163 39.983C54.0163 39.8665 53.9946 39.7647 53.951 39.6776C53.9074 39.5904 53.8378 39.5232 53.7422 39.4759C53.6465 39.4276 53.5201 39.4034 53.3629 39.4034H52.7436V42H52.3913ZM53.7607 40.6932L54.4766 42H54.0675L53.3629 40.6932H53.7607ZM55.3022 39.0909V42H54.9499V39.0909H55.3022ZM58.3494 40H57.9972C57.9763 39.8987 57.9399 39.8097 57.8878 39.733C57.8366 39.6562 57.7741 39.5919 57.7003 39.5398C57.6274 39.4867 57.5464 39.447 57.4574 39.4205C57.3684 39.3939 57.2756 39.3807 57.179 39.3807C57.0028 39.3807 56.8433 39.4252 56.7003 39.5142C56.5582 39.6032 56.4451 39.7344 56.3608 39.9077C56.2775 40.081 56.2358 40.2936 56.2358 40.5455C56.2358 40.7973 56.2775 41.0099 56.3608 41.1832C56.4451 41.3565 56.5582 41.4877 56.7003 41.5767C56.8433 41.6657 57.0028 41.7102 57.179 41.7102C57.2756 41.7102 57.3684 41.697 57.4574 41.6705C57.5464 41.6439 57.6274 41.6046 57.7003 41.5526C57.7741 41.4995 57.8366 41.4347 57.8878 41.358C57.9399 41.2803 57.9763 41.1913 57.9972 41.0909H58.3494C58.3229 41.2396 58.2746 41.3726 58.2045 41.4901C58.1345 41.6075 58.0473 41.7074 57.9432 41.7898C57.839 41.8712 57.7221 41.9332 57.5923 41.9759C57.4635 42.0185 57.3258 42.0398 57.179 42.0398C56.9309 42.0398 56.7102 41.9792 56.517 41.858C56.3239 41.7367 56.1719 41.5644 56.0611 41.3409C55.9503 41.1174 55.8949 40.8523 55.8949 40.5455C55.8949 40.2386 55.9503 39.9735 56.0611 39.75C56.1719 39.5265 56.3239 39.3542 56.517 39.233C56.7102 39.1117 56.9309 39.0511 57.179 39.0511C57.3258 39.0511 57.4635 39.0724 57.5923 39.1151C57.7221 39.1577 57.839 39.2202 57.9432 39.3026C58.0473 39.384 58.1345 39.4834 58.2045 39.6009C58.2746 39.7173 58.3229 39.8504 58.3494 40ZM58.9187 42V39.0909H60.6744V39.4034H59.271V40.3864H60.5835V40.6989H59.271V41.6875H60.6971V42H58.9187Z" fill="#29343D"/>
<path d="M17.2045 50.0909V53H16.8523V50.0909H17.2045ZM17.7518 50.4034V50.0909H19.9336V50.4034H19.0188V53H18.6665V50.4034H17.7518ZM20.4773 53V50.0909H22.233V50.4034H20.8295V51.3864H22.142V51.6989H20.8295V52.6875H22.2557V53H20.4773ZM22.8679 50.0909H23.2884L24.277 52.5057H24.3111L25.2997 50.0909H25.7202V53H25.3906V50.7898H25.3622L24.4531 53H24.1349L23.2259 50.7898H23.1974V53H22.8679V50.0909ZM28.5231 50.0909V53H28.1708V50.4602H28.1538L27.4435 50.9318V50.5739L28.1708 50.0909H28.5231Z" fill="#29343D"/>
<path d="M51.75 53.0398C51.536 53.0398 51.3537 52.9815 51.2031 52.8651C51.0526 52.7476 50.9375 52.5777 50.858 52.3551C50.7784 52.1316 50.7386 51.8617 50.7386 51.5455C50.7386 51.2311 50.7784 50.9626 50.858 50.7401C50.9384 50.5166 51.054 50.3461 51.2045 50.2287C51.3561 50.1103 51.5379 50.0511 51.75 50.0511C51.9621 50.0511 52.1435 50.1103 52.294 50.2287C52.4455 50.3461 52.5611 50.5166 52.6406 50.7401C52.7211 50.9626 52.7614 51.2311 52.7614 51.5455C52.7614 51.8617 52.7216 52.1316 52.642 52.3551C52.5625 52.5777 52.4474 52.7476 52.2969 52.8651C52.1463 52.9815 51.964 53.0398 51.75 53.0398ZM51.75 52.7273C51.9621 52.7273 52.1269 52.625 52.2443 52.4205C52.3617 52.2159 52.4205 51.9242 52.4205 51.5455C52.4205 51.2936 52.3935 51.0791 52.3395 50.902C52.2865 50.7249 52.2098 50.59 52.1094 50.4972C52.0099 50.4044 51.8902 50.358 51.75 50.358C51.5398 50.358 51.3755 50.4616 51.2571 50.669C51.1387 50.8755 51.0795 51.1676 51.0795 51.5455C51.0795 51.7973 51.1061 52.0114 51.1591 52.1875C51.2121 52.3636 51.2884 52.4976 51.3878 52.5895C51.4882 52.6813 51.6089 52.7273 51.75 52.7273ZM54.25 53.0398C54.036 53.0398 53.8537 52.9815 53.7031 52.8651C53.5526 52.7476 53.4375 52.5777 53.358 52.3551C53.2784 52.1316 53.2386 51.8617 53.2386 51.5455C53.2386 51.2311 53.2784 50.9626 53.358 50.7401C53.4384 50.5166 53.554 50.3461 53.7045 50.2287C53.8561 50.1103 54.0379 50.0511 54.25 50.0511C54.4621 50.0511 54.6435 50.1103 54.794 50.2287C54.9455 50.3461 55.0611 50.5166 55.1406 50.7401C55.2211 50.9626 55.2614 51.2311 55.2614 51.5455C55.2614 51.8617 55.2216 52.1316 55.142 52.3551C55.0625 52.5777 54.9474 52.7476 54.7969 52.8651C54.6463 52.9815 54.464 53.0398 54.25 53.0398ZM54.25 52.7273C54.4621 52.7273 54.6269 52.625 54.7443 52.4205C54.8617 52.2159 54.9205 51.9242 54.9205 51.5455C54.9205 51.2936 54.8935 51.0791 54.8395 50.902C54.7865 50.7249 54.7098 50.59 54.6094 50.4972C54.5099 50.4044 54.3902 50.358 54.25 50.358C54.0398 50.358 53.8755 50.4616 53.7571 50.669C53.6387 50.8755 53.5795 51.1676 53.5795 51.5455C53.5795 51.7973 53.6061 52.0114 53.6591 52.1875C53.7121 52.3636 53.7884 52.4976 53.8878 52.5895C53.9882 52.6813 54.1089 52.7273 54.25 52.7273ZM55.9496 53.0227C55.8795 53.0227 55.8194 52.9976 55.7692 52.9474C55.719 52.8973 55.6939 52.8371 55.6939 52.767C55.6939 52.697 55.719 52.6368 55.7692 52.5866C55.8194 52.5365 55.8795 52.5114 55.9496 52.5114C56.0196 52.5114 56.0798 52.5365 56.13 52.5866C56.1802 52.6368 56.2053 52.697 56.2053 52.767C56.2053 52.8134 56.1934 52.8561 56.1697 52.8949C56.147 52.9337 56.1162 52.965 56.0774 52.9886C56.0395 53.0114 55.9969 53.0227 55.9496 53.0227ZM57.6484 53.0398C57.4344 53.0398 57.2521 52.9815 57.1016 52.8651C56.951 52.7476 56.8359 52.5777 56.7564 52.3551C56.6768 52.1316 56.6371 51.8617 56.6371 51.5455C56.6371 51.2311 56.6768 50.9626 56.7564 50.7401C56.8369 50.5166 56.9524 50.3461 57.103 50.2287C57.2545 50.1103 57.4363 50.0511 57.6484 50.0511C57.8606 50.0511 58.0419 50.1103 58.1925 50.2287C58.344 50.3461 58.4595 50.5166 58.5391 50.7401C58.6196 50.9626 58.6598 51.2311 58.6598 51.5455C58.6598 51.8617 58.62 52.1316 58.5405 52.3551C58.4609 52.5777 58.3459 52.7476 58.1953 52.8651C58.0447 52.9815 57.8625 53.0398 57.6484 53.0398ZM57.6484 52.7273C57.8606 52.7273 58.0253 52.625 58.1428 52.4205C58.2602 52.2159 58.3189 51.9242 58.3189 51.5455C58.3189 51.2936 58.2919 51.0791 58.2379 50.902C58.1849 50.7249 58.1082 50.59 58.0078 50.4972C57.9084 50.4044 57.7886 50.358 57.6484 50.358C57.4382 50.358 57.2739 50.4616 57.1555 50.669C57.0372 50.8755 56.978 51.1676 56.978 51.5455C56.978 51.7973 57.0045 52.0114 57.0575 52.1875C57.1106 52.3636 57.1868 52.4976 57.2862 52.5895C57.3866 52.6813 57.5073 52.7273 57.6484 52.7273ZM60.1484 53.0398C59.9344 53.0398 59.7521 52.9815 59.6016 52.8651C59.451 52.7476 59.3359 52.5777 59.2564 52.3551C59.1768 52.1316 59.1371 51.8617 59.1371 51.5455C59.1371 51.2311 59.1768 50.9626 59.2564 50.7401C59.3369 50.5166 59.4524 50.3461 59.603 50.2287C59.7545 50.1103 59.9363 50.0511 60.1484 50.0511C60.3606 50.0511 60.5419 50.1103 60.6925 50.2287C60.844 50.3461 60.9595 50.5166 61.0391 50.7401C61.1196 50.9626 61.1598 51.2311 61.1598 51.5455C61.1598 51.8617 61.12 52.1316 61.0405 52.3551C60.9609 52.5777 60.8459 52.7476 60.6953 52.8651C60.5447 52.9815 60.3625 53.0398 60.1484 53.0398ZM60.1484 52.7273C60.3606 52.7273 60.5253 52.625 60.6428 52.4205C60.7602 52.2159 60.8189 51.9242 60.8189 51.5455C60.8189 51.2936 60.7919 51.0791 60.7379 50.902C60.6849 50.7249 60.6082 50.59 60.5078 50.4972C60.4084 50.4044 60.2886 50.358 60.1484 50.358C59.9382 50.358 59.7739 50.4616 59.6555 50.669C59.5372 50.8755 59.478 51.1676 59.478 51.5455C59.478 51.7973 59.5045 52.0114 59.5575 52.1875C59.6106 52.3636 59.6868 52.4976 59.7862 52.5895C59.8866 52.6813 60.0073 52.7273 60.1484 52.7273Z" fill="#29343D"/>
<path d="M17.2045 61.0909V64H16.8523V61.0909H17.2045ZM17.7518 61.4034V61.0909H19.9336V61.4034H19.0188V64H18.6665V61.4034H17.7518ZM20.4773 64V61.0909H22.233V61.4034H20.8295V62.3864H22.142V62.6989H20.8295V63.6875H22.2557V64H20.4773ZM22.8679 61.0909H23.2884L24.277 63.5057H24.3111L25.2997 61.0909H25.7202V64H25.3906V61.7898H25.3622L24.4531 64H24.1349L23.2259 61.7898H23.1974V64H22.8679V61.0909ZM27.5004 64V63.7443L28.4606 62.6932C28.5733 62.5701 28.6661 62.4631 28.739 62.3722C28.8119 62.2803 28.8659 62.1941 28.9009 62.1136C28.9369 62.0322 28.9549 61.947 28.9549 61.858C28.9549 61.7557 28.9303 61.6671 28.881 61.5923C28.8327 61.5175 28.7665 61.4598 28.6822 61.419C28.5979 61.3783 28.5032 61.358 28.3981 61.358C28.2863 61.358 28.1888 61.3812 28.1055 61.4276C28.0231 61.473 27.9592 61.5369 27.9137 61.6193C27.8692 61.7017 27.8469 61.7983 27.8469 61.9091H27.5117C27.5117 61.7386 27.551 61.589 27.6296 61.4602C27.7082 61.3314 27.8152 61.2311 27.9506 61.1591C28.087 61.0871 28.2399 61.0511 28.4094 61.0511C28.5799 61.0511 28.7309 61.0871 28.8626 61.1591C28.9942 61.2311 29.0974 61.3281 29.1722 61.4503C29.247 61.5724 29.2844 61.7083 29.2844 61.858C29.2844 61.965 29.265 62.0696 29.2262 62.1719C29.1883 62.2732 29.122 62.3864 29.0273 62.5114C28.9336 62.6354 28.8034 62.7869 28.6367 62.9659L27.9833 63.6648V63.6875H29.3356V64H27.5004Z" fill="#29343D"/>
<path d="M51.75 64.0398C51.536 64.0398 51.3537 63.9815 51.2031 63.8651C51.0526 63.7476 50.9375 63.5777 50.858 63.3551C50.7784 63.1316 50.7386 62.8617 50.7386 62.5455C50.7386 62.2311 50.7784 61.9626 50.858 61.7401C50.9384 61.5166 51.054 61.3461 51.2045 61.2287C51.3561 61.1103 51.5379 61.0511 51.75 61.0511C51.9621 61.0511 52.1435 61.1103 52.294 61.2287C52.4455 61.3461 52.5611 61.5166 52.6406 61.7401C52.7211 61.9626 52.7614 62.2311 52.7614 62.5455C52.7614 62.8617 52.7216 63.1316 52.642 63.3551C52.5625 63.5777 52.4474 63.7476 52.2969 63.8651C52.1463 63.9815 51.964 64.0398 51.75 64.0398ZM51.75 63.7273C51.9621 63.7273 52.1269 63.625 52.2443 63.4205C52.3617 63.2159 52.4205 62.9242 52.4205 62.5455C52.4205 62.2936 52.3935 62.0791 52.3395 61.902C52.2865 61.7249 52.2098 61.59 52.1094 61.4972C52.0099 61.4044 51.8902 61.358 51.75 61.358C51.5398 61.358 51.3755 61.4616 51.2571 61.669C51.1387 61.8755 51.0795 62.1676 51.0795 62.5455C51.0795 62.7973 51.1061 63.0114 51.1591 63.1875C51.2121 63.3636 51.2884 63.4976 51.3878 63.5895C51.4882 63.6813 51.6089 63.7273 51.75 63.7273ZM54.25 64.0398C54.036 64.0398 53.8537 63.9815 53.7031 63.8651C53.5526 63.7476 53.4375 63.5777 53.358 63.3551C53.2784 63.1316 53.2386 62.8617 53.2386 62.5455C53.2386 62.2311 53.2784 61.9626 53.358 61.7401C53.4384 61.5166 53.554 61.3461 53.7045 61.2287C53.8561 61.1103 54.0379 61.0511 54.25 61.0511C54.4621 61.0511 54.6435 61.1103 54.794 61.2287C54.9455 61.3461 55.0611 61.5166 55.1406 61.7401C55.2211 61.9626 55.2614 62.2311 55.2614 62.5455C55.2614 62.8617 55.2216 63.1316 55.142 63.3551C55.0625 63.5777 54.9474 63.7476 54.7969 63.8651C54.6463 63.9815 54.464 64.0398 54.25 64.0398ZM54.25 63.7273C54.4621 63.7273 54.6269 63.625 54.7443 63.4205C54.8617 63.2159 54.9205 62.9242 54.9205 62.5455C54.9205 62.2936 54.8935 62.0791 54.8395 61.902C54.7865 61.7249 54.7098 61.59 54.6094 61.4972C54.5099 61.4044 54.3902 61.358 54.25 61.358C54.0398 61.358 53.8755 61.4616 53.7571 61.669C53.6387 61.8755 53.5795 62.1676 53.5795 62.5455C53.5795 62.7973 53.6061 63.0114 53.6591 63.1875C53.7121 63.3636 53.7884 63.4976 53.8878 63.5895C53.9882 63.6813 54.1089 63.7273 54.25 63.7273ZM55.9496 64.0227C55.8795 64.0227 55.8194 63.9976 55.7692 63.9474C55.719 63.8973 55.6939 63.8371 55.6939 63.767C55.6939 63.697 55.719 63.6368 55.7692 63.5866C55.8194 63.5365 55.8795 63.5114 55.9496 63.5114C56.0196 63.5114 56.0798 63.5365 56.13 63.5866C56.1802 63.6368 56.2053 63.697 56.2053 63.767C56.2053 63.8134 56.1934 63.8561 56.1697 63.8949C56.147 63.9337 56.1162 63.965 56.0774 63.9886C56.0395 64.0114 55.9969 64.0227 55.9496 64.0227ZM57.6484 64.0398C57.4344 64.0398 57.2521 63.9815 57.1016 63.8651C56.951 63.7476 56.8359 63.5777 56.7564 63.3551C56.6768 63.1316 56.6371 62.8617 56.6371 62.5455C56.6371 62.2311 56.6768 61.9626 56.7564 61.7401C56.8369 61.5166 56.9524 61.3461 57.103 61.2287C57.2545 61.1103 57.4363 61.0511 57.6484 61.0511C57.8606 61.0511 58.0419 61.1103 58.1925 61.2287C58.344 61.3461 58.4595 61.5166 58.5391 61.7401C58.6196 61.9626 58.6598 62.2311 58.6598 62.5455C58.6598 62.8617 58.62 63.1316 58.5405 63.3551C58.4609 63.5777 58.3459 63.7476 58.1953 63.8651C58.0447 63.9815 57.8625 64.0398 57.6484 64.0398ZM57.6484 63.7273C57.8606 63.7273 58.0253 63.625 58.1428 63.4205C58.2602 63.2159 58.3189 62.9242 58.3189 62.5455C58.3189 62.2936 58.2919 62.0791 58.2379 61.902C58.1849 61.7249 58.1082 61.59 58.0078 61.4972C57.9084 61.4044 57.7886 61.358 57.6484 61.358C57.4382 61.358 57.2739 61.4616 57.1555 61.669C57.0372 61.8755 56.978 62.1676 56.978 62.5455C56.978 62.7973 57.0045 63.0114 57.0575 63.1875C57.1106 63.3636 57.1868 63.4976 57.2862 63.5895C57.3866 63.6813 57.5073 63.7273 57.6484 63.7273ZM60.1484 64.0398C59.9344 64.0398 59.7521 63.9815 59.6016 63.8651C59.451 63.7476 59.3359 63.5777 59.2564 63.3551C59.1768 63.1316 59.1371 62.8617 59.1371 62.5455C59.1371 62.2311 59.1768 61.9626 59.2564 61.7401C59.3369 61.5166 59.4524 61.3461 59.603 61.2287C59.7545 61.1103 59.9363 61.0511 60.1484 61.0511C60.3606 61.0511 60.5419 61.1103 60.6925 61.2287C60.844 61.3461 60.9595 61.5166 61.0391 61.7401C61.1196 61.9626 61.1598 62.2311 61.1598 62.5455C61.1598 62.8617 61.12 63.1316 61.0405 63.3551C60.9609 63.5777 60.8459 63.7476 60.6953 63.8651C60.5447 63.9815 60.3625 64.0398 60.1484 64.0398ZM60.1484 63.7273C60.3606 63.7273 60.5253 63.625 60.6428 63.4205C60.7602 63.2159 60.8189 62.9242 60.8189 62.5455C60.8189 62.2936 60.7919 62.0791 60.7379 61.902C60.6849 61.7249 60.6082 61.59 60.5078 61.4972C60.4084 61.4044 60.2886 61.358 60.1484 61.358C59.9382 61.358 59.7739 61.4616 59.6555 61.669C59.5372 61.8755 59.478 62.1676 59.478 62.5455C59.478 62.7973 59.5045 63.0114 59.5575 63.1875C59.6106 63.3636 59.6868 63.4976 59.7862 63.5895C59.8866 63.6813 60.0073 63.7273 60.1484 63.7273Z" fill="#29343D"/>
<path d="M17.2045 72.0909V75H16.8523V72.0909H17.2045ZM17.7518 72.4034V72.0909H19.9336V72.4034H19.0188V75H18.6665V72.4034H17.7518ZM20.4773 75V72.0909H22.233V72.4034H20.8295V73.3864H22.142V73.6989H20.8295V74.6875H22.2557V75H20.4773ZM22.8679 72.0909H23.2884L24.277 74.5057H24.3111L25.2997 72.0909H25.7202V75H25.3906V72.7898H25.3622L24.4531 75H24.1349L23.2259 72.7898H23.1974V75H22.8679V72.0909ZM28.4833 75.0398C28.2958 75.0398 28.1287 75.0076 27.9819 74.9432C27.8361 74.8788 27.7201 74.7893 27.6339 74.6747C27.5487 74.5592 27.5022 74.4252 27.4947 74.2727H27.8526C27.8602 74.3665 27.8924 74.4474 27.9492 74.5156C28.006 74.5829 28.0804 74.6349 28.1722 74.6719C28.2641 74.7088 28.3659 74.7273 28.4776 74.7273C28.6026 74.7273 28.7134 74.7055 28.81 74.6619C28.9066 74.6184 28.9824 74.5578 29.0373 74.4801C29.0922 74.4025 29.1197 74.3125 29.1197 74.2102C29.1197 74.1032 29.0932 74.009 29.0401 73.9276C28.9871 73.8452 28.9094 73.7808 28.8072 73.7344C28.7049 73.688 28.5799 73.6648 28.4322 73.6648H28.1992V73.3523H28.4322C28.5477 73.3523 28.649 73.3314 28.7362 73.2898C28.8242 73.2481 28.8929 73.1894 28.9421 73.1136C28.9923 73.0379 29.0174 72.9489 29.0174 72.8466C29.0174 72.7481 28.9956 72.6624 28.9521 72.5895C28.9085 72.5166 28.8469 72.4598 28.7674 72.419C28.6888 72.3783 28.596 72.358 28.489 72.358C28.3886 72.358 28.2939 72.3764 28.2049 72.4134C28.1168 72.4493 28.0449 72.5019 27.989 72.571C27.9331 72.6392 27.9028 72.7216 27.8981 72.8182H27.5572C27.5629 72.6657 27.6088 72.5322 27.695 72.4176C27.7811 72.3021 27.8938 72.2121 28.033 72.1477C28.1732 72.0833 28.3271 72.0511 28.4947 72.0511C28.6746 72.0511 28.829 72.0876 28.9577 72.1605C29.0865 72.2325 29.1855 72.3277 29.2546 72.446C29.3237 72.5644 29.3583 72.6922 29.3583 72.8295C29.3583 72.9934 29.3152 73.133 29.229 73.2486C29.1438 73.3641 29.0278 73.4441 28.881 73.4886V73.5114C29.0647 73.5417 29.2082 73.6198 29.3114 73.7457C29.4147 73.8707 29.4663 74.0256 29.4663 74.2102C29.4663 74.3684 29.4232 74.5104 29.337 74.6364C29.2518 74.7614 29.1353 74.8598 28.9876 74.9318C28.8398 75.0038 28.6718 75.0398 28.4833 75.0398Z" fill="#29343D"/>
<path d="M51.75 75.0398C51.536 75.0398 51.3537 74.9815 51.2031 74.8651C51.0526 74.7476 50.9375 74.5777 50.858 74.3551C50.7784 74.1316 50.7386 73.8617 50.7386 73.5455C50.7386 73.2311 50.7784 72.9626 50.858 72.7401C50.9384 72.5166 51.054 72.3461 51.2045 72.2287C51.3561 72.1103 51.5379 72.0511 51.75 72.0511C51.9621 72.0511 52.1435 72.1103 52.294 72.2287C52.4455 72.3461 52.5611 72.5166 52.6406 72.7401C52.7211 72.9626 52.7614 73.2311 52.7614 73.5455C52.7614 73.8617 52.7216 74.1316 52.642 74.3551C52.5625 74.5777 52.4474 74.7476 52.2969 74.8651C52.1463 74.9815 51.964 75.0398 51.75 75.0398ZM51.75 74.7273C51.9621 74.7273 52.1269 74.625 52.2443 74.4205C52.3617 74.2159 52.4205 73.9242 52.4205 73.5455C52.4205 73.2936 52.3935 73.0791 52.3395 72.902C52.2865 72.7249 52.2098 72.59 52.1094 72.4972C52.0099 72.4044 51.8902 72.358 51.75 72.358C51.5398 72.358 51.3755 72.4616 51.2571 72.669C51.1387 72.8755 51.0795 73.1676 51.0795 73.5455C51.0795 73.7973 51.1061 74.0114 51.1591 74.1875C51.2121 74.3636 51.2884 74.4976 51.3878 74.5895C51.4882 74.6813 51.6089 74.7273 51.75 74.7273ZM54.25 75.0398C54.036 75.0398 53.8537 74.9815 53.7031 74.8651C53.5526 74.7476 53.4375 74.5777 53.358 74.3551C53.2784 74.1316 53.2386 73.8617 53.2386 73.5455C53.2386 73.2311 53.2784 72.9626 53.358 72.7401C53.4384 72.5166 53.554 72.3461 53.7045 72.2287C53.8561 72.1103 54.0379 72.0511 54.25 72.0511C54.4621 72.0511 54.6435 72.1103 54.794 72.2287C54.9455 72.3461 55.0611 72.5166 55.1406 72.7401C55.2211 72.9626 55.2614 73.2311 55.2614 73.5455C55.2614 73.8617 55.2216 74.1316 55.142 74.3551C55.0625 74.5777 54.9474 74.7476 54.7969 74.8651C54.6463 74.9815 54.464 75.0398 54.25 75.0398ZM54.25 74.7273C54.4621 74.7273 54.6269 74.625 54.7443 74.4205C54.8617 74.2159 54.9205 73.9242 54.9205 73.5455C54.9205 73.2936 54.8935 73.0791 54.8395 72.902C54.7865 72.7249 54.7098 72.59 54.6094 72.4972C54.5099 72.4044 54.3902 72.358 54.25 72.358C54.0398 72.358 53.8755 72.4616 53.7571 72.669C53.6387 72.8755 53.5795 73.1676 53.5795 73.5455C53.5795 73.7973 53.6061 74.0114 53.6591 74.1875C53.7121 74.3636 53.7884 74.4976 53.8878 74.5895C53.9882 74.6813 54.1089 74.7273 54.25 74.7273ZM55.9496 75.0227C55.8795 75.0227 55.8194 74.9976 55.7692 74.9474C55.719 74.8973 55.6939 74.8371 55.6939 74.767C55.6939 74.697 55.719 74.6368 55.7692 74.5866C55.8194 74.5365 55.8795 74.5114 55.9496 74.5114C56.0196 74.5114 56.0798 74.5365 56.13 74.5866C56.1802 74.6368 56.2053 74.697 56.2053 74.767C56.2053 74.8134 56.1934 74.8561 56.1697 74.8949C56.147 74.9337 56.1162 74.965 56.0774 74.9886C56.0395 75.0114 55.9969 75.0227 55.9496 75.0227ZM57.6484 75.0398C57.4344 75.0398 57.2521 74.9815 57.1016 74.8651C56.951 74.7476 56.8359 74.5777 56.7564 74.3551C56.6768 74.1316 56.6371 73.8617 56.6371 73.5455C56.6371 73.2311 56.6768 72.9626 56.7564 72.7401C56.8369 72.5166 56.9524 72.3461 57.103 72.2287C57.2545 72.1103 57.4363 72.0511 57.6484 72.0511C57.8606 72.0511 58.0419 72.1103 58.1925 72.2287C58.344 72.3461 58.4595 72.5166 58.5391 72.7401C58.6196 72.9626 58.6598 73.2311 58.6598 73.5455C58.6598 73.8617 58.62 74.1316 58.5405 74.3551C58.4609 74.5777 58.3459 74.7476 58.1953 74.8651C58.0447 74.9815 57.8625 75.0398 57.6484 75.0398ZM57.6484 74.7273C57.8606 74.7273 58.0253 74.625 58.1428 74.4205C58.2602 74.2159 58.3189 73.9242 58.3189 73.5455C58.3189 73.2936 58.2919 73.0791 58.2379 72.902C58.1849 72.7249 58.1082 72.59 58.0078 72.4972C57.9084 72.4044 57.7886 72.358 57.6484 72.358C57.4382 72.358 57.2739 72.4616 57.1555 72.669C57.0372 72.8755 56.978 73.1676 56.978 73.5455C56.978 73.7973 57.0045 74.0114 57.0575 74.1875C57.1106 74.3636 57.1868 74.4976 57.2862 74.5895C57.3866 74.6813 57.5073 74.7273 57.6484 74.7273ZM60.1484 75.0398C59.9344 75.0398 59.7521 74.9815 59.6016 74.8651C59.451 74.7476 59.3359 74.5777 59.2564 74.3551C59.1768 74.1316 59.1371 73.8617 59.1371 73.5455C59.1371 73.2311 59.1768 72.9626 59.2564 72.7401C59.3369 72.5166 59.4524 72.3461 59.603 72.2287C59.7545 72.1103 59.9363 72.0511 60.1484 72.0511C60.3606 72.0511 60.5419 72.1103 60.6925 72.2287C60.844 72.3461 60.9595 72.5166 61.0391 72.7401C61.1196 72.9626 61.1598 73.2311 61.1598 73.5455C61.1598 73.8617 61.12 74.1316 61.0405 74.3551C60.9609 74.5777 60.8459 74.7476 60.6953 74.8651C60.5447 74.9815 60.3625 75.0398 60.1484 75.0398ZM60.1484 74.7273C60.3606 74.7273 60.5253 74.625 60.6428 74.4205C60.7602 74.2159 60.8189 73.9242 60.8189 73.5455C60.8189 73.2936 60.7919 73.0791 60.7379 72.902C60.6849 72.7249 60.6082 72.59 60.5078 72.4972C60.4084 72.4044 60.2886 72.358 60.1484 72.358C59.9382 72.358 59.7739 72.4616 59.6555 72.669C59.5372 72.8755 59.478 73.1676 59.478 73.5455C59.478 73.7973 59.5045 74.0114 59.5575 74.1875C59.6106 74.3636 59.6868 74.4976 59.7862 74.5895C59.8866 74.6813 60.0073 74.7273 60.1484 74.7273Z" fill="#29343D"/>
<path d="M17.2045 83.0909V86H16.8523V83.0909H17.2045ZM17.7518 83.4034V83.0909H19.9336V83.4034H19.0188V86H18.6665V83.4034H17.7518ZM20.4773 86V83.0909H22.233V83.4034H20.8295V84.3864H22.142V84.6989H20.8295V85.6875H22.2557V86H20.4773ZM22.8679 83.0909H23.2884L24.277 85.5057H24.3111L25.2997 83.0909H25.7202V86H25.3906V83.7898H25.3622L24.4531 86H24.1349L23.2259 83.7898H23.1974V86H22.8679V83.0909ZM27.4322 85.4034V85.1136L28.7106 83.0909H28.9208V83.5398H28.7788L27.8129 85.0682V85.0909H29.5344V85.4034H27.4322ZM28.8015 86V85.3153V85.1804V83.0909H29.1367V86H28.8015Z" fill="#29343D"/>
<path d="M51.75 86.0398C51.536 86.0398 51.3537 85.9815 51.2031 85.8651C51.0526 85.7476 50.9375 85.5777 50.858 85.3551C50.7784 85.1316 50.7386 84.8617 50.7386 84.5455C50.7386 84.2311 50.7784 83.9626 50.858 83.7401C50.9384 83.5166 51.054 83.3461 51.2045 83.2287C51.3561 83.1103 51.5379 83.0511 51.75 83.0511C51.9621 83.0511 52.1435 83.1103 52.294 83.2287C52.4455 83.3461 52.5611 83.5166 52.6406 83.7401C52.7211 83.9626 52.7614 84.2311 52.7614 84.5455C52.7614 84.8617 52.7216 85.1316 52.642 85.3551C52.5625 85.5777 52.4474 85.7476 52.2969 85.8651C52.1463 85.9815 51.964 86.0398 51.75 86.0398ZM51.75 85.7273C51.9621 85.7273 52.1269 85.625 52.2443 85.4205C52.3617 85.2159 52.4205 84.9242 52.4205 84.5455C52.4205 84.2936 52.3935 84.0791 52.3395 83.902C52.2865 83.7249 52.2098 83.59 52.1094 83.4972C52.0099 83.4044 51.8902 83.358 51.75 83.358C51.5398 83.358 51.3755 83.4616 51.2571 83.669C51.1387 83.8755 51.0795 84.1676 51.0795 84.5455C51.0795 84.7973 51.1061 85.0114 51.1591 85.1875C51.2121 85.3636 51.2884 85.4976 51.3878 85.5895C51.4882 85.6813 51.6089 85.7273 51.75 85.7273ZM54.25 86.0398C54.036 86.0398 53.8537 85.9815 53.7031 85.8651C53.5526 85.7476 53.4375 85.5777 53.358 85.3551C53.2784 85.1316 53.2386 84.8617 53.2386 84.5455C53.2386 84.2311 53.2784 83.9626 53.358 83.7401C53.4384 83.5166 53.554 83.3461 53.7045 83.2287C53.8561 83.1103 54.0379 83.0511 54.25 83.0511C54.4621 83.0511 54.6435 83.1103 54.794 83.2287C54.9455 83.3461 55.0611 83.5166 55.1406 83.7401C55.2211 83.9626 55.2614 84.2311 55.2614 84.5455C55.2614 84.8617 55.2216 85.1316 55.142 85.3551C55.0625 85.5777 54.9474 85.7476 54.7969 85.8651C54.6463 85.9815 54.464 86.0398 54.25 86.0398ZM54.25 85.7273C54.4621 85.7273 54.6269 85.625 54.7443 85.4205C54.8617 85.2159 54.9205 84.9242 54.9205 84.5455C54.9205 84.2936 54.8935 84.0791 54.8395 83.902C54.7865 83.7249 54.7098 83.59 54.6094 83.4972C54.5099 83.4044 54.3902 83.358 54.25 83.358C54.0398 83.358 53.8755 83.4616 53.7571 83.669C53.6387 83.8755 53.5795 84.1676 53.5795 84.5455C53.5795 84.7973 53.6061 85.0114 53.6591 85.1875C53.7121 85.3636 53.7884 85.4976 53.8878 85.5895C53.9882 85.6813 54.1089 85.7273 54.25 85.7273ZM55.9496 86.0227C55.8795 86.0227 55.8194 85.9976 55.7692 85.9474C55.719 85.8973 55.6939 85.8371 55.6939 85.767C55.6939 85.697 55.719 85.6368 55.7692 85.5866C55.8194 85.5365 55.8795 85.5114 55.9496 85.5114C56.0196 85.5114 56.0798 85.5365 56.13 85.5866C56.1802 85.6368 56.2053 85.697 56.2053 85.767C56.2053 85.8134 56.1934 85.8561 56.1697 85.8949C56.147 85.9337 56.1162 85.965 56.0774 85.9886C56.0395 86.0114 55.9969 86.0227 55.9496 86.0227ZM57.6484 86.0398C57.4344 86.0398 57.2521 85.9815 57.1016 85.8651C56.951 85.7476 56.8359 85.5777 56.7564 85.3551C56.6768 85.1316 56.6371 84.8617 56.6371 84.5455C56.6371 84.2311 56.6768 83.9626 56.7564 83.7401C56.8369 83.5166 56.9524 83.3461 57.103 83.2287C57.2545 83.1103 57.4363 83.0511 57.6484 83.0511C57.8606 83.0511 58.0419 83.1103 58.1925 83.2287C58.344 83.3461 58.4595 83.5166 58.5391 83.7401C58.6196 83.9626 58.6598 84.2311 58.6598 84.5455C58.6598 84.8617 58.62 85.1316 58.5405 85.3551C58.4609 85.5777 58.3459 85.7476 58.1953 85.8651C58.0447 85.9815 57.8625 86.0398 57.6484 86.0398ZM57.6484 85.7273C57.8606 85.7273 58.0253 85.625 58.1428 85.4205C58.2602 85.2159 58.3189 84.9242 58.3189 84.5455C58.3189 84.2936 58.2919 84.0791 58.2379 83.902C58.1849 83.7249 58.1082 83.59 58.0078 83.4972C57.9084 83.4044 57.7886 83.358 57.6484 83.358C57.4382 83.358 57.2739 83.4616 57.1555 83.669C57.0372 83.8755 56.978 84.1676 56.978 84.5455C56.978 84.7973 57.0045 85.0114 57.0575 85.1875C57.1106 85.3636 57.1868 85.4976 57.2862 85.5895C57.3866 85.6813 57.5073 85.7273 57.6484 85.7273ZM60.1484 86.0398C59.9344 86.0398 59.7521 85.9815 59.6016 85.8651C59.451 85.7476 59.3359 85.5777 59.2564 85.3551C59.1768 85.1316 59.1371 84.8617 59.1371 84.5455C59.1371 84.2311 59.1768 83.9626 59.2564 83.7401C59.3369 83.5166 59.4524 83.3461 59.603 83.2287C59.7545 83.1103 59.9363 83.0511 60.1484 83.0511C60.3606 83.0511 60.5419 83.1103 60.6925 83.2287C60.844 83.3461 60.9595 83.5166 61.0391 83.7401C61.1196 83.9626 61.1598 84.2311 61.1598 84.5455C61.1598 84.8617 61.12 85.1316 61.0405 85.3551C60.9609 85.5777 60.8459 85.7476 60.6953 85.8651C60.5447 85.9815 60.3625 86.0398 60.1484 86.0398ZM60.1484 85.7273C60.3606 85.7273 60.5253 85.625 60.6428 85.4205C60.7602 85.2159 60.8189 84.9242 60.8189 84.5455C60.8189 84.2936 60.7919 84.0791 60.7379 83.902C60.6849 83.7249 60.6082 83.59 60.5078 83.4972C60.4084 83.4044 60.2886 83.358 60.1484 83.358C59.9382 83.358 59.7739 83.4616 59.6555 83.669C59.5372 83.8755 59.478 84.1676 59.478 84.5455C59.478 84.7973 59.5045 85.0114 59.5575 85.1875C59.6106 85.3636 59.6868 85.4976 59.7862 85.5895C59.8866 85.6813 60.0073 85.7273 60.1484 85.7273Z" fill="#29343D"/>
<path d="M70 92H10V93H70V92Z" fill="#29343D"/>
</g>
<defs>
<clipPath id="clip0_1238_25340">
<rect width="90" height="95" fill="white"/>
</clipPath>
</defs>
</svg>
