<svg width="91" height="87" viewBox="0 0 91 87" fill="none" xmlns="http://www.w3.org/2000/svg">
<g clip-path="url(#clip0_1238_25549)">
<path d="M90.9998 22.7171L38.0305 0L7.27532 67.2829L60.2446 90L90.9998 22.7171Z" fill="#D1D3D4"/>
<path d="M41.241 14.5041C43.3982 14.5041 45.1469 12.8103 45.1469 10.7208C45.1469 8.63134 43.3982 6.9375 41.241 6.9375C39.0839 6.9375 37.3352 8.63134 37.3352 10.7208C37.3352 12.8103 39.0839 14.5041 41.241 14.5041Z" fill="#DF833C"/>
<path d="M57.3606 15.5661L46.6865 10.9883L46.3845 11.6491L57.0586 16.2269L57.3606 15.5661Z" fill="#DF833C"/>
<path d="M52.1263 14.994L46.0469 12.3867L45.7448 13.0475L51.8243 15.6548L52.1263 14.994Z" fill="#010A3D"/>
<path d="M69.0813 35.1077L45.0122 24.7852L43.4875 28.1208L67.5566 38.4433L69.0813 35.1077Z" fill="#010A3D"/>
<path d="M32.3662 30.0938C36.3098 31.785 35.8385 32.816 39.7821 34.5073C43.7256 36.1986 43.9882 35.6241 47.9317 37.3153C51.8752 39.0066 51.5539 39.71 55.4976 41.4013C59.4418 43.0929 59.8857 42.1218 63.83 43.8134C67.7743 45.5049 67.4794 46.1502 71.4236 47.8414" stroke="#010A3D" stroke-width="0.92" stroke-miterlimit="10"/>
<path d="M29.9095 35.4688C33.8531 37.16 33.7858 37.3073 37.7293 38.9986C41.6729 40.6899 41.7607 40.4978 45.7042 42.189C49.6477 43.8803 49.4839 44.2389 53.4276 45.9303C57.3719 47.6219 57.6164 47.0869 61.5607 48.7786C65.5051 50.4703 65.2643 50.9967 69.2086 52.6883" stroke="#010A3D" stroke-width="0.92" stroke-miterlimit="10"/>
<path d="M27.9684 39.7148C31.9119 41.4061 31.6791 41.9156 35.6226 43.6069C39.5661 45.2982 39.6182 45.1842 43.5617 46.8755C47.5052 48.5667 47.4087 48.7783 51.3524 50.4698C55.2967 52.1614 55.4191 51.8936 59.3633 53.5852C63.3076 55.2768 63.049 55.8425 66.9931 57.534" stroke="#010A3D" stroke-width="0.92" stroke-miterlimit="10"/>
<path d="M25.5925 44.9121C29.5361 46.6034 29.46 46.7699 33.4035 48.4612C37.3471 50.1525 37.3935 50.0509 41.337 51.7421C45.2805 53.4334 45.1239 53.7766 49.0674 55.4679C53.0116 57.1595 53.2858 56.5596 57.2301 58.2512C61.1743 59.9428 61.0434 60.2293 64.9876 61.9209" stroke="#010A3D" stroke-width="0.92" stroke-miterlimit="10"/>
<path d="M23.7112 49.0283C27.6547 50.7196 27.1501 51.8235 31.0937 53.5148C35.0372 55.2061 35.2383 54.7665 39.1817 56.4577C43.125 58.149 43.0427 58.3299 46.9864 60.0213C50.9306 61.7129 51.0955 61.3521 55.0396 63.0436C58.9837 64.7352 58.8851 64.9513 62.8293 66.6429" stroke="#010A3D" stroke-width="0.92" stroke-miterlimit="10"/>
<path d="M21.4454 53.9854C25.389 55.6766 24.99 56.5494 28.9336 58.2407C32.8772 59.9319 33.3502 58.8971 37.2936 60.5883C41.2371 62.2796 40.9905 62.8195 44.9343 64.5108C48.8786 66.2024 48.8715 66.2178 52.8157 67.9094C56.76 69.601 56.437 70.3075 60.3813 71.999" stroke="#010A3D" stroke-width="0.92" stroke-miterlimit="10"/>
<path d="M41.0384 20.6172H5.28491C2.4914 20.6172 0.226807 22.8107 0.226807 25.5166V75.2364C0.226807 77.9423 2.4914 80.1359 5.28491 80.1359H41.0384C43.832 80.1359 46.0965 77.9423 46.0965 75.2364V25.5166C46.0965 22.8107 43.832 20.6172 41.0384 20.6172Z" fill="#DF833C"/>
<path d="M39.6178 29.3721H6.72827V35.132H39.6178V29.3721Z" fill="#ACE5F2"/>
<path d="M12.4953 37.7949H7.36698C7.01423 37.7949 6.72827 38.0719 6.72827 38.4136V39.6832C6.72827 40.0249 7.01423 40.3019 7.36698 40.3019H12.4953C12.8481 40.3019 13.134 40.0249 13.134 39.6832V38.4136C13.134 38.0719 12.8481 37.7949 12.4953 37.7949Z" fill="white"/>
<path d="M11.8105 43.2471H8.66216C7.78031 43.2471 7.06543 43.9395 7.06543 44.7937V47.533C7.06543 48.3872 7.78031 49.0796 8.66216 49.0796H11.8105C12.6923 49.0796 13.4072 48.3872 13.4072 47.533V44.7937C13.4072 43.9395 12.6923 43.2471 11.8105 43.2471Z" fill="white"/>
<path d="M20.8427 43.2471H17.6944C16.8125 43.2471 16.0977 43.9395 16.0977 44.7937V47.533C16.0977 48.3872 16.8125 49.0796 17.6944 49.0796H20.8427C21.7245 49.0796 22.4394 48.3872 22.4394 47.533V44.7937C22.4394 43.9395 21.7245 43.2471 20.8427 43.2471Z" fill="white"/>
<path d="M29.8749 43.2471H26.7266C25.8448 43.2471 25.1299 43.9395 25.1299 44.7937V47.533C25.1299 48.3872 25.8448 49.0796 26.7266 49.0796H29.8749C30.7568 49.0796 31.4716 48.3872 31.4716 47.533V44.7937C31.4716 43.9395 30.7568 43.2471 29.8749 43.2471Z" fill="white"/>
<path d="M38.9071 43.2471H35.7588C34.877 43.2471 34.1621 43.9395 34.1621 44.7937V47.533C34.1621 48.3872 34.877 49.0796 35.7588 49.0796H38.9071C39.789 49.0796 40.5039 48.3872 40.5039 47.533V44.7937C40.5039 43.9395 39.789 43.2471 38.9071 43.2471Z" fill="#ACE5F2"/>
<path d="M11.8105 52.2539H8.66216C7.78031 52.2539 7.06543 52.9464 7.06543 53.8005V56.5398C7.06543 57.394 7.78031 58.0865 8.66216 58.0865H11.8105C12.6923 58.0865 13.4072 57.394 13.4072 56.5398V53.8005C13.4072 52.9464 12.6923 52.2539 11.8105 52.2539Z" fill="white"/>
<path d="M20.8427 52.2539H17.6944C16.8125 52.2539 16.0977 52.9464 16.0977 53.8005V56.5398C16.0977 57.394 16.8125 58.0865 17.6944 58.0865H20.8427C21.7245 58.0865 22.4394 57.394 22.4394 56.5398V53.8005C22.4394 52.9464 21.7245 52.2539 20.8427 52.2539Z" fill="white"/>
<path d="M29.8749 52.2539H26.7266C25.8448 52.2539 25.1299 52.9464 25.1299 53.8005V56.5398C25.1299 57.394 25.8448 58.0865 26.7266 58.0865H29.8749C30.7568 58.0865 31.4716 57.394 31.4716 56.5398V53.8005C31.4716 52.9464 30.7568 52.2539 29.8749 52.2539Z" fill="white"/>
<path d="M38.9071 52.2539H35.7588C34.877 52.2539 34.1621 52.9464 34.1621 53.8005V56.5398C34.1621 57.394 34.877 58.0865 35.7588 58.0865H38.9071C39.789 58.0865 40.5039 57.394 40.5039 56.5398V53.8005C40.5039 52.9464 39.789 52.2539 38.9071 52.2539Z" fill="#ACE5F2"/>
<path d="M11.8105 61.2607H8.66216C7.78031 61.2607 7.06543 61.9532 7.06543 62.8074V65.5467C7.06543 66.4009 7.78031 67.0933 8.66216 67.0933H11.8105C12.6923 67.0933 13.4072 66.4009 13.4072 65.5467V62.8074C13.4072 61.9532 12.6923 61.2607 11.8105 61.2607Z" fill="white"/>
<path d="M20.8427 61.2607H17.6944C16.8125 61.2607 16.0977 61.9532 16.0977 62.8074V65.5467C16.0977 66.4009 16.8125 67.0933 17.6944 67.0933H20.8427C21.7245 67.0933 22.4394 66.4009 22.4394 65.5467V62.8074C22.4394 61.9532 21.7245 61.2607 20.8427 61.2607Z" fill="white"/>
<path d="M29.8749 61.2607H26.7266C25.8448 61.2607 25.1299 61.9532 25.1299 62.8074V65.5467C25.1299 66.4009 25.8448 67.0933 26.7266 67.0933H29.8749C30.7568 67.0933 31.4716 66.4009 31.4716 65.5467V62.8074C31.4716 61.9532 30.7568 61.2607 29.8749 61.2607Z" fill="white"/>
<path d="M11.8105 70.2676H8.66216C7.78031 70.2676 7.06543 70.96 7.06543 71.8142V74.5535C7.06543 75.4077 7.78031 76.1002 8.66216 76.1002H11.8105C12.6923 76.1002 13.4072 75.4077 13.4072 74.5535V71.8142C13.4072 70.96 12.6923 70.2676 11.8105 70.2676Z" fill="white"/>
<path d="M20.8427 70.2676H17.6944C16.8125 70.2676 16.0977 70.96 16.0977 71.8142V74.5535C16.0977 75.4077 16.8125 76.1002 17.6944 76.1002H20.8427C21.7245 76.1002 22.4394 75.4077 22.4394 74.5535V71.8142C22.4394 70.96 21.7245 70.2676 20.8427 70.2676Z" fill="white"/>
<path d="M29.8749 70.2676H26.7266C25.8448 70.2676 25.1299 70.96 25.1299 71.8142V74.5535C25.1299 75.4077 25.8448 76.1002 26.7266 76.1002H29.8749C30.7568 76.1002 31.4716 75.4077 31.4716 74.5535V71.8142C31.4716 70.96 30.7568 70.2676 29.8749 70.2676Z" fill="#010A3D"/>
<path d="M38.9071 61.2607H35.7588C34.877 61.2607 34.1621 61.9532 34.1621 62.8074V74.5536C34.1621 75.4078 34.877 76.1002 35.7588 76.1002H38.9071C39.789 76.1002 40.5039 75.4078 40.5039 74.5536V62.8074C40.5039 61.9532 39.789 61.2607 38.9071 61.2607Z" fill="#F2E416"/>
<path d="M21.6186 37.7949H16.4903C16.1375 37.7949 15.8516 38.0719 15.8516 38.4136V39.6832C15.8516 40.0249 16.1375 40.3019 16.4903 40.3019H21.6186C21.9713 40.3019 22.2573 40.0249 22.2573 39.6832V38.4136C22.2573 38.0719 21.9713 37.7949 21.6186 37.7949Z" fill="white"/>
<path d="M30.7419 37.7949H25.6136C25.2608 37.7949 24.9749 38.0719 24.9749 38.4136V39.6832C24.9749 40.0249 25.2608 40.3019 25.6136 40.3019H30.7419C31.0946 40.3019 31.3806 40.0249 31.3806 39.6832V38.4136C31.3806 38.0719 31.0946 37.7949 30.7419 37.7949Z" fill="white"/>
<path d="M39.8652 37.7949H34.7368C34.3841 37.7949 34.0981 38.0719 34.0981 38.4136V39.6832C34.0981 40.0249 34.3841 40.3019 34.7368 40.3019H39.8652C40.2179 40.3019 40.5039 40.0249 40.5039 39.6832V38.4136C40.5039 38.0719 40.2179 37.7949 39.8652 37.7949Z" fill="#ACE5F2"/>
</g>
<defs>
<clipPath id="clip0_1238_25549">
<rect width="90.773" height="90" fill="white" transform="translate(0.226807)"/>
</clipPath>
</defs>
</svg>
